{
.appVersion = "3231";
.formatVersion = 3;
DisplayStrings = (
"Ȫ",
"ǒ",
"Ɔ",
"tƭ",
"ƭ",
"ȗ",
"Ʈ",
"ȩ",
"AǍẬȀǞȦǠȂⱭḀȺǢBḂḄꞴƁḆɃCḈꞳƇȻDḐḒḊḌƊḎƉEÉȨḜḘỆȄẸȆḖḔƐƎƩɆẼḚƏƷǮƸFḞƑGǴǦƓɁḠǤHḪȞḨḦḢḤꜦꞪꞍIǏȈḮỊȊƖƗĨḬJꞲɈKḰǨḲƘḴꝀLȽꞭḼḶḸⱠḺⱢMḾṀṂƜNṊṄṆǸƝȠṈŊOȢǑƟỘȌȪȮȰỌȎṒṐꞶǪǬƆǾṌṎȬPṔṖƤⱣQɊRȐṘṚṜȒṞɌⱤSṤṦṠṢṨꞨTṰȾṪṬƬṮƮUɄǓṶȔǗṲǙǛǕỤȖṺƱŨṸṴVƔṾƲṼɅWẆẈⱲXẌẊYẎƳȲɎZẐẒẔƵꞋɪaǎậȁǟȧạǡȃɑḁⱥǣbḃḅꞵɓʘḇƀcḉꭓƈȼdḑḓḋḍɗḏɖeéȩḝḙệȅẹȇḗḕɛʃɇẽḛǝəʒǯƹfḟgǵɣǧɠʔʕɂḡǥhḫȟḩḧḣḥꜧɦɥiǐȉḯịȋɩɨĩḭjʝɉkḱǩḳƙḵꝁlƛƚɬḽḷḹⱡḻɫmḿṁṃɯnṋṅṇǹɲƞṉŋoɵǒộȍȫȯȱọȏṓṑꞷǫǭɔǿṍṏȭȣpṕṗƥᵽqɋrȑṙṛṝɾȓṟɍɽsṥṧṡṣṩꞩtṱⱦṫṭƭṯʈuʉǔṷȕǘṳǚǜǖụȗṻʊũṹṵvṿʋṽʌwẇẉⱳxẍẋyẏƴȳɏzẑẓẕƶꞌǂǀǁǃʰⁿʷᵘᵛᶻ",
"ǟ",
"Ḇ",
"ḇ",
"Ḇ̱ḎḴḸḺṈṜṞṮẔḇḏḵḹḻṉṝṟṯẕ̱",
"{",
"Ɠ",
"Ɦ",
b,
ABDEFMNPRU,
"PREPACKING HARE-LIPPED EMMOVING MISALLOTMENTS ZYGON FETISHIST HIEROGRAMS RHUBARBY IMPOUND LIFESTYLES REACQUAINTANCE PENTANDRIA HEUREKAS ROUGHHOUSES OBELISCAL CARD-INDEX RADICALIZE GIGAFLOP SPECIOSITY .  FOURSCORES"
);
axes = (
{
name = Weight;
tag = wght;
}
);
customParameters = (
{
name = vendorID;
value = "    ";
},
{
name = panose;
value = (
0,
0,
0,
0,
0,
0,
0,
0,
0,
0
);
},
{
name = unicodeRanges;
value = (
0,
1,
5,
31,
33,
35
);
},
{
name = codePageRanges;
value = (
"1252"
);
},
{
name = fsType;
value = (
);
},
{
name = blueScale;
value = 0.04;
},
{
name = blueShift;
value = 7;
},
{
name = blueFuzz;
value = 1;
},
{
name = TTFBlueFuzz;
value = 1;
}
);
date = "2023-10-25 20:34:19 +0000";
familyName = Madimi;
featurePrefixes = (
{
automatic = 1;
code = "languagesystem DFLT dflt;
";
name = Languagesystems;
}
);
fontMaster = (
{
axesValues = (
92
);
guides = (
{
pos = (226,-230);
},
{
pos = (266,391);
}
);
iconName = Bold;
id = "2F065738-4B59-43EB-A5F2-FD5F277958EA";
metricValues = (
{
over = 12;
pos = 750;
},
{
over = 12;
pos = 700;
},
{
over = 12;
pos = 500;
},
{
over = -12;
},
{
over = -12;
pos = -250;
},
{
}
);
name = Bold;
stemValues = (
120,
144
);
userData = {
GSCornerRadius = 80;
GSOffsetHorizontal = 92;
GSOffsetKeepCompatible = 1;
GSOffsetMakeStroke = 1;
GSOffsetVertical = 0;
};
}
);
glyphs = (
{
color = 6;
glyphname = A;
lastChange = "2023-12-28 22:42:05 +0000";
layers = (
{
anchors = (
{
name = bottom;
pos = (309,0);
},
{
name = ogonek;
pos = (538,10);
},
{
name = top;
pos = (309,700);
}
);
background = {
shapes = (
{
pos = (9,0);
ref = B;
}
);
};
hints = (
{
horizontal = 1;
place = (652,72);
type = Stem;
},
{
horizontal = 1;
place = (313,73);
type = Stem;
},
{
horizontal = 1;
place = (-24,21);
target = up;
type = BottomGhost;
},
{
place = (410,91);
type = Stem;
},
{
place = (73,90);
type = Stem;
}
);
layerId = "2F065738-4B59-43EB-A5F2-FD5F277958EA";
shapes = (
{
closed = 1;
nodes = (
(187,-8,o),
(211,14,o),
(211,56,cs),
(211,186,ls),
(211,241,o),
(239,259,o),
(298,259,cs),
(338,259,o),
(367,277,o),
(392,300,c),
(392,54,ls),
(392,14,o),
(418,-8,o),
(464,-8,cs),
(511,-8,o),
(536,13,o),
(536,54,cs),
(536,455,ls),
(536,636,o),
(460,711,o),
(298,711,cs),
(139,711,o),
(67,639,o),
(67,455,cs),
(67,56,ls),
(67,14,o),
(89,-8,o),
(139,-8,cs)
);
},
{
closed = 1;
nodes = (
(209,373,o),
(210,409,o),
(210,461,cs),
(210,562,o),
(230,594,o),
(297,594,cs),
(369,594,o),
(393,563,o),
(393,465,cs),
(393,398,o),
(374,386,o),
(298,386,cs),
(255,386,o),
(226,373,o),
(205,352,c)
);
}
);
width = 603;
}
);
metricLeft = N;
metricRight = N;
note = A;
unicode = 65;
},
{
color = 1;
glyphname = AEmacron;
lastChange = "2023-12-30 23:56:01 +0000";
layers = (
{
anchors = (
{
name = bottom;
pos = (912,0);
},
{
name = ogonek;
pos = (1123,10);
},
{
name = top;
pos = (939,700);
},
{
name = topleft;
pos = (667,700);
}
);
hints = (
{
horizontal = 1;
place = (652,72);
type = Stem;
},
{
horizontal = 1;
place = (314,72);
type = Stem;
},
{
horizontal = 1;
place = (-25,71);
type = Stem;
},
{
place = (654,90);
type = Stem;
},
{
horizontal = 1;
place = (642.882,70.11);
type = Stem;
},
{
horizontal = 1;
place = (312.782,71.083);
type = Stem;
},
{
horizontal = 1;
place = (-15.37,21);
target = up;
type = BottomGhost;
},
{
place = (408.235,88.611);
type = Stem;
},
{
place = (80.083,87.637);
type = Stem;
}
);
layerId = "2F065738-4B59-43EB-A5F2-FD5F277958EA";
shapes = (
{
closed = 1;
nodes = (
(467,684,l),
(292,700,l),
(137,700,o),
(67,630,o),
(67,451,cs),
(67,63,ls),
(67,22,o),
(89,0,o),
(137,0,cs),
(184,0,o),
(207,22,o),
(207,63,cs),
(207,189,ls),
(207,243,o),
(235,260,o),
(292,260,cs),
(331,260,o),
(359,278,o),
(384,300,c),
(384,61,ls),
(384,22,o),
(409,0,o),
(454,0,cs),
(479,0,o),
(503,21,o),
(503,61,c)
);
},
{
closed = 1;
nodes = (
(206,371,o),
(206,406,o),
(206,457,cs),
(206,555,o),
(226,586,o),
(291,586,cs),
(361,586,o),
(385,556,o),
(385,461,cs),
(385,396,o),
(366,384,o),
(292,384,cs),
(250,384,o),
(222,371,o),
(202,351,c)
);
},
{
closed = 1;
nodes = (
(419,667,l),
(447,0,l),
(751,0,ls),
(802,0,o),
(805,18,o),
(805,64,cs),
(805,112,o),
(784,132,o),
(735,132,cs),
(509,132,l),
(509,198,l),
(509,273,o),
(525,291,o),
(587,291,cs),
(694,291,ls),
(730,291,o),
(753,317,o),
(753,357,cs),
(753,397,o),
(731,421,o),
(694,421,cs),
(595,421,ls),
(561,421,o),
(524,409,o),
(501,390,c),
(505,420,o),
(509,455,o),
(509,483,cs),
(509,543,o),
(536,568,o),
(603,568,cs),
(735,568,ls),
(779,568,o),
(805,592,o),
(805,633,cs),
(805,675,o),
(779,700,o),
(735,700,cs),
(299,700,l)
);
}
);
width = 837;
}
);
metricLeft = N;
metricRight = E;
unicode = 482;
},
{
color = 6;
glyphname = B;
lastChange = "2023-12-31 00:03:18 +0000";
layers = (
{
anchors = (
{
name = bottom;
pos = (350,0);
},
{
name = top;
pos = (350,700);
}
);
hints = (
{
horizontal = 1;
place = (653,72);
type = Stem;
},
{
horizontal = 1;
place = (315,72);
type = Stem;
},
{
horizontal = 1;
place = (-24,72);
type = Stem;
},
{
place = (389,90);
type = Stem;
},
{
place = (51,90);
type = Stem;
}
);
layerId = "2F065738-4B59-43EB-A5F2-FD5F277958EA";
shapes = (
{
closed = 1;
nodes = (
(316,0,ls),
(487,0,o),
(567,71,o),
(567,204,cs),
(567,296,o),
(540,344,o),
(475,373,c),
(516,397,o),
(537,447,o),
(537,503,cs),
(537,641,o),
(456,711,o),
(316,711,cs),
(105,711,o),
(67,590,o),
(67,503,cs),
(67,53,ls),
(67,22,o),
(86,0,o),
(112,0,cs)
);
},
{
closed = 1;
nodes = (
(211,204,ls),
(211,299,o),
(233,325,o),
(316,325,cs),
(393,325,o),
(423,291,o),
(423,204,cs),
(423,142,o),
(396,116,o),
(316,116,cs),
(211,116,l)
);
},
{
closed = 1;
nodes = (
(210,423,o),
(211,441,o),
(211,503,cs),
(211,571,o),
(238,596,o),
(316,596,cs),
(371,596,o),
(398,570,o),
(398,503,cs),
(398,445,o),
(379,425,o),
(316,425,cs),
(263,425,o),
(221,412,o),
(204,391,c)
);
}
);
width = 607;
}
);
metricLeft = N;
note = B;
unicode = 66;
},
{
color = 1;
glyphname = "Beta-latin";
lastChange = "2023-12-30 16:15:17 +0000";
layers = (
{
anchors = (
{
name = bottom;
pos = (355,0);
},
{
name = top;
pos = (355,700);
}
);
hints = (
{
horizontal = 1;
place = (653,72);
type = Stem;
},
{
horizontal = 1;
place = (315,72);
type = Stem;
},
{
horizontal = 1;
place = (-24,72);
type = Stem;
},
{
place = (389,90);
type = Stem;
},
{
place = (51,90);
type = Stem;
}
);
layerId = "2F065738-4B59-43EB-A5F2-FD5F277958EA";
shapes = (
{
closed = 1;
nodes = (
(226,412,o),
(268,425,o),
(321,425,cs),
(384,425,o),
(403,445,o),
(403,503,cs),
(403,570,o),
(376,596,o),
(321,596,cs),
(243,596,o),
(216,571,o),
(216,503,cs),
(216,441,o),
(215,423,o),
(209,391,c)
);
},
{
closed = 1;
nodes = (
(216,-231,o),
(191,-250,o),
(147,-250,cs),
(99,-250,o),
(72,-231,o),
(72,-197,cs),
(72,503,ls),
(72,590,o),
(110,711,o),
(321,711,cs),
(461,711,o),
(542,641,o),
(542,503,cs),
(542,447,o),
(521,397,o),
(480,373,c),
(545,344,o),
(572,296,o),
(572,204,cs),
(572,71,o),
(492,0,o),
(321,0,c),
(288,0,o),
(257,15,o),
(257,61,c),
(257,113,o),
(288,116,o),
(321,116,c),
(401,116,o),
(428,142,o),
(428,204,cs),
(428,291,o),
(398,325,o),
(321,325,cs),
(238,325,o),
(216,299,o),
(216,204,cs),
(216,-197,ls)
);
}
);
width = 618;
}
);
unicode = 42932;
},
{
color = 1;
glyphname = Bhook;
lastChange = "2023-12-30 16:15:17 +0000";
layers = (
{
layerId = "2F065738-4B59-43EB-A5F2-FD5F277958EA";
shapes = (
{
ref = B;
},
{
closed = 1;
nodes = (
(339,711,l),
(90,711,ls),
(-11,711,o),
(-107,635,o),
(-107,540,cs),
(-107,483,o),
(-103,421,o),
(-46,421,cs),
(15,421,o),
(2,472,o),
(2,481,c),
(2,566,o),
(39,587,o),
(117,587,c),
(159,589,l)
);
}
);
width = 618;
}
);
unicode = 385;
},
{
color = 6;
glyphname = C;
lastChange = "2023-12-30 15:31:52 +0000";
layers = (
{
background = {
shapes = (
{
closed = 1;
nodes = (
(473,-8,o),
(563,105,o),
(563,300,cs),
(563,379,o),
(543,399,o),
(473,399,cs),
(367,399,ls),
(333,399,o),
(313,379,o),
(313,343,cs),
(313,307,o),
(332,288,o),
(367,288,cs),
(449,288,l),
(436,270,o),
(428,241,o),
(418,197,cs),
(406,144,o),
(367,124,o),
(307,124,cs),
(236,124,o),
(196,169,o),
(196,349,cs),
(196,527,o),
(230,579,o),
(317,579,cs),
(354,579,o),
(394,573,o),
(428,573,cs),
(479,573,o),
(501,593,o),
(501,632,cs),
(501,660,o),
(487,678,o),
(459,689,cs),
(425,703,o),
(376,711,o),
(325,711,cs),
(145,711,o),
(48,599,o),
(48,350,cs),
(48,92,o),
(133,-8,o),
(304,-8,cs)
);
}
);
};
layerId = "2F065738-4B59-43EB-A5F2-FD5F277958EA";
shapes = (
{
closed = 1;
nodes = (
(461,-8,o),
(490,9,o),
(490,60,cs),
(490,106,o),
(467,123,o),
(408,123,cs),
(246,123,o),
(198,145,o),
(198,346,cs),
(198,547,o),
(202,579,o),
(320,579,cs),
(356,579,o),
(395,573,o),
(428,573,cs),
(479,573,o),
(501,593,o),
(501,632,cs),
(501,702,o),
(385,712,o),
(325,711,cs),
(120,704,o),
(48,613,o),
(48,347,cs),
(48,81,o),
(158,-8,o),
(376,-8,cs)
);
}
);
width = 533;
},
{
associatedMasterId = "2F065738-4B59-43EB-A5F2-FD5F277958EA";
layerId = "E4F3E251-5323-434C-BDDA-6EF4676E931D";
name = "18 Dec 23, 13:49";
shapes = (
{
closed = 1;
nodes = (
(470,-8,o),
(499,9,o),
(499,60,cs),
(499,106,o),
(476,123,o),
(417,123,cs),
(255,123,o),
(207,175,o),
(207,346,cs),
(207,521,o),
(255,581,o),
(417,581,c),
(477,581,o),
(499,598,o),
(499,643,c),
(499,694,o),
(470,711,o),
(385,711,c),
(166,711,o),
(57,586,o),
(57,347,cs),
(57,111,o),
(167,-8,o),
(385,-8,cs)
);
}
);
width = 531;
}
);
metricLeft = O;
metricRight = E;
unicode = 67;
},
{
color = 1;
glyphname = Chook;
lastChange = "2023-12-30 16:57:18 +0000";
layers = (
{
layerId = "2F065738-4B59-43EB-A5F2-FD5F277958EA";
shapes = (
{
ref = C;
},
{
closed = 1;
nodes = (
(501,628,l),
(501,717,l),
(501,776,o),
(512,837,o),
(565,837,cs),
(641,837,o),
(684,826,o),
(684,885,cs),
(684,940,o),
(649,954,o),
(562,954,cs),
(423,954,o),
(357,852,o),
(357,697,cs),
(357,663,l)
);
}
);
width = 533;
}
);
unicode = 391;
},
{
color = 6;
glyphname = D;
lastChange = "2023-12-30 23:52:32 +0000";
layers = (
{
anchors = (
{
name = bottom;
pos = (348,0);
},
{
name = center;
pos = (348,350);
},
{
name = top;
pos = (348,700);
}
);
background = {
shapes = (
{
pos = (-10,0);
ref = B;
}
);
};
hints = (
{
horizontal = 1;
place = (652,72);
type = Stem;
},
{
horizontal = 1;
place = (-25,73);
type = Stem;
},
{
place = (389,90);
type = Stem;
},
{
place = (51,90);
type = Stem;
}
);
layerId = "2F065738-4B59-43EB-A5F2-FD5F277958EA";
shapes = (
{
closed = 1;
nodes = (
(282,-2,ls),
(475,-2,o),
(567,112,o),
(567,343,cs),
(567,583,o),
(481,711,o),
(282,711,cs),
(118,711,o),
(67,607,o),
(67,497,cs),
(67,49,ls),
(67,27,o),
(81,-2,o),
(113,-2,cs)
);
},
{
closed = 1;
nodes = (
(211,529,ls),
(211,563,o),
(232,586,o),
(282,586,cs),
(391,586,o),
(423,527,o),
(423,343,cs),
(423,168,o),
(364,116,o),
(282,116,cs),
(211,116,l)
);
}
);
width = 615;
}
);
metricLeft = A;
metricRight = O;
note = D;
unicode = 68;
},
{
color = 1;
glyphname = Dhook;
lastChange = "2023-12-30 21:23:22 +0000";
layers = (
{
layerId = "2F065738-4B59-43EB-A5F2-FD5F277958EA";
shapes = (
{
ref = D;
},
{
closed = 1;
nodes = (
(296,711,l),
(47,713,ls),
(-54,714,o),
(-150,635,o),
(-150,540,cs),
(-150,483,o),
(-146,421,o),
(-89,421,cs),
(-28,421,o),
(-41,472,o),
(-41,481,c),
(-41,566,o),
(-4,587,o),
(74,587,c),
(116,589,l)
);
}
);
width = 615;
}
);
unicode = 394;
},
{
color = 6;
glyphname = E;
lastChange = "2023-12-30 23:54:52 +0000";
layers = (
{
anchors = (
{
name = bottom;
pos = (316,0);
},
{
name = ogonek;
pos = (527,10);
},
{
name = top;
pos = (343,700);
},
{
name = topleft;
pos = (71,700);
}
);
background = {
shapes = (
{
pos = (-4,0);
ref = H;
}
);
};
hints = (
{
horizontal = 1;
place = (652,72);
type = Stem;
},
{
horizontal = 1;
place = (314,72);
type = Stem;
},
{
horizontal = 1;
place = (-25,71);
type = Stem;
},
{
place = (51,90);
type = Stem;
}
);
layerId = "2F065738-4B59-43EB-A5F2-FD5F277958EA";
shapes = (
{
closed = 1;
nodes = (
(442,0,ls),
(493,0,o),
(512,18,o),
(512,64,cs),
(512,112,o),
(491,132,o),
(442,132,cs),
(216,132,l),
(216,198,l),
(216,273,o),
(232,291,o),
(294,291,cs),
(401,291,ls),
(437,291,o),
(460,317,o),
(460,357,cs),
(460,397,o),
(438,421,o),
(401,421,cs),
(302,421,ls),
(268,421,o),
(231,409,o),
(208,390,c),
(212,420,o),
(216,455,o),
(216,483,cs),
(216,543,o),
(243,568,o),
(310,568,cs),
(442,568,ls),
(486,568,o),
(512,592,o),
(512,633,cs),
(512,675,o),
(486,700,o),
(442,700,cs),
(317,700,ls),
(146,700,o),
(72,647,o),
(72,521,cs),
(72,53,ls),
(72,22,o),
(91,0,o),
(117,0,cs)
);
}
);
width = 544;
}
);
metricLeft = H;
note = E;
unicode = 69;
},
{
color = 1;
glyphname = Esh;
lastChange = "2023-12-30 23:32:34 +0000";
layers = (
{
anchors = (
{
name = bottom;
pos = (316,0);
},
{
name = ogonek;
pos = (527,10);
},
{
name = top;
pos = (343,700);
},
{
name = topleft;
pos = (71,700);
}
);
hints = (
{
horizontal = 1;
place = (652,72);
type = Stem;
},
{
horizontal = 1;
place = (314,72);
type = Stem;
},
{
horizontal = 1;
place = (-25,71);
type = Stem;
},
{
place = (51,90);
type = Stem;
}
);
layerId = "2F065738-4B59-43EB-A5F2-FD5F277958EA";
shapes = (
{
closed = 1;
nodes = (
(188,327,o),
(72,167,o),
(72,120,cs),
(72,53,ls),
(72,22,o),
(91,0,o),
(117,0,cs),
(442,0,ls),
(493,0,o),
(512,18,o),
(512,64,cs),
(512,112,o),
(491,132,o),
(442,132,cs),
(229,132,ls),
(222,132,o),
(217,137,o),
(217,145,cs),
(217,152,o),
(221,162,o),
(228,174,cs),
(252,212,o),
(288,266,o),
(304,289,cs),
(324,318,o),
(334,331,o),
(334,338,cs),
(334,344,o),
(326,355,o),
(314,370,cs),
(281,407,o),
(216,465,o),
(216,500,cs),
(216,543,o),
(243,568,o),
(310,568,cs),
(442,568,ls),
(486,568,o),
(512,592,o),
(512,633,cs),
(512,675,o),
(486,700,o),
(442,700,cs),
(317,700,ls),
(146,700,o),
(72,647,o),
(72,521,cs),
(72,491,o),
(87,462,o),
(105,435,cs),
(127,403,o),
(188,348,o),
(188,338,cs)
);
}
);
width = 544;
}
);
unicode = 425;
},
{
color = 1;
glyphname = Schwa;
lastChange = "2023-12-30 16:15:53 +0000";
layers = (
{
anchors = (
{
name = bottom;
pos = (239,200);
},
{
name = ogonek;
pos = (77,626);
},
{
name = top;
pos = (222,700);
}
);
hints = (
{
horizontal = 1;
place = (386,-72);
type = Stem;
},
{
horizontal = 1;
place = (549,-72);
type = Stem;
},
{
horizontal = 1;
place = (724,-72);
type = Stem;
},
{
place = (123,-90);
type = Stem;
},
{
place = (450,-90);
type = Stem;
},
{
horizontal = 1;
place = (523,63);
type = Stem;
},
{
horizontal = 1;
place = (392,64);
type = Stem;
},
{
horizontal = 1;
place = (179,72);
type = Stem;
},
{
place = (355,90);
type = Stem;
},
{
place = (24,90);
type = Stem;
}
);
layerId = "2F065738-4B59-43EB-A5F2-FD5F277958EA";
shapes = (
{
closed = 1;
nodes = (
(102,708,o),
(57,683,o),
(57,628,cs),
(57,589,o),
(80,580,o),
(116,580,cs),
(155,580,o),
(171,592,o),
(222,592,cs),
(314,592,o),
(323,520,o),
(327,443,c),
(321,326,o),
(291,293,o),
(251,293,cs),
(208,293,o),
(127,298,o),
(127,347,cs),
(127,363,o),
(125,383,o),
(142,401,cs),
(169,430,o),
(225,415,o),
(272,415,cs),
(306,415,o),
(320,419,o),
(333,444,c),
(333,507,l),
(256,507,ls),
(122,507,o),
(92,498,o),
(67,484,cs),
(44,467,o),
(28,448,o),
(28,366,cs),
(28,257,o),
(116,188,o),
(240,188,cs),
(380,188,o),
(465,276,o),
(465,456,cs),
(465,606,o),
(405,708,o),
(205,708,cs)
);
}
);
width = 500;
}
);
metricLeft = a;
metricRight = a;
unicode = 399;
},
{
color = 1;
glyphname = Ezh;
lastChange = "2023-12-30 16:15:53 +0000";
layers = (
{
layerId = "2F065738-4B59-43EB-A5F2-FD5F277958EA";
shapes = (
{
closed = 1;
nodes = (
(222,284,l),
(238,285,o),
(256,285,o),
(275,285,cs),
(321,285,o),
(374,272,o),
(374,206,cs),
(374,94,o),
(230,130,o),
(135,130,cs),
(80,130,o),
(60,107,o),
(60,76,cs),
(60,46,o),
(70,14,o),
(136,1,cs),
(161,-4,o),
(189,-8,o),
(243,-8,cs),
(440,-8,o),
(518,102,o),
(518,204,cs),
(518,286,o),
(444,341,o),
(433,349,cs),
(397,373,o),
(363,378,o),
(349,378,c)
);
},
{
closed = 1;
nodes = (
(258,711,ls),
(255,711,o),
(251,711,o),
(248,711,cs),
(160,708,o),
(99,687,o),
(99,627,cs),
(99,559,o),
(191,591,o),
(263,591,cs),
(417,591,l),
(450,711,l)
);
},
{
closed = 1;
nodes = (
(226,416,o),
(178,361,o),
(177,334,c),
(177,311,o),
(189,284,o),
(222,284,c),
(339,358,l),
(420,442,o),
(496,544,o),
(517,609,cs),
(540,684,o),
(488,711,o),
(454,711,cs),
(421,711,o),
(403,678,o),
(396,663,cs),
(362,595,o),
(279,473,o),
(256,448,cs)
);
}
);
width = 564;
}
);
unicode = 439;
},
{
color = 6;
glyphname = F;
lastChange = "2023-12-30 23:55:03 +0000";
layers = (
{
anchors = (
{
name = bottom;
pos = (307,0);
},
{
name = top;
pos = (307,700);
}
);
background = {
shapes = (
{
pos = (-9,0);
ref = E;
}
);
};
hints = (
{
horizontal = 1;
place = (652,72);
type = Stem;
},
{
horizontal = 1;
place = (313,72);
type = Stem;
},
{
horizontal = 1;
place = (-24,21);
target = up;
type = BottomGhost;
},
{
place = (51,89);
type = Stem;
}
);
layerId = "2F065738-4B59-43EB-A5F2-FD5F277958EA";
shapes = (
{
closed = 1;
nodes = (
(188,-8,o),
(211,13,o),
(211,59,cs),
(211,171,ls),
(211,241,o),
(232,260,o),
(308,260,cs),
(386,260,ls),
(430,260,o),
(455,284,o),
(455,327,cs),
(455,371,o),
(431,394,o),
(386,394,cs),
(316,394,ls),
(267,394,o),
(227,383,o),
(202,363,c),
(208,403,o),
(211,448,o),
(211,481,cs),
(211,559,o),
(218,568,o),
(276,568,cs),
(436,568,ls),
(478,568,o),
(506,594,o),
(506,633,cs),
(506,674,o),
(479,700,o),
(436,700,cs),
(221,700,ls),
(123,700,o),
(67,642,o),
(67,542,cs),
(67,59,ls),
(67,14,o),
(91,-8,o),
(139,-8,cs)
);
}
);
width = 496;
}
);
metricLeft = N;
note = F;
unicode = 70;
},
{
color = 1;
glyphname = Fhook;
lastChange = "2023-12-30 16:54:11 +0000";
layers = (
{
layerId = "2F065738-4B59-43EB-A5F2-FD5F277958EA";
shapes = (
{
ref = F;
},
{
closed = 1;
nodes = (
(72,12,ls),
(72,-51,o),
(63,-72,o),
(19,-72,cs),
(-65,-72,o),
(-125,-57,o),
(-125,-128,cs),
(-125,-196,o),
(-55,-206,o),
(12,-206,cs),
(155,-206,o),
(216,-146,o),
(216,-9,cs),
(216,113,l),
(72,113,l)
);
}
);
width = 501;
}
);
unicode = 401;
},
{
color = 6;
glyphname = G;
lastChange = "2023-12-28 22:42:05 +0000";
layers = (
{
anchors = (
{
name = bottom;
pos = (314,0);
},
{
name = top;
pos = (314,700);
}
);
associatedMasterId = "2F065738-4B59-43EB-A5F2-FD5F277958EA";
background = {
shapes = (
{
closed = 0;
nodes = (
(437,582,ls),
(488,582,o),
(510,602,o),
(510,641,cs),
(510,669,o),
(496,687,o),
(468,698,cs)
);
}
);
};
hints = (
{
horizontal = 1;
place = (653,71);
type = Stem;
},
{
horizontal = 1;
place = (314,72);
type = Stem;
},
{
horizontal = 1;
place = (-24,72);
type = Stem;
},
{
place = (389,90);
type = Stem;
},
{
place = (51,90);
type = Stem;
}
);
layerId = "5AB34AEC-884A-416F-8F64-6B6853C92A11";
name = "18 Dec 23, 13:50";
shapes = (
{
closed = 1;
nodes = (
(482,-8,o),
(572,105,o),
(572,300,cs),
(572,379,o),
(552,399,o),
(482,399,cs),
(376,399,ls),
(342,399,o),
(322,379,o),
(322,343,cs),
(322,307,o),
(341,288,o),
(376,288,cs),
(458,288,l),
(445,270,o),
(437,241,o),
(427,197,cs),
(415,144,o),
(376,124,o),
(316,124,cs),
(245,124,o),
(207,166,o),
(207,346,c),
(57,350,l),
(57,92,o),
(142,-8,o),
(313,-8,cs)
);
},
{
closed = 1;
nodes = (
(207,346,l),
(207,521,o),
(255,581,o),
(417,581,c),
(481,581,o),
(510,597,o),
(510,641,cs),
(510,692,o),
(489,711,o),
(385,711,c),
(166,711,o),
(57,586,o),
(57,347,c)
);
}
);
width = 631;
},
{
anchors = (
{
name = bottom;
pos = (305,0);
},
{
name = top;
pos = (305,700);
}
);
background = {
shapes = (
{
pos = (-20,0);
ref = O;
}
);
};
hints = (
{
horizontal = 1;
place = (653,71);
type = Stem;
},
{
horizontal = 1;
place = (314,72);
type = Stem;
},
{
horizontal = 1;
place = (-24,72);
type = Stem;
},
{
place = (389,90);
type = Stem;
},
{
place = (51,90);
type = Stem;
}
);
layerId = "2F065738-4B59-43EB-A5F2-FD5F277958EA";
name = Bold;
shapes = (
{
closed = 1;
nodes = (
(473,-8,o),
(563,105,o),
(563,300,cs),
(563,379,o),
(543,399,o),
(473,399,cs),
(367,399,ls),
(333,399,o),
(313,379,o),
(313,343,cs),
(313,307,o),
(332,288,o),
(367,288,cs),
(449,288,l),
(436,270,o),
(428,241,o),
(418,197,cs),
(406,144,o),
(367,124,o),
(307,124,cs),
(236,124,o),
(196,169,o),
(196,349,cs),
(196,527,o),
(230,579,o),
(317,579,cs),
(354,579,o),
(394,573,o),
(428,573,cs),
(479,573,o),
(501,593,o),
(501,632,cs),
(501,660,o),
(487,678,o),
(459,689,cs),
(425,703,o),
(376,711,o),
(325,711,cs),
(145,711,o),
(48,599,o),
(48,350,cs),
(48,92,o),
(133,-8,o),
(304,-8,cs)
);
}
);
width = 622;
}
);
metricLeft = O;
note = G;
unicode = 71;
},
{
color = 1;
glyphname = Glottalstop;
lastChange = "2023-12-30 16:54:11 +0000";
layers = (
{
layerId = "2F065738-4B59-43EB-A5F2-FD5F277958EA";
shapes = (
{
closed = 1;
nodes = (
(253,301,l),
(253,340,o),
(281,340,o),
(331,361,cs),
(406,392,o),
(470,424,o),
(470,533,cs),
(470,654,o),
(373,711,o),
(198,711,cs),
(97,711,o),
(40,687,o),
(40,637,cs),
(40,599,o),
(74,575,o),
(129,575,cs),
(171,575,o),
(334,602,o),
(334,530,cs),
(334,489,o),
(295,483,o),
(235,456,cs),
(137,412,o),
(107,368,o),
(107,311,cs),
(107,292,l),
(107,54,ls),
(107,8,o),
(133,-13,o),
(183,-13,cs),
(232,-13,o),
(253,8,o),
(253,54,cs),
(253,292,l),
(253,307,l)
);
}
);
width = 505;
}
);
unicode = 577;
},
{
color = 6;
glyphname = H;
lastChange = "2023-12-19 21:09:41 +0000";
layers = (
{
background = {
shapes = (
{
ref = O;
}
);
};
hints = (
{
horizontal = 1;
place = (724,-20);
target = down;
type = TopGhost;
},
{
horizontal = 1;
place = (315,71);
type = Stem;
},
{
horizontal = 1;
place = (-24,21);
target = up;
type = BottomGhost;
},
{
place = (389,90);
type = Stem;
},
{
place = (51,90);
type = Stem;
}
);
layerId = "2F065738-4B59-43EB-A5F2-FD5F277958EA";
shapes = (
{
closed = 1;
nodes = (
(195,-8,o),
(216,13,o),
(216,59,cs),
(216,195,ls),
(216,288,o),
(243,314,o),
(326,314,cs),
(385,314,o),
(434,331,o),
(442,355,c),
(442,59,ls),
(442,13,o),
(466,-8,o),
(516,-8,cs),
(565,-8,o),
(586,13,o),
(586,59,cs),
(586,644,ls),
(586,690,o),
(562,711,o),
(513,711,cs),
(463,711,o),
(442,690,o),
(442,644,cs),
(442,442,l),
(344,442,ls),
(277,442,o),
(243,430,o),
(209,396,c),
(214,414,o),
(216,462,o),
(216,544,cs),
(216,644,ls),
(216,690,o),
(192,711,o),
(143,711,cs),
(93,711,o),
(72,690,o),
(72,644,cs),
(72,59,ls),
(72,13,o),
(96,-8,o),
(146,-8,cs)
);
}
);
width = 658;
}
);
note = H;
unicode = 72;
},
{
color = 1;
glyphname = Heng;
lastChange = "2023-12-30 16:54:11 +0000";
layers = (
{
layerId = "2F065738-4B59-43EB-A5F2-FD5F277958EA";
shapes = (
{
ref = H;
},
{
closed = 1;
nodes = (
(442,12,ls),
(442,-51,o),
(433,-72,o),
(389,-72,cs),
(305,-72,o),
(245,-57,o),
(245,-128,cs),
(245,-196,o),
(315,-206,o),
(382,-206,cs),
(525,-206,o),
(586,-146,o),
(586,-9,cs),
(586,113,l),
(442,113,l)
);
}
);
width = 658;
}
);
unicode = 42790;
},
{
color = 6;
glyphname = I;
lastChange = "2023-12-21 20:44:54 +0000";
layers = (
{
background = {
anchors = (
{
name = bottom;
pos = (-170,0);
},
{
name = ogonek;
pos = (41,10);
},
{
name = top;
pos = (-170,700);
},
{
name = topleft;
pos = (-415,700);
}
);
shapes = (
{
closed = 1;
nodes = (
(-277,122,ls),
(-325,122,o),
(-344,105,o),
(-344,62,cs),
(-344,17,o),
(-325,0,o),
(-277,0,cs),
(-26,0,ls),
(27,0,o),
(48,17,o),
(48,62,cs),
(48,105,o),
(27,122,o),
(-26,122,cs),
(-79,122,l),
(-79,500,ls),
(-79,558,o),
(-85,571,o),
(-113,578,c),
(-26,578,ls),
(27,578,o),
(48,595,o),
(48,640,cs),
(48,683,o),
(27,700,o),
(-26,700,cs),
(-277,700,ls),
(-325,700,o),
(-344,683,o),
(-344,640,cs),
(-344,595,o),
(-325,578,o),
(-277,578,cs),
(-223,578,l),
(-223,200,ls),
(-223,142,o),
(-217,129,o),
(-189,122,c)
);
}
);
};
hints = (
{
horizontal = 1;
place = (652,72);
type = Stem;
},
{
horizontal = 1;
place = (-24,72);
type = Stem;
},
{
place = (220,90);
type = Stem;
}
);
layerId = "2F065738-4B59-43EB-A5F2-FD5F277958EA";
shapes = (
{
closed = 1;
nodes = (
(195,-8,o),
(216,13,o),
(216,59,cs),
(216,644,ls),
(216,690,o),
(192,711,o),
(143,711,cs),
(93,711,o),
(72,690,o),
(72,644,cs),
(72,59,ls),
(72,13,o),
(96,-8,o),
(146,-8,cs)
);
}
);
width = 288;
}
);
metricLeft = H;
metricRight = H;
note = I;
unicode = 73;
},
{
color = 6;
glyphname = J;
lastChange = "2023-12-28 22:42:05 +0000";
layers = (
{
layerId = "2F065738-4B59-43EB-A5F2-FD5F277958EA";
shapes = (
{
closed = 1;
nodes = (
(350,-8,o),
(433,54,o),
(433,189,cs),
(433,633,ls),
(433,685,o),
(409,711,o),
(361,711,cs),
(313,711,o),
(289,685,o),
(289,633,cs),
(289,211,ls),
(289,146,o),
(268,125,o),
(214,124,cs),
(177,124,o),
(137,131,o),
(103,131,cs),
(52,131,o),
(30,110,o),
(30,71,cs),
(30,43,o),
(44,25,o),
(72,14,cs),
(106,0,o),
(155,-8,o),
(206,-8,cs)
);
}
);
width = 500;
}
);
metricRight = N;
unicode = 74;
},
{
color = 6;
glyphname = K;
lastChange = "2023-12-22 07:16:38 +0000";
layers = (
{
background = {
shapes = (
{
pos = (5,0);
ref = H;
}
);
};
layerId = "2F065738-4B59-43EB-A5F2-FD5F277958EA";
shapes = (
{
closed = 1;
nodes = (
(535,-8,o),
(535,41,o),
(535,62,cs),
(535,215,ls),
(535,286,o),
(501,345,o),
(428,377,c),
(472,410,o),
(505,464,o),
(514,636,cs),
(515,662,o),
(515,711,o),
(440,711,cs),
(403,711,o),
(373,700,o),
(373,641,cs),
(373,516,o),
(342,450,o),
(285,438,cs),
(237,428,o),
(197,384,o),
(197,379,c),
(197,331,o),
(197,264,o),
(197,196,c),
(197,196,o),
(197,314,o),
(291,314,cs),
(385,314,o),
(392,254,o),
(392,62,cs),
(392,3,o),
(430,-8,o),
(467,-8,cs)
);
},
{
closed = 1;
nodes = (
(196,-8,o),
(216,22,o),
(216,70,cs),
(216,318,o),
(216,439,o),
(216,633,cs),
(216,681,o),
(196,711,o),
(144,711,cs),
(92,711,o),
(72,681,o),
(72,633,cs),
(72,70,ls),
(72,22,o),
(92,-8,o),
(144,-8,cs)
);
}
);
width = 595;
},
{
associatedMasterId = "2F065738-4B59-43EB-A5F2-FD5F277958EA";
background = {
shapes = (
{
pos = (16,0);
ref = H;
}
);
};
layerId = "9ED04411-CF07-42E9-BA28-42BDAFFDEABA";
name = "18 Dec 23, 13:53";
shapes = (
{
closed = 1;
nodes = (
(579,-8,o),
(579,41,o),
(579,62,cs),
(579,215,ls),
(579,286,o),
(545,345,o),
(472,377,c),
(543,410,o),
(579,464,o),
(579,539,c),
(579,641,ls),
(579,662,o),
(579,711,o),
(504,711,cs),
(467,711,o),
(437,700,o),
(437,641,cs),
(437,516,o),
(404,441,o),
(305,441,cs),
(243,441,o),
(202,404,o),
(204,399,c),
(204,331,o),
(204,264,o),
(204,196,c),
(204,196,o),
(198,314,o),
(315,314,cs),
(429,314,o),
(436,254,o),
(436,62,cs),
(436,3,o),
(474,-8,o),
(511,-8,cs)
);
},
{
closed = 1;
nodes = (
(203,-8,o),
(223,22,o),
(223,70,cs),
(223,318,o),
(223,444,o),
(223,633,cs),
(223,681,o),
(203,711,o),
(151,711,cs),
(99,711,o),
(79,681,o),
(79,633,cs),
(79,70,ls),
(79,22,o),
(99,-8,o),
(151,-8,cs)
);
}
);
width = 637;
},
{
associatedMasterId = "2F065738-4B59-43EB-A5F2-FD5F277958EA";
background = {
shapes = (
{
pos = (9,0);
ref = H;
}
);
};
layerId = "64B7E81E-CA97-4B62-B158-91F80D4F52F3";
name = "21 Dec 23 at 21:54";
shapes = (
{
closed = 1;
nodes = (
(572,-8,o),
(572,41,o),
(572,62,cs),
(572,215,ls),
(572,286,o),
(538,345,o),
(465,377,c),
(509,410,o),
(542,464,o),
(552,641,cs),
(552,662,o),
(552,711,o),
(477,711,cs),
(440,711,o),
(410,700,o),
(410,641,cs),
(410,516,o),
(375,441,o),
(298,441,cs),
(236,441,o),
(195,404,o),
(197,399,c),
(197,331,o),
(197,264,o),
(197,196,c),
(197,196,o),
(191,314,o),
(308,314,cs),
(422,314,o),
(429,254,o),
(429,62,cs),
(429,3,o),
(467,-8,o),
(504,-8,cs)
);
},
{
closed = 1;
nodes = (
(196,-8,o),
(216,22,o),
(216,70,cs),
(216,318,o),
(216,444,o),
(216,633,cs),
(216,681,o),
(196,711,o),
(144,711,cs),
(92,711,o),
(72,681,o),
(72,633,cs),
(72,70,ls),
(72,22,o),
(92,-8,o),
(144,-8,cs)
);
}
);
width = 630;
}
);
metricLeft = H;
unicode = 75;
},
{
color = 6;
glyphname = L;
lastChange = "2023-12-21 20:44:54 +0000";
layers = (
{
layerId = "2F065738-4B59-43EB-A5F2-FD5F277958EA";
shapes = (
{
closed = 1;
nodes = (
(419,0,ls),
(469,0,o),
(496,24,o),
(496,69,cs),
(496,114,o),
(468,139,o),
(419,139,cs),
(272,139,ls),
(249,139,o),
(224,127,o),
(208,108,c),
(212,129,o),
(216,167,o),
(216,189,cs),
(216,633,ls),
(216,685,o),
(192,711,o),
(144,711,cs),
(96,711,o),
(72,685,o),
(72,633,cs),
(72,78,ls),
(72,26,o),
(96,0,o),
(144,0,cs)
);
}
);
width = 516;
}
);
metricLeft = H;
unicode = 76;
},
{
color = 6;
glyphname = M;
lastChange = "2023-12-28 22:42:05 +0000";
layers = (
{
anchors = (
{
name = bottom;
pos = (447,0);
},
{
name = top;
pos = (452,700);
}
);
hints = (
{
horizontal = 1;
place = (652,72);
type = Stem;
},
{
horizontal = 1;
place = (-23,21);
target = up;
type = BottomGhost;
},
{
horizontal = 1;
place = (-24,21);
target = up;
type = BottomGhost;
},
{
place = (727,90);
type = Stem;
},
{
place = (389,90);
type = Stem;
},
{
place = (51,90);
type = Stem;
}
);
layerId = "2F065738-4B59-43EB-A5F2-FD5F277958EA";
shapes = (
{
closed = 1;
nodes = (
(191,-8,o),
(211,14,o),
(211,69,cs),
(211,480,ls),
(211,546,o),
(239,579,o),
(296,579,cs),
(354,579,o),
(381,541,o),
(381,460,cs),
(381,79,ls),
(381,25,o),
(404,2,o),
(455,2,cs),
(505,2,o),
(525,24,o),
(525,79,cs),
(525,460,ls),
(525,542,o),
(552,579,o),
(610,579,cs),
(667,579,o),
(695,547,o),
(695,480,cs),
(695,69,ls),
(695,15,o),
(718,-8,o),
(769,-8,cs),
(819,-8,o),
(839,14,o),
(839,69,cs),
(839,472,ls),
(839,634,o),
(775,711,o),
(639,711,cs),
(539,711,o),
(473,670,o),
(452,595,c),
(431,669,o),
(364,711,o),
(267,711,cs),
(135,711,o),
(67,629,o),
(67,472,cs),
(67,69,ls),
(67,15,o),
(90,-8,o),
(141,-8,cs)
);
}
);
width = 906;
}
);
metricLeft = N;
metricRight = N;
note = M;
unicode = 77;
},
{
color = 6;
glyphname = N;
lastChange = "2023-12-28 22:37:55 +0000";
layers = (
{
anchors = (
{
name = bottom;
pos = (323,0);
},
{
name = top;
pos = (323,700);
}
);
hints = (
{
horizontal = 1;
place = (652,72);
type = Stem;
},
{
horizontal = 1;
place = (-23,21);
target = up;
type = BottomGhost;
},
{
horizontal = 1;
place = (-24,21);
target = up;
type = BottomGhost;
},
{
place = (389,90);
type = Stem;
},
{
place = (51,90);
type = Stem;
},
{
horizontal = 1;
place = (-24,21);
target = up;
type = BottomGhost;
},
{
horizontal = 1;
place = (-23,21);
target = up;
type = BottomGhost;
},
{
horizontal = 1;
place = (724,-72);
type = Stem;
},
{
place = (277,-90);
type = Stem;
},
{
place = (615,-90);
type = Stem;
}
);
layerId = "2F065738-4B59-43EB-A5F2-FD5F277958EA";
shapes = (
{
closed = 1;
nodes = (
(187,-8,o),
(211,18,o),
(211,70,cs),
(211,452,ls),
(211,549,o),
(231,589,o),
(326,589,cs),
(406,589,o),
(437,551,o),
(437,452,cs),
(437,70,ls),
(437,18,o),
(461,-8,o),
(509,-8,cs),
(557,-8,o),
(581,18,o),
(581,70,cs),
(581,452,ls),
(581,641,o),
(494,711,o),
(326,711,cs),
(136,711,o),
(67,639,o),
(67,452,cs),
(67,70,ls),
(67,18,o),
(91,-8,o),
(139,-8,cs)
);
}
);
width = 648;
}
);
note = N;
unicode = 78;
},
{
color = 1;
glyphname = Ngrave;
lastChange = "2023-12-30 16:55:03 +0000";
layers = (
{
layerId = "2F065738-4B59-43EB-A5F2-FD5F277958EA";
shapes = (
{
ref = N;
},
{
closed = 1;
nodes = (
(245,744,o),
(362,777,o),
(408,800,cs),
(445,818,o),
(460,837,o),
(460,862,cs),
(460,896,o),
(437,928,o),
(405,928,cs),
(404,928,o),
(390,928,o),
(377,919,c),
(315,880,o),
(219,816,o),
(209,809,cs),
(168,780,o),
(194,744,o),
(222,744,c)
);
}
);
width = 648;
}
);
metricLeft = N;
metricRight = N;
unicode = 504;
},
{
color = 1;
glyphname = Nhookleft;
lastChange = "2023-12-30 16:55:03 +0000";
layers = (
{
layerId = "2F065738-4B59-43EB-A5F2-FD5F277958EA";
shapes = (
{
pos = (160,0);
ref = N;
},
{
closed = 1;
nodes = (
(227,12,ls),
(227,-51,o),
(218,-72,o),
(174,-72,cs),
(90,-72,o),
(30,-57,o),
(30,-128,cs),
(30,-196,o),
(100,-206,o),
(167,-206,cs),
(310,-206,o),
(371,-146,o),
(371,-9,cs),
(371,113,l),
(227,113,l)
);
}
);
width = 808;
}
);
metricLeft = J;
unicode = 413;
},
{
color = 1;
glyphname = Eng;
lastChange = "2023-12-30 16:55:11 +0000";
layers = (
{
layerId = "2F065738-4B59-43EB-A5F2-FD5F277958EA";
shapes = (
{
ref = N;
},
{
closed = 1;
nodes = (
(437,12,ls),
(437,-51,o),
(428,-72,o),
(384,-72,cs),
(300,-72,o),
(240,-57,o),
(240,-128,cs),
(240,-196,o),
(310,-206,o),
(377,-206,cs),
(520,-206,o),
(581,-146,o),
(581,-9,cs),
(581,113,l),
(437,113,l)
);
}
);
width = 648;
}
);
unicode = 330;
},
{
color = 6;
glyphname = O;
lastChange = "2023-12-28 22:39:00 +0000";
layers = (
{
anchors = (
{
name = bottom;
pos = (320,0);
},
{
name = center;
pos = (320,350);
},
{
name = ogonek;
pos = (574,0);
},
{
name = top;
pos = (320,700);
},
{
name = topleft;
pos = (7,700);
},
{
name = topright;
pos = (633,700);
}
);
background = {
shapes = (
{
pos = (3,0);
ref = N;
}
);
};
hints = (
{
horizontal = 1;
place = (652,72);
type = Stem;
},
{
horizontal = 1;
place = (-24,72);
type = Stem;
},
{
place = (389,90);
type = Stem;
},
{
place = (51,90);
type = Stem;
}
);
layerId = "2F065738-4B59-43EB-A5F2-FD5F277958EA";
shapes = (
{
closed = 1;
nodes = (
(495,-8,o),
(592,85,o),
(592,354,cs),
(592,623,o),
(495,711,o),
(320,711,cs),
(145,711,o),
(48,623,o),
(48,354,cs),
(48,85,o),
(145,-8,o),
(320,-8,cs)
);
},
{
closed = 1;
nodes = (
(241,124,o),
(192,169,o),
(192,354,cs),
(192,539,o),
(241,579,o),
(320,579,cs),
(399,579,o),
(448,539,o),
(448,354,cs),
(448,169,o),
(399,124,o),
(320,124,cs)
);
}
);
width = 640;
},
{
anchors = (
{
name = bottom;
pos = (329,0);
},
{
name = center;
pos = (329,350);
},
{
name = ogonek;
pos = (583,0);
},
{
name = top;
pos = (329,700);
},
{
name = topleft;
pos = (16,700);
},
{
name = topright;
pos = (642,700);
}
);
associatedMasterId = "2F065738-4B59-43EB-A5F2-FD5F277958EA";
background = {
shapes = (
{
pos = (12,0);
ref = N;
}
);
};
hints = (
{
horizontal = 1;
place = (652,72);
type = Stem;
},
{
horizontal = 1;
place = (-24,72);
type = Stem;
},
{
place = (389,90);
type = Stem;
},
{
place = (51,90);
type = Stem;
}
);
layerId = "BE8E838F-400F-4EEF-A4D5-AB8F4F5CCE55";
name = "18 Dec 23, 13:52";
shapes = (
{
closed = 1;
nodes = (
(504,-8,o),
(601,124,o),
(601,354,cs),
(601,583,o),
(504,711,o),
(329,711,cs),
(154,711,o),
(57,583,o),
(57,354,cs),
(57,124,o),
(154,-8,o),
(329,-8,cs)
);
},
{
closed = 1;
nodes = (
(250,124,o),
(201,208,o),
(201,354,cs),
(201,499,o),
(250,579,o),
(329,579,cs),
(408,579,o),
(457,499,o),
(457,354,cs),
(457,208,o),
(408,124,o),
(329,124,cs)
);
}
);
width = 658;
}
);
note = O;
unicode = 79;
},
{
color = 1;
glyphname = Oopen;
lastChange = "2023-12-30 16:55:17 +0000";
layers = (
{
layerId = "2F065738-4B59-43EB-A5F2-FD5F277958EA";
shapes = (
{
closed = 1;
nodes = (
(391,-8,o),
(501,81,o),
(501,347,cs),
(501,613,o),
(429,704,o),
(224,711,cs),
(164,712,o),
(48,702,o),
(48,632,cs),
(48,593,o),
(70,573,o),
(121,573,cs),
(154,573,o),
(193,579,o),
(229,579,cs),
(347,579,o),
(351,547,o),
(351,346,cs),
(351,145,o),
(303,123,o),
(141,123,cs),
(82,123,o),
(59,106,o),
(59,60,cs),
(59,9,o),
(88,-8,o),
(173,-8,cs)
);
}
);
width = 600;
}
);
unicode = 390;
},
{
color = 6;
glyphname = P;
lastChange = "2023-12-30 23:47:15 +0000";
layers = (
{
anchors = (
{
name = bottom;
pos = (331,0);
},
{
name = top;
pos = (331,700);
}
);
hints = (
{
horizontal = 1;
place = (653,71);
type = Stem;
},
{
horizontal = 1;
place = (314,72);
type = Stem;
},
{
horizontal = 1;
place = (-24,21);
target = up;
type = BottomGhost;
},
{
place = (389,90);
type = Stem;
},
{
place = (51,90);
type = Stem;
}
);
layerId = "2F065738-4B59-43EB-A5F2-FD5F277958EA";
shapes = (
{
closed = 1;
nodes = (
(188,-8,o),
(211,11,o),
(211,48,cs),
(211,156,ls),
(211,241,o),
(218,261,o),
(332,261,cs),
(466,261,o),
(544,338,o),
(544,479,cs),
(544,641,o),
(461,711,o),
(324,711,cs),
(139,711,o),
(67,635,o),
(67,486,cs),
(67,48,ls),
(67,13,o),
(95,-8,o),
(141,-8,cs)
);
},
{
closed = 1;
nodes = (
(209,387,o),
(211,433,o),
(211,483,cs),
(211,568,o),
(239,597,o),
(318,597,cs),
(381,597,o),
(418,584,o),
(418,479,cs),
(418,399,o),
(390,382,o),
(304,382,cs),
(241,382,o),
(225,368,o),
(202,348,c)
);
}
);
width = 580;
}
);
metricLeft = N;
note = P;
unicode = 80;
},
{
color = 1;
glyphname = Phook;
lastChange = "2023-12-30 16:55:25 +0000";
layers = (
{
layerId = "2F065738-4B59-43EB-A5F2-FD5F277958EA";
shapes = (
{
pos = (133,0);
ref = P;
},
{
closed = 1;
nodes = (
(441,711,l),
(192,713,ls),
(91,714,o),
(-5,635,o),
(-5,540,cs),
(-5,483,o),
(-1,421,o),
(56,421,cs),
(117,421,o),
(104,472,o),
(104,481,c),
(104,566,o),
(141,587,o),
(219,587,c),
(261,589,l)
);
}
);
width = 706;
}
);
unicode = 420;
},
{
color = 6;
glyphname = Q;
lastChange = "2023-12-28 22:42:05 +0000";
layers = (
{
anchors = (
{
name = bottom;
pos = (265,0);
},
{
name = top;
pos = (329,712);
}
);
hints = (
{
horizontal = 1;
place = (652,72);
type = Stem;
},
{
horizontal = 1;
place = (-24,72);
type = Stem;
},
{
horizontal = 1;
place = (-20,21);
target = up;
type = BottomGhost;
},
{
place = (389,90);
type = Stem;
},
{
place = (274,92);
type = Stem;
},
{
place = (51,90);
type = Stem;
}
);
layerId = "2F065738-4B59-43EB-A5F2-FD5F277958EA";
shapes = (
{
closed = 1;
nodes = (
(494,-140,o),
(509,-131,o),
(524,-113,cs),
(536,-98,o),
(542,-84,o),
(542,-71,cs),
(542,-54,o),
(532,-37,o),
(511,-21,cs),
(353,103,ls),
(339,114,o),
(325,119,o),
(314,119,cs),
(298,119,o),
(281,109,o),
(267,92,cs),
(253,75,o),
(246,56,o),
(246,44,cs),
(246,32,o),
(254,18,o),
(272,4,cs),
(431,-120,ls),
(450,-135,o),
(463,-140,o),
(476,-140,cs)
);
},
{
ref = O;
}
);
width = 640;
}
);
metricLeft = O;
metricRight = O;
note = Q;
unicode = 81;
},
{
color = 6;
glyphname = R;
lastChange = "2023-12-30 23:47:04 +0000";
layers = (
{
anchors = (
{
name = bottom;
pos = (330,0);
},
{
name = top;
pos = (330,700);
}
);
background = {
shapes = (
{
pos = (7,0);
ref = P;
}
);
};
hints = (
{
horizontal = 1;
place = (653,71);
type = Stem;
},
{
horizontal = 1;
place = (314,72);
type = Stem;
},
{
horizontal = 1;
place = (-24,21);
target = up;
type = BottomGhost;
},
{
place = (389,90);
type = Stem;
},
{
place = (51,90);
type = Stem;
}
);
layerId = "2F065738-4B59-43EB-A5F2-FD5F277958EA";
shapes = (
{
closed = 1;
nodes = (
(188,-6,o),
(211,13,o),
(211,50,cs),
(211,204,ls),
(211,271,o),
(225,300,o),
(258,309,cs),
(294,319,o),
(316,313,o),
(343,309,cs),
(439,295,o),
(510,336,o),
(533,420,cs),
(538,439,o),
(541,460,o),
(541,503,cs),
(541,642,o),
(459,711,o),
(321,711,cs),
(139,711,o),
(67,635,o),
(67,486,cs),
(67,50,ls),
(67,15,o),
(95,-6,o),
(141,-6,cs)
);
},
{
closed = 1;
nodes = (
(510,-8,o),
(532,15,o),
(532,59,cs),
(532,232,ls),
(532,277,o),
(505,320,o),
(461,349,c),
(486,364,o),
(505,385,o),
(516,414,c),
(332,309,l),
(385,309,o),
(389,228,o),
(389,176,cs),
(389,49,ls),
(389,13,o),
(417,-8,o),
(463,-8,cs)
);
},
{
closed = 1;
nodes = (
(211,435,o),
(213,466,o),
(213,506,cs),
(213,570,o),
(246,597,o),
(321,597,cs),
(385,597,o),
(415,573,o),
(415,506,cs),
(415,427,o),
(388,430,o),
(304,430,cs),
(241,430,o),
(227,416,o),
(204,396,c)
);
}
);
width = 589;
}
);
metricLeft = N;
metricRight = O;
note = R;
unicode = 82;
},
{
color = 1;
glyphname = Rtail;
lastChange = "2023-12-30 16:55:34 +0000";
layers = (
{
layerId = "2F065738-4B59-43EB-A5F2-FD5F277958EA";
shapes = (
{
ref = R;
},
{
closed = 1;
nodes = (
(60,113,l),
(60,-9,ls),
(60,-146,o),
(121,-206,o),
(264,-206,cs),
(331,-206,o),
(401,-196,o),
(401,-128,cs),
(401,-57,o),
(341,-72,o),
(257,-72,cs),
(213,-72,o),
(204,-51,o),
(204,12,cs),
(204,113,l)
);
}
);
width = 582;
}
);
unicode = 11364;
},
{
color = 6;
glyphname = S;
lastChange = "2023-12-19 20:05:00 +0000";
layers = (
{
anchors = (
{
name = bottom;
pos = (303,0);
},
{
name = top;
pos = (303,700);
}
);
guides = (
{
angle = 90;
pos = (303,712);
}
);
hints = (
{
horizontal = 1;
place = (653,72);
type = Stem;
},
{
horizontal = 1;
place = (314,72);
type = Stem;
},
{
horizontal = 1;
place = (-24,72);
type = Stem;
},
{
place = (388,90);
type = Stem;
},
{
place = (51,90);
type = Stem;
}
);
layerId = "2F065738-4B59-43EB-A5F2-FD5F277958EA";
shapes = (
{
closed = 1;
nodes = (
(410,-8,o),
(508,68,o),
(508,209,cs),
(508,306,o),
(467,367,o),
(341,405,cs),
(230,438,o),
(196,471,o),
(196,514,cs),
(196,560,o),
(225,579,o),
(283,579,cs),
(320,579,o),
(360,568,o),
(394,568,cs),
(445,568,o),
(467,593,o),
(467,632,cs),
(467,660,o),
(453,678,o),
(425,689,cs),
(391,703,o),
(342,711,o),
(291,711,cs),
(152,711,o),
(53,633,o),
(53,498,cs),
(53,394,o),
(115,333,o),
(263,289,cs),
(344,265,o),
(365,241,o),
(365,202,cs),
(365,137,o),
(331,121,o),
(249,121,cs),
(212,121,o),
(155,135,o),
(121,135,cs),
(70,135,o),
(48,110,o),
(48,71,cs),
(48,43,o),
(62,25,o),
(90,14,cs),
(124,0,o),
(187,-8,o),
(238,-8,cs)
);
}
);
width = 556;
},
{
anchors = (
{
name = bottom;
pos = (303,0);
},
{
name = top;
pos = (303,700);
}
);
associatedMasterId = "2F065738-4B59-43EB-A5F2-FD5F277958EA";
guides = (
{
angle = 90;
pos = (303,712);
}
);
hints = (
{
horizontal = 1;
place = (653,72);
type = Stem;
},
{
horizontal = 1;
place = (314,72);
type = Stem;
},
{
horizontal = 1;
place = (-24,72);
type = Stem;
},
{
place = (388,90);
type = Stem;
},
{
place = (51,90);
type = Stem;
}
);
layerId = "7AD7A8A7-FF77-4A89-8023-2253AACF04B9";
name = "18 Dec 23, 13:21";
shapes = (
{
closed = 1;
nodes = (
(410,-8,o),
(508,68,o),
(508,209,cs),
(508,306,o),
(467,367,o),
(341,405,cs),
(230,438,o),
(196,471,o),
(196,514,cs),
(196,560,o),
(225,579,o),
(283,579,cs),
(320,579,o),
(360,568,o),
(394,568,cs),
(445,568,o),
(467,593,o),
(467,632,cs),
(467,660,o),
(453,678,o),
(425,689,cs),
(391,703,o),
(342,711,o),
(291,711,cs),
(152,711,o),
(53,633,o),
(53,498,cs),
(53,394,o),
(115,333,o),
(263,289,cs),
(345,265,o),
(365,236,o),
(365,192,cs),
(365,135,o),
(331,121,o),
(249,121,cs),
(212,121,o),
(155,135,o),
(121,135,cs),
(70,135,o),
(48,110,o),
(48,71,cs),
(48,43,o),
(62,25,o),
(90,14,cs),
(124,0,o),
(187,-8,o),
(238,-8,cs)
);
}
);
width = 556;
}
);
note = S;
unicode = 83;
},
{
color = 6;
glyphname = T;
lastChange = "2023-12-19 20:05:00 +0000";
layers = (
{
anchors = (
{
name = bottom;
pos = (260,0);
},
{
name = center;
pos = (260,350);
},
{
name = top;
pos = (260,700);
}
);
hints = (
{
horizontal = 1;
place = (651,73);
type = Stem;
},
{
horizontal = 1;
place = (-24,21);
target = up;
type = BottomGhost;
},
{
place = (220,91);
type = Stem;
},
{
place = (51,89);
type = Stem;
}
);
layerId = "2F065738-4B59-43EB-A5F2-FD5F277958EA";
shapes = (
{
closed = 1;
nodes = (
(314,-8,o),
(346,8,o),
(346,41,cs),
(346,568,l),
(498,568,ls),
(530,568,o),
(545,603,o),
(545,634,cs),
(545,667,o),
(529,700,o),
(498,700,cs),
(51,700,ls),
(20,700,o),
(4,667,o),
(4,634,cs),
(4,603,o),
(19,568,o),
(51,568,cs),
(244,568,l),
(230,564,o),
(201,552,o),
(201,509,cs),
(202,41,ls),
(202,6,o),
(244,-8,o),
(278,-8,cs)
);
}
);
width = 549;
},
{
anchors = (
{
name = bottom;
pos = (260,0);
},
{
name = center;
pos = (260,350);
},
{
name = top;
pos = (260,700);
}
);
associatedMasterId = "2F065738-4B59-43EB-A5F2-FD5F277958EA";
hints = (
{
horizontal = 1;
place = (651,73);
type = Stem;
},
{
horizontal = 1;
place = (-24,21);
target = up;
type = BottomGhost;
},
{
place = (220,91);
type = Stem;
},
{
place = (51,89);
type = Stem;
}
);
layerId = "3F1DD08C-9F2C-4AE2-9C74-3C51AFC60B98";
name = "18 Dec 23, 17:38";
shapes = (
{
closed = 1;
nodes = (
(314,-8,o),
(346,8,o),
(346,41,cs),
(346,561,l),
(492,561,ls),
(524,561,o),
(539,596,o),
(539,631,cs),
(539,667,o),
(523,700,o),
(492,700,cs),
(56,700,ls),
(25,700,o),
(9,667,o),
(9,631,cs),
(9,596,o),
(24,561,o),
(56,561,cs),
(244,561,l),
(230,557,o),
(201,545,o),
(201,503,cs),
(202,41,ls),
(202,6,o),
(244,-8,o),
(278,-8,cs)
);
}
);
width = 528;
}
);
metricRight = "=|";
note = T;
unicode = 84;
},
{
color = 1;
glyphname = Thook;
lastChange = "2023-12-30 19:01:08 +0000";
layers = (
{
anchors = (
{
name = bottom;
pos = (321,0);
},
{
name = center;
pos = (321,350);
},
{
name = top;
pos = (321,700);
}
);
hints = (
{
horizontal = 1;
place = (651,73);
type = Stem;
},
{
horizontal = 1;
place = (-24,21);
target = up;
type = BottomGhost;
},
{
place = (220,91);
type = Stem;
},
{
place = (51,89);
type = Stem;
}
);
layerId = "2F065738-4B59-43EB-A5F2-FD5F277958EA";
shapes = (
{
closed = 1;
nodes = (
(127,568,l),
(305,568,l),
(291,564,o),
(262,552,o),
(262,509,cs),
(263,41,ls),
(263,6,o),
(305,-8,o),
(339,-8,cs),
(375,-8,o),
(407,8,o),
(407,41,cs),
(407,568,l),
(559,568,ls),
(591,568,o),
(606,603,o),
(606,634,cs),
(606,667,o),
(590,698,o),
(559,700,cs),
(159,700,l)
);
},
{
closed = 1;
nodes = (
(297,700,l),
(185,700,ls),
(60,700,o),
(4,623,o),
(4,491,cs),
(4,430,o),
(13,366,o),
(76,366,cs),
(141,366,o),
(127,421,o),
(127,498,cs),
(127,549,o),
(146,568,o),
(205,568,cs),
(297,568,l)
);
}
);
width = 610;
}
);
metricLeft = T;
unicode = 428;
},
{
color = 1;
glyphname = Tretroflexhook;
lastChange = "2023-12-30 16:55:43 +0000";
layers = (
{
layerId = "2F065738-4B59-43EB-A5F2-FD5F277958EA";
shapes = (
{
ref = T;
},
{
closed = 1;
nodes = (
(202,113,l),
(202,-9,ls),
(202,-146,o),
(263,-206,o),
(406,-206,cs),
(473,-206,o),
(543,-196,o),
(543,-128,cs),
(543,-57,o),
(483,-72,o),
(399,-72,cs),
(355,-72,o),
(346,-51,o),
(346,12,cs),
(346,113,l)
);
}
);
width = 549;
}
);
metricLeft = T;
unicode = 430;
},
{
color = 6;
glyphname = U;
lastChange = "2023-12-30 23:55:25 +0000";
layers = (
{
anchors = (
{
name = bottom;
pos = (317,0);
},
{
name = ogonek;
pos = (528,10);
},
{
name = top;
pos = (317,700);
},
{
name = topright;
pos = (561,700);
}
);
hints = (
{
horizontal = 1;
place = (724,-20);
target = down;
type = TopGhost;
},
{
horizontal = 1;
place = (723,-20);
target = down;
type = TopGhost;
},
{
horizontal = 1;
place = (-24,72);
type = Stem;
},
{
place = (389,90);
type = Stem;
},
{
place = (51,90);
type = Stem;
}
);
layerId = "2F065738-4B59-43EB-A5F2-FD5F277958EA";
shapes = (
{
closed = 1;
nodes = (
(488,-8,o),
(579,74,o),
(579,235,cs),
(579,633,ls),
(579,685,o),
(555,711,o),
(507,711,cs),
(459,711,o),
(435,685,o),
(435,633,cs),
(435,235,ls),
(435,153,o),
(394,114,o),
(315,114,cs),
(250,114,o),
(211,151,o),
(211,235,cs),
(211,633,ls),
(211,685,o),
(187,711,o),
(139,711,cs),
(91,711,o),
(67,685,o),
(67,633,cs),
(67,235,ls),
(67,72,o),
(154,-8,o),
(315,-8,cs)
);
}
);
width = 646;
}
);
metricLeft = N;
metricRight = N;
note = U;
unicode = 85;
},
{
color = 6;
glyphname = V;
lastChange = "2023-12-22 07:11:57 +0000";
layers = (
{
anchors = (
{
name = bottom;
pos = (288,0);
},
{
name = top;
pos = (288,700);
}
);
hints = (
{
horizontal = 1;
place = (724,-20);
target = down;
type = TopGhost;
},
{
horizontal = 1;
place = (-23,71);
type = Stem;
},
{
place = (388,89);
type = Stem;
},
{
place = (51,90);
type = Stem;
}
);
layerId = "2F065738-4B59-43EB-A5F2-FD5F277958EA";
shapes = (
{
closed = 1;
nodes = (
(358,-8,o),
(374,25,o),
(413,96,cs),
(488,254,o),
(557,389,o),
(557,556,cs),
(557,625,o),
(541,711,o),
(477,711,cs),
(420,711,o),
(400,678,o),
(400,646,cs),
(400,632,o),
(404,611,o),
(408,590,cs),
(413,569,o),
(417,548,o),
(416,515,cs),
(413,416,o),
(355,315,o),
(303,160,c),
(172,614,ls),
(152,684,o),
(131,711,o),
(86,711,cs),
(33,711,o),
(-3,672,o),
(18,604,cs),
(170,102,ls),
(191,33,o),
(246,-8,o),
(298,-8,cs)
);
}
);
width = 596;
}
);
note = V;
unicode = 86;
},
{
color = 6;
glyphname = W;
lastChange = "2023-12-30 15:11:49 +0000";
layers = (
{
anchors = (
{
name = bottom;
pos = (451,0);
},
{
name = top;
pos = (451,700);
}
);
hints = (
{
horizontal = 1;
place = (724,-20);
target = down;
type = TopGhost;
},
{
horizontal = 1;
place = (723,-20);
target = down;
type = TopGhost;
},
{
horizontal = 1;
place = (-24,72);
type = Stem;
},
{
place = (727,89);
type = Stem;
},
{
place = (388,91);
type = Stem;
},
{
place = (51,90);
type = Stem;
},
{
horizontal = 1;
place = (724,-20);
target = down;
type = TopGhost;
},
{
horizontal = 1;
place = (-23,71);
type = Stem;
},
{
place = (410.008,89);
type = Stem;
},
{
place = (126.852,90);
type = Stem;
},
{
horizontal = 1;
place = (724,-20);
target = down;
type = TopGhost;
},
{
horizontal = 1;
place = (-23,71);
type = Stem;
},
{
place = (771.008,89);
type = Stem;
},
{
place = (487.852,90);
type = Stem;
}
);
layerId = "2F065738-4B59-43EB-A5F2-FD5F277958EA";
shapes = (
{
closed = 1;
nodes = (
(781,-8,o),
(806,17,o),
(845,102,cs),
(913,251,o),
(953,389,o),
(953,556,cs),
(953,625,o),
(937,711,o),
(865,711,cs),
(812,711,o),
(793,678,o),
(793,646,cs),
(793,615,o),
(809,564,o),
(809,515,cs),
(809,416,o),
(775,315,o),
(728,160,c),
(592,614,ls),
(571,684,o),
(553,711,o),
(510,711,cs),
(450,711,o),
(413,673,o),
(434,604,cs),
(590,102,ls),
(612,32,o),
(668,-8,o),
(723,-8,cs)
);
},
{
closed = 1;
nodes = (
(420,-8,o),
(445,17,o),
(484,102,cs),
(552,251,o),
(592,389,o),
(592,556,cs),
(592,625,o),
(579,689,o),
(507,689,cs),
(454,689,o),
(432,678,o),
(432,646,cs),
(432,615,o),
(448,564,o),
(448,515,cs),
(448,416,o),
(414,315,o),
(367,160,c),
(231,614,ls),
(210,684,o),
(192,711,o),
(149,711,cs),
(89,711,o),
(52,673,o),
(73,604,cs),
(229,102,ls),
(251,32,o),
(307,-8,o),
(362,-8,cs)
);
}
);
width = 1018;
}
);
metricLeft = M;
note = W;
unicode = 87;
},
{
color = 1;
glyphname = Whook;
lastChange = "2023-12-30 16:55:56 +0000";
layers = (
{
anchors = (
{
name = bottom;
pos = (451,0);
},
{
name = top;
pos = (451,700);
}
);
hints = (
{
horizontal = 1;
place = (724,-20);
target = down;
type = TopGhost;
},
{
horizontal = 1;
place = (723,-20);
target = down;
type = TopGhost;
},
{
horizontal = 1;
place = (-24,72);
type = Stem;
},
{
place = (727,89);
type = Stem;
},
{
place = (388,91);
type = Stem;
},
{
place = (51,90);
type = Stem;
},
{
horizontal = 1;
place = (724,-20);
target = down;
type = TopGhost;
},
{
horizontal = 1;
place = (-23,71);
type = Stem;
},
{
place = (410.008,89);
type = Stem;
},
{
place = (126.852,90);
type = Stem;
},
{
horizontal = 1;
place = (724,-20);
target = down;
type = TopGhost;
},
{
horizontal = 1;
place = (-23,71);
type = Stem;
},
{
place = (771.008,89);
type = Stem;
},
{
place = (487.852,90);
type = Stem;
}
);
layerId = "2F065738-4B59-43EB-A5F2-FD5F277958EA";
shapes = (
{
closed = 1;
nodes = (
(781,-8,o),
(806,17,o),
(845,102,cs),
(913,251,o),
(953,389,o),
(953,556,cs),
(953,625,o),
(937,711,o),
(865,711,cs),
(841,711,o),
(813,678,o),
(813,646,cs),
(813,615,o),
(809,564,o),
(809,515,cs),
(809,416,o),
(775,315,o),
(728,160,c),
(592,614,ls),
(571,684,o),
(553,711,o),
(510,711,cs),
(450,711,o),
(413,673,o),
(434,604,cs),
(590,102,ls),
(612,32,o),
(668,-8,o),
(723,-8,cs)
);
},
{
closed = 1;
nodes = (
(420,-8,o),
(445,17,o),
(484,102,cs),
(552,251,o),
(592,389,o),
(592,556,cs),
(592,625,o),
(579,689,o),
(507,689,cs),
(454,689,o),
(432,678,o),
(432,646,cs),
(432,615,o),
(448,564,o),
(448,515,cs),
(448,416,o),
(414,315,o),
(367,160,c),
(231,614,ls),
(210,684,o),
(192,711,o),
(149,711,cs),
(89,711,o),
(52,673,o),
(73,604,cs),
(229,102,ls),
(251,32,o),
(307,-8,o),
(362,-8,cs)
);
},
{
closed = 1;
nodes = (
(956,629,ls),
(958,692,o),
(968,713,o),
(1012,711,cs),
(1096,708,o),
(1155,691,o),
(1158,762,cs),
(1160,830,o),
(1090,843,o),
(1023,845,cs),
(880,850,o),
(817,792,o),
(813,655,cs),
(809,533,l),
(952,528,l)
);
}
);
width = 1018;
}
);
unicode = 11378;
},
{
color = 6;
glyphname = X;
lastChange = "2023-12-28 22:42:05 +0000";
layers = (
{
background = {
shapes = (
{
closed = 1;
nodes = (
(435,20,ls),
(446,5,o),
(467,-8,o),
(492,-8,cs),
(524,-8,o),
(562,20,o),
(562,61,cs),
(562,77,o),
(557,94,o),
(544,112,cs),
(137,680,ls),
(121,703,o),
(99,713,o),
(79,713,cs),
(41,713,o),
(6,681,o),
(6,641,cs),
(6,627,o),
(11,611,o),
(22,595,cs)
);
}
);
};
layerId = "2F065738-4B59-43EB-A5F2-FD5F277958EA";
shapes = (
{
closed = 1;
nodes = (
(344,353,l),
(424,441,o),
(507,543,o),
(529,608,cs),
(547,660,o),
(528,685,o),
(499,700,cs),
(485,707,o),
(472,710,o),
(461,710,cs),
(425,710,o),
(406,677,o),
(398,662,cs),
(361,594,o),
(287,481,o),
(254,443,c)
);
},
{
closed = 1;
nodes = (
(210,401,l),
(113,280,o),
(12,111,o),
(12,55,cs),
(12,11,o),
(60,-8,o),
(88,-8,cs),
(117,-8,o),
(133,6,o),
(146,33,cs),
(223,198,o),
(282,272,o),
(292,289,c)
);
},
{
closed = 1;
nodes = (
(397,26,ls),
(407,10,o),
(427,-5,o),
(452,-7,cs),
(484,-10,o),
(524,15,o),
(528,56,cs),
(529,71,o),
(525,89,o),
(514,108,cs),
(171,673,ls),
(156,697,o),
(136,709,o),
(116,711,cs),
(78,714,o),
(41,685,o),
(37,646,cs),
(36,632,o),
(38,615,o),
(49,598,cs)
);
}
);
width = 584;
},
{
associatedMasterId = "2F065738-4B59-43EB-A5F2-FD5F277958EA";
layerId = "1C6F5B2E-BFE3-417C-8F36-4BECB9421B19";
name = "18 Dec 23, 13:24";
shapes = (
{
closed = 1;
nodes = (
(186,-8,o),
(203,6,o),
(215,33,cs),
(244,97,o),
(338,245,o),
(338,245,c),
(492,20,ls),
(502,5,o),
(524,-8,o),
(549,-8,cs),
(563,-8,o),
(578,-4,o),
(592,8,cs),
(612,26,o),
(620,46,o),
(620,64,cs),
(620,83,o),
(610,100,o),
(601,112,cs),
(420,356,l),
(420,356,o),
(582,512,o),
(620,628,cs),
(626,646,o),
(620,680,o),
(580,700,cs),
(518,731,o),
(488,686,o),
(478,662,cs),
(456,611,o),
(338,459,o),
(338,459,c),
(189,683,ls),
(179,697,o),
(156,711,o),
(131,711,cs),
(117,711,o),
(102,707,o),
(88,695,cs),
(67,676,o),
(59,656,o),
(59,638,cs),
(59,620,o),
(68,603,o),
(79,590,cs),
(266,356,l),
(266,356,o),
(203,308,o),
(175,257,cs),
(176,258,o),
(107,169,o),
(77,75,cs),
(58,16,o),
(125,-8,o),
(157,-8,cs)
);
}
);
width = 667;
},
{
associatedMasterId = "2F065738-4B59-43EB-A5F2-FD5F277958EA";
background = {
shapes = (
{
closed = 1;
nodes = (
(492,20,ls),
(503,5,o),
(524,-8,o),
(549,-8,cs),
(581,-8,o),
(619,20,o),
(619,61,cs),
(619,77,o),
(614,94,o),
(601,112,cs),
(194,680,ls),
(178,703,o),
(156,713,o),
(136,713,cs),
(98,713,o),
(63,681,o),
(63,641,cs),
(63,627,o),
(68,611,o),
(79,595,cs)
);
}
);
};
layerId = "122102D0-F0AC-4A95-B4A3-245995F788AF";
name = "21 Dec 23 at 21:38";
shapes = (
{
closed = 1;
nodes = (
(420,356,l),
(505,443,o),
(592,543,o),
(620,628,cs),
(628,660,o),
(609,685,o),
(580,700,cs),
(566,707,o),
(553,710,o),
(542,710,cs),
(506,710,o),
(485,677,o),
(478,662,cs),
(447,595,o),
(368,481,o),
(335,443,c)
);
},
{
closed = 1;
nodes = (
(260,374,l),
(170,276,o),
(49,132,o),
(49,55,cs),
(49,11,o),
(99,-8,o),
(127,-8,cs),
(156,-8,o),
(173,6,o),
(185,33,cs),
(214,97,o),
(331,262,o),
(331,262,c)
);
},
{
closed = 1;
nodes = (
(502,20,ls),
(513,5,o),
(534,-8,o),
(559,-8,cs),
(591,-8,o),
(629,20,o),
(629,61,cs),
(629,77,o),
(624,94,o),
(611,112,cs),
(194,680,ls),
(177,703,o),
(156,713,o),
(136,713,cs),
(98,713,o),
(63,681,o),
(63,641,cs),
(63,627,o),
(67,611,o),
(79,595,cs)
);
}
);
visible = 1;
width = 667;
}
);
metricLeft = V;
metricRight = R;
unicode = 88;
},
{
color = 6;
glyphname = Y;
lastChange = "2023-12-30 15:08:42 +0000";
layers = (
{
background = {
shapes = (
{
angle = -6;
pos = (-46,53);
ref = V;
}
);
};
layerId = "2F065738-4B59-43EB-A5F2-FD5F277958EA";
shapes = (
{
closed = 1;
nodes = (
(471,119,ls),
(522,119,o),
(544,97,o),
(544,58,cs),
(544,-32,o),
(245,-32,o),
(245,153,cs),
(245,173,o),
(248,198,o),
(258,217,c),
(226,228,o),
(162,322,o),
(154,333,cs),
(103,402,o),
(57,489,o),
(57,593,cs),
(57,610,o),
(58,641,o),
(65,663,cs),
(74,692,o),
(93,711,o),
(132,711,cs),
(175,711,o),
(213,688,o),
(207,645,cs),
(206,638,o),
(201,612,o),
(200,574,cs),
(198,513,o),
(234,428,o),
(304,325,c),
(454,666,ls),
(465,692,o),
(484,711,o),
(517,711,cs),
(553,711,o),
(594,691,o),
(594,646,cs),
(594,636,o),
(592,624,o),
(588,614,cs),
(438,288,ls),
(403,212,o),
(396,174,o),
(396,151,cs),
(396,126,o),
(411,119,o),
(455,119,c)
);
}
);
width = 600;
},
{
associatedMasterId = "2F065738-4B59-43EB-A5F2-FD5F277958EA";
layerId = "CE98000F-E500-418B-9257-1A2B31F5C9BA";
name = "18 Dec 23, 13:29";
shapes = (
{
closed = 1;
nodes = (
(380,282,o),
(399,272,o),
(472,301,cs),
(515,318,o),
(587,426,o),
(587,572,cs),
(587,633,o),
(575,709,o),
(508,709,cs),
(455,709,o),
(435,680,o),
(435,633,cs),
(435,639,o),
(443,565,o),
(443,536,cs),
(443,449,o),
(405,406,o),
(346,391,c),
(242,623,ls),
(215,683,o),
(196,709,o),
(151,709,cs),
(89,709,o),
(51,673,o),
(77,615,cs),
(181,379,ls),
(208,319,o),
(263,282,o),
(320,282,cs)
);
},
{
closed = 1;
nodes = (
(431,-8,o),
(529,68,o),
(529,209,cs),
(529,244,o),
(529,209,o),
(529,209,cs),
(529,209,o),
(386,197,o),
(386,197,cs),
(386,197,o),
(386,197,o),
(386,192,c),
(386,135,o),
(352,121,o),
(270,121,cs),
(233,121,o),
(173,123,o),
(139,123,cs),
(88,123,o),
(68,106,o),
(68,67,cs),
(68,39,o),
(83,25,o),
(111,14,cs),
(145,0,o),
(208,-8,o),
(259,-8,cs)
);
},
{
closed = 1;
nodes = (
(529,200,l),
(530,345,o),
(440,384,o),
(265,384,c),
(264,303,l),
(343,303,o),
(386,266,o),
(386,184,c)
);
}
);
width = 600;
},
{
associatedMasterId = "2F065738-4B59-43EB-A5F2-FD5F277958EA";
background = {
shapes = (
{
angle = -6;
pos = (-46,53);
ref = V;
}
);
};
layerId = "4C7F6DC9-A27E-4D03-9641-0B4710940B82";
name = "18 Dec 23, 18:25";
shapes = (
{
closed = 1;
nodes = (
(380,282,o),
(399,272,o),
(472,301,cs),
(515,318,o),
(587,426,o),
(587,572,cs),
(587,633,o),
(575,709,o),
(508,709,cs),
(455,709,o),
(439,680,o),
(439,633,cs),
(439,639,o),
(447,565,o),
(447,536,cs),
(447,449,o),
(405,406,o),
(346,391,c),
(231,624,ls),
(199,689,o),
(178,713,o),
(139,709,cs),
(81,703,o),
(50,658,o),
(72,611,cs),
(181,379,ls),
(209,319,o),
(263,282,o),
(320,282,cs)
);
},
{
closed = 1;
nodes = (
(431,-8,o),
(529,68,o),
(529,209,cs),
(529,244,o),
(529,209,o),
(529,209,cs),
(529,209,o),
(386,197,o),
(386,197,cs),
(386,197,o),
(386,197,o),
(386,192,c),
(386,135,o),
(352,121,o),
(270,121,cs),
(233,121,o),
(173,123,o),
(139,123,cs),
(88,123,o),
(68,106,o),
(68,67,cs),
(68,39,o),
(83,25,o),
(111,14,cs),
(145,0,o),
(208,-8,o),
(259,-8,cs)
);
},
{
closed = 1;
nodes = (
(529,200,l),
(530,345,o),
(440,384,o),
(265,384,c),
(264,303,l),
(343,303,o),
(386,266,o),
(386,184,c)
);
}
);
width = 600;
}
);
unicode = 89;
},
{
color = 6;
glyphname = Z;
lastChange = "2023-12-28 22:42:05 +0000";
layers = (
{
background = {
shapes = (
{
pos = (24,0);
ref = T;
}
);
};
layerId = "2F065738-4B59-43EB-A5F2-FD5F277958EA";
shapes = (
{
closed = 1;
nodes = (
(503,0,ls),
(544,0,o),
(564,33,o),
(565,67,cs),
(566,102,o),
(547,139,o),
(508,139,cs),
(240,139,ls),
(235,139,o),
(260,134,o),
(293,188,cs),
(496,521,l),
(549,620,o),
(550,623,o),
(550,640,cs),
(552,682,o),
(528,700,o),
(483,700,cs),
(145,700,ls),
(99,700,o),
(76,664,o),
(74,629,cs),
(73,595,o),
(93,561,o),
(131,561,cs),
(376,561,ls),
(395,561,o),
(358,564,o),
(329,512,cs),
(245,367,o),
(89,129,o),
(72,80,cs),
(68,72,o),
(67,63,o),
(67,55,cs),
(65,24,o),
(86,0,o),
(122,0,cs)
);
}
);
width = 632;
},
{
associatedMasterId = "2F065738-4B59-43EB-A5F2-FD5F277958EA";
background = {
shapes = (
{
pos = (7,0);
ref = T;
}
);
};
layerId = "9A17233B-32B1-442A-8012-DB3252D91ABD";
name = "18 Dec 23, 13:45";
shapes = (
{
closed = 1;
nodes = (
(488,0,ls),
(526,0,o),
(545,20,o),
(545,60,cs),
(545,118,o),
(526,139,o),
(488,139,cs),
(230,139,ls),
(225,139,o),
(251,134,o),
(282,188,cs),
(473,521,l),
(523,620,o),
(523,623,o),
(523,640,cs),
(523,682,o),
(499,700,o),
(454,700,cs),
(126,700,ls),
(75,700,o),
(60,670,o),
(60,630,cs),
(60,589,o),
(75,561,o),
(117,561,cs),
(352,561,ls),
(371,561,o),
(334,564,o),
(306,512,cs),
(227,367,o),
(162,262,o),
(83,117,cs),
(74,101,o),
(74,88,o),
(74,60,cs),
(74,18,o),
(93,0,o),
(138,0,cs)
);
}
);
width = 605;
}
);
metricLeft = A;
metricRight = A;
unicode = 90;
},
{
color = 6;
glyphname = a;
lastChange = "2023-12-19 20:05:00 +0000";
layers = (
{
anchors = (
{
name = bottom;
pos = (258,0);
},
{
name = ogonek;
pos = (467,10);
},
{
name = top;
pos = (258,500);
}
);
background = {
shapes = (
{
pos = (-30,0);
ref = o;
}
);
};
hints = (
{
horizontal = 1;
place = (323,63);
type = Stem;
},
{
horizontal = 1;
place = (192,64);
type = Stem;
},
{
horizontal = 1;
place = (-21,72);
type = Stem;
},
{
place = (382,90);
type = Stem;
},
{
place = (51,90);
type = Stem;
},
{
horizontal = 1;
place = (186,-72);
type = Stem;
},
{
horizontal = 1;
place = (349,-72);
type = Stem;
},
{
horizontal = 1;
place = (524,-72);
type = Stem;
},
{
place = (146,-90);
type = Stem;
},
{
place = (473,-90);
type = Stem;
},
{
horizontal = 1;
place = (323,63);
type = Stem;
},
{
horizontal = 1;
place = (192,64);
type = Stem;
},
{
horizontal = 1;
place = (-21,72);
type = Stem;
},
{
place = (378,90);
type = Stem;
},
{
place = (47,90);
type = Stem;
},
{
horizontal = 1;
place = (186,-72);
type = Stem;
},
{
horizontal = 1;
place = (349,-72);
type = Stem;
},
{
horizontal = 1;
place = (524,-72);
type = Stem;
},
{
place = (123,-90);
type = Stem;
},
{
place = (450,-90);
type = Stem;
},
{
horizontal = 1;
place = (323,63);
type = Stem;
},
{
horizontal = 1;
place = (192,64);
type = Stem;
},
{
horizontal = 1;
place = (-21,72);
type = Stem;
},
{
place = (355,90);
type = Stem;
},
{
place = (24,90);
type = Stem;
}
);
layerId = "2F065738-4B59-43EB-A5F2-FD5F277958EA";
shapes = (
{
closed = 1;
nodes = (
(401,-8,o),
(458,74,o),
(458,253,cs),
(458,408,o),
(381,508,o),
(218,508,cs),
(115,508,o),
(70,483,o),
(70,428,cs),
(70,389,o),
(93,380,o),
(129,380,cs),
(168,380,o),
(184,391,o),
(235,391,cs),
(288,391,o),
(324,362,o),
(320,253,c),
(313,124,o),
(303,102,o),
(249,102,cs),
(198,102,o),
(172,122,o),
(172,159,cs),
(172,211,o),
(213,226,o),
(325,217,c),
(325,311,l),
(128,328,o),
(28,275,o),
(28,159,cs),
(28,60,o),
(107,-8,o),
(240,-8,cs)
);
}
);
width = 493;
}
);
metricRight = o;
note = a;
unicode = 97;
},
{
color = 1;
glyphname = aemacron;
lastChange = "2023-12-30 16:56:24 +0000";
layers = (
{
anchors = (
{
name = bottom;
pos = (771,0);
},
{
name = ogonek;
pos = (916,74);
},
{
name = top;
pos = (754,500);
}
);
hints = (
{
horizontal = 1;
place = (314,72);
type = Stem;
},
{
horizontal = 1;
place = (151,72);
type = Stem;
},
{
horizontal = 1;
place = (-24,72);
type = Stem;
},
{
place = (870,90);
type = Stem;
},
{
place = (543,90);
type = Stem;
},
{
horizontal = 1;
place = (177,-63);
type = Stem;
},
{
horizontal = 1;
place = (308,-64);
type = Stem;
},
{
horizontal = 1;
place = (521,-72);
type = Stem;
},
{
place = (638,-90);
type = Stem;
},
{
place = (969,-90);
type = Stem;
}
);
layerId = "2F065738-4B59-43EB-A5F2-FD5F277958EA";
shapes = (
{
ref = a;
},
{
closed = 1;
nodes = (
(683,-8,o),
(728,17,o),
(728,72,cs),
(728,111,o),
(705,120,o),
(669,120,cs),
(630,120,o),
(614,108,o),
(563,108,cs),
(471,108,o),
(462,180,o),
(458,257,c),
(464,374,o),
(493,407,o),
(543,407,cs),
(586,407,o),
(617,382,o),
(617,338,cs),
(617,298,o),
(592,285,o),
(513,285,cs),
(479,285,o),
(465,281,o),
(452,256,c),
(452,193,l),
(529,193,ls),
(680,193,o),
(757,239,o),
(757,334,cs),
(757,443,o),
(669,512,o),
(545,512,cs),
(405,512,o),
(320,424,o),
(320,244,cs),
(320,94,o),
(380,-8,o),
(580,-8,cs)
);
},
{
pos = (206,4);
ref = macroncomb;
}
);
width = 785;
}
);
metricLeft = a;
metricRight = e;
unicode = 483;
},
{
color = 6;
glyphname = b;
lastChange = "2023-12-30 23:41:40 +0000";
layers = (
{
anchors = (
{
name = bottom;
pos = (293,0);
},
{
name = center;
pos = (293,240);
},
{
name = top;
pos = (293,480);
}
);
background = {
shapes = (
{
pos = (33,0);
ref = o;
}
);
};
hints = (
{
horizontal = 1;
place = (724,-20);
target = down;
type = TopGhost;
},
{
horizontal = 1;
place = (314,72);
type = Stem;
},
{
horizontal = 1;
place = (-24,72);
type = Stem;
},
{
place = (389,90);
type = Stem;
},
{
place = (51,90);
type = Stem;
}
);
layerId = "2F065738-4B59-43EB-A5F2-FD5F277958EA";
shapes = (
{
closed = 1;
nodes = (
(440,-8,o),
(530,87,o),
(530,267,cs),
(530,447,o),
(445,512,o),
(326,512,cs),
(256,512,o),
(213,492,o),
(188,451,c),
(202,492,o),
(205,520,o),
(205,598,cs),
(205,684,ls),
(205,737,o),
(184,762,o),
(138,762,cs),
(90,762,o),
(65,735,o),
(65,684,cs),
(65,261,ls),
(65,81,o),
(149,-8,o),
(293,-8,cs)
);
},
{
closed = 1;
nodes = (
(244,113,o),
(211,145,o),
(211,254,cs),
(211,363,o),
(244,395,o),
(300,395,cs),
(356,395,o),
(389,363,o),
(389,254,cs),
(389,145,o),
(356,113,o),
(300,113,cs)
);
}
);
width = 565;
}
);
metricRight = o;
note = b;
unicode = 98;
},
{
color = 1;
glyphname = "beta-latin";
lastChange = "2023-12-30 23:55:40 +0000";
layers = (
{
anchors = (
{
name = bottom;
pos = (350,0);
},
{
name = top;
pos = (350,700);
}
);
layerId = "2F065738-4B59-43EB-A5F2-FD5F277958EA";
shapes = (
{
closed = 1;
nodes = (
(221,412,o),
(263,425,o),
(316,425,cs),
(379,425,o),
(398,445,o),
(398,503,cs),
(398,570,o),
(371,596,o),
(316,596,cs),
(238,596,o),
(211,571,o),
(211,503,cs),
(211,441,o),
(210,423,o),
(204,391,c)
);
},
{
closed = 1;
nodes = (
(211,-231,o),
(186,-250,o),
(142,-250,cs),
(94,-250,o),
(67,-231,o),
(67,-197,cs),
(67,503,ls),
(67,590,o),
(105,711,o),
(316,711,cs),
(456,711,o),
(537,641,o),
(537,503,cs),
(537,447,o),
(516,397,o),
(475,373,c),
(540,344,o),
(567,296,o),
(567,204,cs),
(567,71,o),
(487,0,o),
(316,0,c),
(315,0,o),
(270,0,o),
(118,0,cs),
(118,1,o),
(118,17,o),
(118,61,c),
(118,111,o),
(118,116,o),
(118,116,cs),
(312,116,o),
(314,116,o),
(316,116,c),
(396,116,o),
(423,142,o),
(423,204,cs),
(423,291,o),
(393,325,o),
(316,325,cs),
(233,325,o),
(211,299,o),
(211,204,cs),
(211,-197,ls)
);
}
);
width = 613;
}
);
metricLeft = B;
metricRight = B;
unicode = 42933;
},
{
color = 1;
glyphname = bhook;
lastChange = "2023-12-30 16:58:11 +0000";
layers = (
{
anchors = (
{
name = bottom;
pos = (282,0);
},
{
name = center;
pos = (282,240);
},
{
name = top;
pos = (282,480);
}
);
hints = (
{
horizontal = 1;
place = (724,-20);
target = down;
type = TopGhost;
},
{
horizontal = 1;
place = (314,72);
type = Stem;
},
{
horizontal = 1;
place = (-24,72);
type = Stem;
},
{
place = (389,90);
type = Stem;
},
{
place = (51,90);
type = Stem;
}
);
layerId = "2F065738-4B59-43EB-A5F2-FD5F277958EA";
shapes = (
{
closed = 1;
nodes = (
(54,473,l),
(54,399,l),
(54,261,ls),
(54,81,o),
(138,-8,o),
(282,-8,cs),
(429,-8,o),
(519,87,o),
(519,267,cs),
(519,447,o),
(434,512,o),
(315,512,cs),
(245,512,o),
(202,492,o),
(177,451,c),
(186,478,o),
(191,500,o),
(193,534,cs),
(193,537,o),
(193,540,o),
(193,543,c)
);
},
{
closed = 1;
nodes = (
(233,113,o),
(200,145,o),
(200,254,cs),
(200,363,o),
(233,395,o),
(289,395,cs),
(345,395,o),
(378,363,o),
(378,254,cs),
(378,145,o),
(345,113,o),
(289,113,cs)
);
},
{
closed = 1;
nodes = (
(193,525,l),
(193,584,o),
(204,645,o),
(257,645,cs),
(333,645,o),
(376,634,o),
(376,693,cs),
(376,748,o),
(341,762,o),
(259,762,cs),
(120,762,o),
(54,660,o),
(54,505,cs),
(54,471,l)
);
}
);
width = 554;
}
);
unicode = 595;
},
{
color = 1;
glyphname = bmacronbelow;
lastChange = "2023-12-30 21:09:46 +0000";
layers = (
{
anchors = (
{
name = top;
pos = (282,584);
}
);
hints = (
{
horizontal = 1;
place = (503,81);
type = Stem;
},
{
place = (161,312);
type = Stem;
}
);
layerId = "2F065738-4B59-43EB-A5F2-FD5F277958EA";
shapes = (
{
ref = b;
},
{
closed = 1;
nodes = (
(407,-199,ls),
(438,-199,o),
(458,-184,o),
(458,-146,cs),
(458,-109,o),
(438,-94,o),
(407,-94,cs),
(167,-94,ls),
(136,-94,o),
(116,-109,o),
(116,-146,cs),
(116,-184,o),
(136,-199,o),
(167,-199,cs)
);
}
);
width = 554;
}
);
unicode = 7687;
},
{
color = 6;
glyphname = c;
lastChange = "2023-12-26 02:12:09 +0000";
layers = (
{
anchors = (
{
name = bottom;
pos = (226,0);
},
{
name = top;
pos = (226,500);
}
);
background = {
shapes = (
{
closed = 1;
nodes = (
(378,-11,o),
(423,14,o),
(423,69,cs),
(423,108,o),
(400,117,o),
(364,117,cs),
(325,117,o),
(309,106,o),
(258,106,cs),
(205,106,o),
(179,177,o),
(179,246,cs),
(179,386,o),
(257,386,o),
(340,386,cs),
(388,386,o),
(412,405,o),
(412,442,cs),
(412,486,o),
(375,508,o),
(301,508,cs),
(158,508,o),
(35,457,o),
(35,245,cs),
(35,91,o),
(112,-11,o),
(275,-11,cs)
);
}
);
};
hints = (
{
horizontal = 1;
place = (314,72);
type = Stem;
},
{
horizontal = 1;
place = (-23,72);
type = Stem;
},
{
place = (390,89);
type = Stem;
},
{
place = (51,90);
type = Stem;
},
{
horizontal = 1;
place = (314,72);
type = Stem;
},
{
horizontal = 1;
place = (151,72);
type = Stem;
},
{
horizontal = 1;
place = (-24,72);
type = Stem;
},
{
place = (377,90);
type = Stem;
},
{
place = (50,90);
type = Stem;
},
{
horizontal = 1;
place = (177,-63);
type = Stem;
},
{
horizontal = 1;
place = (308,-64);
type = Stem;
},
{
horizontal = 1;
place = (521,-72);
type = Stem;
},
{
place = (145,-90);
type = Stem;
},
{
place = (476,-90);
type = Stem;
}
);
layerId = "2F065738-4B59-43EB-A5F2-FD5F277958EA";
shapes = (
{
closed = 1;
nodes = (
(378,-8,o),
(423,17,o),
(423,72,cs),
(423,111,o),
(400,120,o),
(364,120,cs),
(341,120,o),
(324,109,o),
(273,109,cs),
(191,109,o),
(179,180,o),
(179,249,cs),
(179,318,o),
(201,391,o),
(272,391,cs),
(323,391,o),
(325,380,o),
(364,380,cs),
(400,380,o),
(423,396,o),
(423,435,cs),
(423,490,o),
(378,508,o),
(275,508,cs),
(112,508,o),
(35,404,o),
(35,249,cs),
(35,94,o),
(112,-8,o),
(275,-8,cs)
);
}
);
width = 451;
},
{
anchors = (
{
name = bottom;
pos = (226,0);
},
{
name = top;
pos = (226,500);
}
);
associatedMasterId = "2F065738-4B59-43EB-A5F2-FD5F277958EA";
background = {
shapes = (
{
closed = 1;
nodes = (
(378,-11,o),
(423,14,o),
(423,69,cs),
(423,108,o),
(400,117,o),
(364,117,cs),
(325,117,o),
(309,106,o),
(258,106,cs),
(205,106,o),
(179,177,o),
(179,246,cs),
(179,386,o),
(257,386,o),
(340,386,cs),
(388,386,o),
(412,405,o),
(412,442,cs),
(412,486,o),
(375,508,o),
(301,508,cs),
(158,508,o),
(35,457,o),
(35,245,cs),
(35,91,o),
(112,-11,o),
(275,-11,cs)
);
}
);
};
hints = (
{
horizontal = 1;
place = (314,72);
type = Stem;
},
{
horizontal = 1;
place = (-23,72);
type = Stem;
},
{
place = (390,89);
type = Stem;
},
{
place = (51,90);
type = Stem;
},
{
horizontal = 1;
place = (314,72);
type = Stem;
},
{
horizontal = 1;
place = (151,72);
type = Stem;
},
{
horizontal = 1;
place = (-24,72);
type = Stem;
},
{
place = (377,90);
type = Stem;
},
{
place = (50,90);
type = Stem;
},
{
horizontal = 1;
place = (177,-63);
type = Stem;
},
{
horizontal = 1;
place = (308,-64);
type = Stem;
},
{
horizontal = 1;
place = (521,-72);
type = Stem;
},
{
place = (145,-90);
type = Stem;
},
{
place = (476,-90);
type = Stem;
}
);
layerId = "89A87D81-5949-4D71-9743-3FB4136E4B10";
name = "18 Dec 23, 17:17";
shapes = (
{
closed = 1;
nodes = (
(378,-8,o),
(423,17,o),
(423,72,cs),
(423,111,o),
(400,120,o),
(364,120,cs),
(325,120,o),
(309,109,o),
(258,109,cs),
(205,109,o),
(179,180,o),
(179,249,cs),
(179,318,o),
(205,391,o),
(258,391,cs),
(309,391,o),
(325,380,o),
(364,380,cs),
(400,380,o),
(423,389,o),
(423,428,cs),
(423,483,o),
(378,508,o),
(275,508,cs),
(112,508,o),
(35,404,o),
(35,249,cs),
(35,94,o),
(112,-8,o),
(275,-8,cs)
);
}
);
width = 451;
}
);
metricLeft = o;
note = c;
unicode = 99;
},
{
color = 1;
glyphname = chook;
lastChange = "2023-12-30 16:58:16 +0000";
layers = (
{
layerId = "2F065738-4B59-43EB-A5F2-FD5F277958EA";
shapes = (
{
ref = c;
},
{
closed = 1;
nodes = (
(423,436,l),
(423,525,l),
(423,584,o),
(434,645,o),
(487,645,cs),
(563,645,o),
(606,634,o),
(606,693,cs),
(606,748,o),
(571,762,o),
(484,762,cs),
(345,762,o),
(279,660,o),
(279,505,cs),
(279,471,l)
);
}
);
width = 606;
}
);
metricRight = f;
unicode = 392;
},
{
color = 1;
glyphname = dhook;
lastChange = "2023-12-30 18:54:41 +0000";
layers = (
{
layerId = "2F065738-4B59-43EB-A5F2-FD5F277958EA";
shapes = (
{
closed = 1;
nodes = (
(375,540,o),
(375,537,o),
(375,534,cs),
(377,500,o),
(382,478,o),
(391,451,c),
(366,492,o),
(323,512,o),
(253,512,cs),
(134,512,o),
(49,447,o),
(49,267,cs),
(49,87,o),
(139,-8,o),
(286,-8,cs),
(430,-8,o),
(514,81,o),
(514,261,cs),
(514,399,l),
(514,473,l),
(375,543,l)
);
},
{
closed = 1;
nodes = (
(223,113,o),
(190,145,o),
(190,254,cs),
(190,363,o),
(223,395,o),
(279,395,cs),
(335,395,o),
(368,363,o),
(368,254,cs),
(368,145,o),
(335,113,o),
(279,113,cs)
);
},
{
closed = 1;
nodes = (
(514,505,ls),
(514,660,o),
(448,762,o),
(309,762,cs),
(227,762,o),
(192,748,o),
(192,693,cs),
(192,634,o),
(235,645,o),
(311,645,cs),
(364,645,o),
(375,584,o),
(375,525,c),
(514,471,l)
);
}
);
width = 554;
}
);
unicode = 599;
},
{
color = 1;
glyphname = dmacronbelow;
lastChange = "2023-12-30 21:10:14 +0000";
layers = (
{
layerId = "2F065738-4B59-43EB-A5F2-FD5F277958EA";
shapes = (
{
ref = d;
},
{
closed = 1;
nodes = (
(388,-199,ls),
(419,-199,o),
(439,-184,o),
(439,-146,cs),
(439,-109,o),
(419,-94,o),
(388,-94,cs),
(148,-94,ls),
(117,-94,o),
(97,-109,o),
(97,-146,cs),
(97,-184,o),
(117,-199,o),
(148,-199,cs)
);
}
);
width = 554;
}
);
unicode = 7695;
},
{
color = 1;
glyphname = dtail;
lastChange = "2023-12-30 18:56:32 +0000";
layers = (
{
layerId = "2F065738-4B59-43EB-A5F2-FD5F277958EA";
shapes = (
{
ref = d;
},
{
closed = 1;
nodes = (
(356,113,l),
(356,-9,ls),
(356,-146,o),
(417,-206,o),
(560,-206,cs),
(627,-206,o),
(697,-196,o),
(697,-128,cs),
(697,-57,o),
(637,-72,o),
(553,-72,cs),
(509,-72,o),
(500,-51,o),
(500,12,cs),
(500,356,l)
);
}
);
width = 707;
}
);
unicode = 598;
},
{
color = 6;
glyphname = e;
lastChange = "2023-12-19 20:05:00 +0000";
layers = (
{
anchors = (
{
name = bottom;
pos = (278,0);
},
{
name = ogonek;
pos = (423,74);
},
{
name = top;
pos = (261,500);
}
);
background = {
shapes = (
{
pos = (-4,0);
ref = o;
}
);
};
hints = (
{
horizontal = 1;
place = (314,72);
type = Stem;
},
{
horizontal = 1;
place = (151,72);
type = Stem;
},
{
horizontal = 1;
place = (-24,72);
type = Stem;
},
{
place = (377,90);
type = Stem;
},
{
place = (50,90);
type = Stem;
},
{
horizontal = 1;
place = (177,-63);
type = Stem;
},
{
horizontal = 1;
place = (308,-64);
type = Stem;
},
{
horizontal = 1;
place = (521,-72);
type = Stem;
},
{
place = (145,-90);
type = Stem;
},
{
place = (476,-90);
type = Stem;
}
);
layerId = "2F065738-4B59-43EB-A5F2-FD5F277958EA";
shapes = (
{
closed = 1;
nodes = (
(398,-8,o),
(443,17,o),
(443,72,cs),
(443,111,o),
(420,120,o),
(384,120,cs),
(345,120,o),
(329,108,o),
(278,108,cs),
(186,108,o),
(177,180,o),
(173,257,c),
(179,374,o),
(208,407,o),
(258,407,cs),
(301,407,o),
(332,382,o),
(332,338,cs),
(332,298,o),
(307,285,o),
(228,285,cs),
(194,285,o),
(180,281,o),
(167,256,c),
(167,193,l),
(244,193,ls),
(395,193,o),
(472,239,o),
(472,334,cs),
(472,443,o),
(384,512,o),
(260,512,cs),
(120,512,o),
(35,424,o),
(35,244,cs),
(35,94,o),
(95,-8,o),
(295,-8,cs)
);
}
);
width = 500;
}
);
metricLeft = o;
note = e;
unicode = 101;
},
{
color = 6;
glyphname = f;
lastChange = "2023-12-19 20:05:00 +0000";
layers = (
{
background = {
shapes = (
{
closed = 1;
nodes = (
(233,-8,o),
(258,18,o),
(258,71,cs),
(258,379,l),
(315,379,ls),
(359,379,o),
(383,400,o),
(383,439,cs),
(383,478,o),
(359,500,o),
(315,500,cs),
(258,500,l),
(258,569,o),
(271,640,o),
(297,640,cs),
(348,640,o),
(364,629,o),
(403,629,cs),
(439,629,o),
(462,638,o),
(462,677,cs),
(462,732,o),
(417,757,o),
(314,757,cs),
(178,757,o),
(114,655,o),
(114,500,c),
(104,500,ls),
(54,500,o),
(30,478,o),
(30,439,cs),
(30,400,o),
(54,379,o),
(104,379,cs),
(114,379,l),
(114,71,ls),
(114,27,o),
(139,-8,o),
(188,-8,cs)
);
}
);
};
hints = (
{
horizontal = 1;
place = (652,73);
type = Stem;
},
{
horizontal = 1;
place = (315,73);
type = Stem;
},
{
horizontal = 1;
place = (-24,21);
target = up;
type = BottomGhost;
},
{
place = (51,90);
type = Stem;
}
);
layerId = "2F065738-4B59-43EB-A5F2-FD5F277958EA";
shapes = (
{
closed = 1;
nodes = (
(184,761,o),
(118,659,o),
(118,504,cs),
(118,71,ls),
(118,26,o),
(138,-8,o),
(190,-8,cs),
(234,-8,o),
(258,16,o),
(258,71,cs),
(258,524,ls),
(258,583,o),
(269,644,o),
(322,644,cs),
(418,644,o),
(462,638,o),
(462,698,cs),
(462,741,o),
(426,761,o),
(324,761,cs)
);
},
{
closed = 1;
nodes = (
(104,500,ls),
(54,500,o),
(30,478,o),
(30,439,cs),
(30,400,o),
(54,379,o),
(104,379,cs),
(315,379,ls),
(359,379,o),
(383,400,o),
(383,439,cs),
(383,478,o),
(359,500,o),
(315,500,cs)
);
}
);
width = 462;
},
{
associatedMasterId = "2F065738-4B59-43EB-A5F2-FD5F277958EA";
background = {
anchors = (
{
name = bottom;
pos = (576,0);
},
{
name = top;
pos = (576,742);
}
);
};
hints = (
{
horizontal = 1;
place = (652,73);
type = Stem;
},
{
horizontal = 1;
place = (315,73);
type = Stem;
},
{
horizontal = 1;
place = (-24,21);
target = up;
type = BottomGhost;
},
{
place = (51,90);
type = Stem;
}
);
layerId = "C6EEDEF4-C98A-44C1-9257-FD00FB48C0E0";
name = "18 Dec 23, 14:05";
shapes = (
{
closed = 1;
nodes = (
(228,-8,o),
(253,18,o),
(253,71,cs),
(253,379,l),
(310,379,ls),
(354,379,o),
(378,400,o),
(378,439,cs),
(378,478,o),
(354,500,o),
(310,500,cs),
(253,500,l),
(253,569,o),
(266,640,o),
(292,640,cs),
(343,640,o),
(359,629,o),
(398,629,cs),
(434,629,o),
(457,638,o),
(457,677,cs),
(457,732,o),
(412,757,o),
(309,757,cs),
(173,757,o),
(109,655,o),
(109,500,c),
(99,500,ls),
(49,500,o),
(25,478,o),
(25,439,cs),
(25,400,o),
(49,379,o),
(99,379,cs),
(109,379,l),
(109,71,ls),
(109,27,o),
(134,-8,o),
(183,-8,cs)
);
}
);
width = 363;
}
);
note = f;
unicode = 102;
},
{
color = 6;
glyphname = g;
lastChange = "2023-12-28 11:07:19 +0000";
layers = (
{
anchors = (
{
name = bottom;
pos = (257,-258);
},
{
name = top;
pos = (257,480);
}
);
background = {
shapes = (
{
pos = (-4,0);
ref = o;
}
);
};
hints = (
{
place = (389,90);
type = Stem;
},
{
place = (314,72);
type = Stem;
},
{
place = (51,90);
type = Stem;
},
{
place = (-24,72);
type = Stem;
},
{
place = (-362,72);
type = Stem;
}
);
layerId = "2F065738-4B59-43EB-A5F2-FD5F277958EA";
shapes = (
{
closed = 1;
nodes = (
(383,-230,o),
(494,-174,o),
(494,-61,cs),
(494,0,o),
(469,54,o),
(403,78,c),
(472,116,o),
(494,173,o),
(494,262,cs),
(494,429,o),
(417,512,o),
(263,512,cs),
(109,512,o),
(32,430,o),
(32,263,cs),
(32,98,o),
(107,18,o),
(262,18,cs),
(313,18,o),
(350,-10,o),
(350,-51,cs),
(350,-101,o),
(307,-112,o),
(202,-112,cs),
(151,-112,o),
(135,-102,o),
(96,-102,cs),
(60,-102,o),
(37,-111,o),
(37,-150,cs),
(37,-205,o),
(82,-230,o),
(185,-230,cs)
);
},
{
closed = 1;
nodes = (
(205,138,o),
(176,179,o),
(176,263,cs),
(176,349,o),
(205,392,o),
(263,392,cs),
(321,392,o),
(350,349,o),
(350,263,cs),
(350,179,o),
(321,138,o),
(263,138,cs)
);
},
{
closed = 1;
nodes = (
(388,367,ls),
(390,413,o),
(428,432,o),
(486,432,cs),
(544,432,o),
(570,450,o),
(570,496,cs),
(570,545,o),
(541,572,o),
(491,572,cs),
(439,572,o),
(405,543,o),
(389,481,c),
(388,365,l)
);
}
);
width = 558;
}
);
note = g;
unicode = 103;
},
{
color = 1;
glyphname = ghook;
lastChange = "2023-12-30 18:58:45 +0000";
layers = (
{
anchors = (
{
name = bottom;
pos = (257,-258);
},
{
name = top;
pos = (257,480);
}
);
hints = (
{
place = (389,90);
type = Stem;
},
{
place = (314,72);
type = Stem;
},
{
place = (51,90);
type = Stem;
},
{
place = (-24,72);
type = Stem;
},
{
place = (-362,72);
type = Stem;
}
);
layerId = "2F065738-4B59-43EB-A5F2-FD5F277958EA";
shapes = (
{
closed = 1;
nodes = (
(383,-230,o),
(494,-174,o),
(494,-61,cs),
(494,0,o),
(469,54,o),
(403,78,c),
(472,116,o),
(494,173,o),
(494,262,cs),
(494,429,o),
(417,512,o),
(263,512,cs),
(109,512,o),
(32,430,o),
(32,263,cs),
(32,98,o),
(107,18,o),
(262,18,cs),
(313,18,o),
(350,-10,o),
(350,-51,cs),
(350,-101,o),
(307,-112,o),
(202,-112,cs),
(151,-112,o),
(135,-102,o),
(96,-102,cs),
(60,-102,o),
(37,-111,o),
(37,-150,cs),
(37,-205,o),
(82,-230,o),
(185,-230,cs)
);
},
{
closed = 1;
nodes = (
(205,138,o),
(176,179,o),
(176,263,cs),
(176,349,o),
(205,392,o),
(263,392,cs),
(321,392,o),
(350,349,o),
(350,263,cs),
(350,179,o),
(321,138,o),
(263,138,cs)
);
},
{
closed = 1;
nodes = (
(494,358,l),
(494,417,o),
(505,478,o),
(558,478,cs),
(634,478,o),
(677,467,o),
(677,526,cs),
(677,581,o),
(642,595,o),
(555,595,cs),
(416,595,o),
(350,493,o),
(350,338,cs),
(350,304,l)
);
}
);
width = 558;
}
);
unicode = 608;
},
{
color = 6;
glyphname = h;
lastChange = "2023-12-28 22:46:35 +0000";
layers = (
{
anchors = (
{
name = bottom;
pos = (295,0);
}
);
background = {
shapes = (
{
pos = (6,0);
ref = n;
}
);
};
hints = (
{
horizontal = 1;
place = (724,-20);
target = down;
type = TopGhost;
},
{
horizontal = 1;
place = (313,71);
type = Stem;
},
{
horizontal = 1;
place = (-20,21);
target = up;
type = BottomGhost;
},
{
horizontal = 1;
place = (-24,21);
target = up;
type = BottomGhost;
},
{
place = (387,90);
type = Stem;
},
{
place = (51,90);
type = Stem;
},
{
horizontal = 1;
place = (314,72);
type = Stem;
},
{
horizontal = 1;
place = (-22,21);
target = up;
type = BottomGhost;
},
{
horizontal = 1;
place = (-23,21);
target = up;
type = BottomGhost;
},
{
place = (344,90);
type = Stem;
},
{
place = (13,90);
type = Stem;
}
);
layerId = "2F065738-4B59-43EB-A5F2-FD5F277958EA";
shapes = (
{
closed = 1;
nodes = (
(180,-8,o),
(204,14,o),
(204,60,cs),
(204,293,ls),
(204,354,o),
(234,391,o),
(283,391,cs),
(334,391,o),
(364,355,o),
(364,293,cs),
(364,60,ls),
(364,14,o),
(388,-8,o),
(436,-8,cs),
(484,-8,o),
(508,14,o),
(508,60,cs),
(508,299,ls),
(508,426,o),
(420,511,o),
(289,511,cs),
(239,511,o),
(202,497,o),
(179,469,c),
(198,506,o),
(205,539,o),
(205,577,cs),
(205,683,ls),
(205,735,o),
(181,761,o),
(133,761,cs),
(85,761,o),
(60,735,o),
(60,683,cs),
(60,60,ls),
(60,14,o),
(84,-8,o),
(132,-8,cs)
);
}
);
width = 569;
}
);
metricRight = n;
note = h;
unicode = 104;
},
{
color = 1;
glyphname = heng;
lastChange = "2023-12-30 18:58:45 +0000";
layers = (
{
layerId = "2F065738-4B59-43EB-A5F2-FD5F277958EA";
shapes = (
{
ref = h;
},
{
closed = 1;
nodes = (
(364,12,ls),
(364,-51,o),
(355,-72,o),
(311,-72,cs),
(227,-72,o),
(167,-57,o),
(167,-128,cs),
(167,-196,o),
(237,-206,o),
(304,-206,cs),
(447,-206,o),
(508,-146,o),
(508,-9,cs),
(508,113,l),
(364,113,l)
);
}
);
width = 569;
}
);
unicode = 42791;
},
{
color = 6;
glyphname = i;
lastChange = "2023-12-19 20:05:00 +0000";
layers = (
{
anchors = (
{
name = bottom;
pos = (135,0);
}
);
hints = (
{
horizontal = 1;
place = (547,39);
type = Stem;
},
{
horizontal = 1;
place = (448,40);
type = Stem;
},
{
horizontal = 1;
place = (-21,21);
target = up;
type = BottomGhost;
},
{
place = (166,41);
type = Stem;
},
{
place = (84,90);
type = Stem;
},
{
place = (50,42);
type = Stem;
}
);
layerId = "2F065738-4B59-43EB-A5F2-FD5F277958EA";
shapes = (
{
closed = 1;
nodes = (
(187,-8,o),
(207,18,o),
(207,60,cs),
(207,440,ls),
(207,482,o),
(187,508,o),
(135,508,cs),
(83,508,o),
(63,482,o),
(63,440,cs),
(63,60,ls),
(63,18,o),
(83,-8,o),
(135,-8,cs)
);
},
{
closed = 1;
nodes = (
(185,594,o),
(222,630,o),
(222,677,cs),
(222,726,o),
(185,762,o),
(135,762,cs),
(85,762,o),
(48,726,o),
(48,677,cs),
(48,630,o),
(85,594,o),
(135,594,cs)
);
}
);
width = 270;
}
);
note = i;
unicode = 105;
},
{
color = 6;
glyphname = j;
lastChange = "2023-12-19 20:05:00 +0000";
layers = (
{
guides = (
{
angle = 90;
pos = (136,678);
}
);
layerId = "2F065738-4B59-43EB-A5F2-FD5F277958EA";
shapes = (
{
closed = 1;
nodes = (
(137,-230,o),
(203,-128,o),
(203,27,cs),
(203,429,ls),
(203,474,o),
(183,508,o),
(131,508,cs),
(87,508,o),
(63,484,o),
(63,429,cs),
(63,7,ls),
(63,-52,o),
(52,-113,o),
(-1,-113,cs),
(-77,-113,o),
(-120,-102,o),
(-120,-161,cs),
(-120,-216,o),
(-85,-230,o),
(-3,-230,cs)
);
},
{
closed = 1;
nodes = (
(181,594,o),
(218,630,o),
(218,677,cs),
(218,726,o),
(181,762,o),
(131,762,cs),
(81,762,o),
(44,726,o),
(44,677,cs),
(44,630,o),
(81,594,o),
(131,594,cs)
);
}
);
width = 266;
},
{
associatedMasterId = "2F065738-4B59-43EB-A5F2-FD5F277958EA";
guides = (
{
angle = 90;
pos = (156,678);
}
);
layerId = "19E96EB1-8A84-4B64-AF0A-79069B131A0E";
name = "18 Dec 23, 14:03";
shapes = (
{
closed = 1;
nodes = (
(157,-230,o),
(223,-128,o),
(223,27,cs),
(223,429,ls),
(223,474,o),
(203,508,o),
(151,508,cs),
(107,508,o),
(83,484,o),
(83,429,cs),
(83,7,ls),
(83,-52,o),
(73,-113,o),
(44,-113,cs),
(11,-113,o),
(-4,-102,o),
(-41,-102,cs),
(-77,-102,o),
(-100,-111,o),
(-100,-150,cs),
(-100,-205,o),
(-65,-230,o),
(17,-230,cs)
);
},
{
closed = 1;
nodes = (
(201,594,o),
(238,630,o),
(238,677,cs),
(238,726,o),
(201,762,o),
(151,762,cs),
(101,762,o),
(64,726,o),
(64,677,cs),
(64,630,o),
(101,594,o),
(151,594,cs)
);
}
);
width = 292;
}
);
metricRight = i;
unicode = 106;
},
{
color = 1;
glyphname = jcrossedtail;
lastChange = "2023-12-30 18:58:45 +0000";
layers = (
{
layerId = "2F065738-4B59-43EB-A5F2-FD5F277958EA";
shapes = (
{
closed = 1;
nodes = (
(182,-114,o),
(148,-96,o),
(148,-50,cs),
(148,14,o),
(191,20,o),
(236,20,c),
(387,20,o),
(480,20,o),
(519,20,cs),
(564,20,o),
(576,41,o),
(576,78,cs),
(576,146,o),
(519,146,o),
(236,146,cs),
(131,146,o),
(10,116,o),
(10,-50,cs),
(10,-96,o),
(32,-230,o),
(236,-230,c),
(236,-114,l)
);
},
{
closed = 1;
nodes = (
(381,-230,o),
(447,-136,o),
(447,19,cs),
(447,429,ls),
(447,474,o),
(427,508,o),
(375,508,cs),
(331,508,o),
(307,484,o),
(307,429,cs),
(307,7,ls),
(307,-71,o),
(296,-114,o),
(236,-114,cs),
(167,-114,o),
(124,-102,o),
(124,-161,cs),
(124,-216,o),
(159,-230,o),
(236,-230,cs)
);
},
{
closed = 1;
nodes = (
(425,594,o),
(462,630,o),
(462,677,cs),
(462,726,o),
(425,762,o),
(375,762,cs),
(325,762,o),
(288,726,o),
(288,677,cs),
(288,630,o),
(325,594,o),
(375,594,cs)
);
}
);
width = 585;
}
);
metricRight = t;
unicode = 669;
},
{
color = 6;
glyphname = k;
lastChange = "2023-12-19 20:05:00 +0000";
layers = (
{
background = {
shapes = (
{
closed = 1;
nodes = (
(485,-11,o),
(510,11,o),
(510,57,cs),
(510,262,o),
(409,323,o),
(282,323,cs),
(203,323,o),
(140,302,o),
(101,244,c),
(202,64,l),
(203,161,o),
(231,204,o),
(282,204,cs),
(333,204,o),
(366,159,o),
(366,57,cs),
(366,11,o),
(391,-11,o),
(439,-11,cs)
);
},
{
closed = 1;
nodes = (
(182,-11,o),
(202,17,o),
(204,61,cs),
(204,63,o),
(204,65,o),
(204,67,cs),
(204,683,ls),
(204,731,o),
(184,761,o),
(132,761,cs),
(80,761,o),
(60,731,o),
(60,683,cs),
(60,67,ls),
(60,19,o),
(80,-11,o),
(132,-11,cs)
);
},
{
closed = 1;
nodes = (
(393,307,o),
(481,372,o),
(499,467,cs),
(504,493,o),
(499,523,o),
(462,542,cs),
(427,560,o),
(382,560,o),
(367,522,cs),
(327,422,o),
(270,353,o),
(163,289,c),
(169,326,l),
(147,288,l),
(248,279,l),
(259,285,o),
(287,251,o),
(301,258,c)
);
}
);
};
layerId = "2F065738-4B59-43EB-A5F2-FD5F277958EA";
shapes = (
{
closed = 1;
nodes = (
(485,-8,o),
(510,14,o),
(510,60,cs),
(510,192,o),
(458,257,o),
(381,284,c),
(437,322,o),
(491,386,o),
(491,441,cs),
(491,487,o),
(443,512,o),
(407,512,cs),
(385,512,o),
(366,503,o),
(357,480,cs),
(328,408,o),
(280,358,o),
(204,312,c),
(204,683,ls),
(204,731,o),
(184,761,o),
(132,761,cs),
(80,761,o),
(60,731,o),
(60,683,cs),
(60,70,ls),
(60,22,o),
(80,-8,o),
(132,-8,cs),
(182,-8,o),
(204,8,o),
(204,85,cs),
(204,170,o),
(235,201,o),
(282,201,cs),
(333,201,o),
(366,157,o),
(366,60,cs),
(366,14,o),
(391,-8,o),
(439,-8,cs)
);
}
);
width = 550;
}
);
metricLeft = h;
unicode = 107;
},
{
color = 1;
glyphname = khook;
lastChange = "2023-12-30 18:58:45 +0000";
layers = (
{
layerId = "2F065738-4B59-43EB-A5F2-FD5F277958EA";
shapes = (
{
closed = 1;
nodes = (
(485,-8,o),
(510,14,o),
(510,60,cs),
(510,192,o),
(458,257,o),
(381,284,c),
(437,322,o),
(491,386,o),
(491,441,cs),
(491,487,o),
(443,512,o),
(407,512,cs),
(385,512,o),
(366,503,o),
(357,480,cs),
(328,408,o),
(280,358,o),
(204,312,c),
(204,524,ls),
(204,572,o),
(184,602,o),
(132,602,cs),
(80,602,o),
(60,572,o),
(60,524,cs),
(60,70,ls),
(60,22,o),
(80,-8,o),
(132,-8,cs),
(182,-8,o),
(204,8,o),
(204,85,cs),
(204,170,o),
(235,201,o),
(282,201,cs),
(333,201,o),
(366,157,o),
(366,60,cs),
(366,14,o),
(391,-8,o),
(439,-8,cs)
);
},
{
closed = 1;
nodes = (
(204,525,l),
(204,584,o),
(215,645,o),
(268,645,cs),
(344,645,o),
(387,634,o),
(387,693,cs),
(387,748,o),
(352,762,o),
(265,762,cs),
(126,762,o),
(60,660,o),
(60,505,cs),
(60,471,l)
);
}
);
width = 550;
}
);
unicode = 409;
},
{
color = 6;
glyphname = l;
lastChange = "2023-12-28 22:51:50 +0000";
layers = (
{
layerId = "2F065738-4B59-43EB-A5F2-FD5F277958EA";
shapes = (
{
closed = 1;
nodes = (
(189,-8,o),
(209,22,o),
(209,70,cs),
(209,684,ls),
(209,732,o),
(189,762,o),
(137,762,cs),
(85,762,o),
(65,732,o),
(65,684,cs),
(65,70,ls),
(65,22,o),
(85,-8,o),
(137,-8,cs)
);
}
);
width = 274;
}
);
unicode = 108;
},
{
color = 6;
glyphname = m;
lastChange = "2023-12-28 22:46:35 +0000";
layers = (
{
hints = (
{
horizontal = 1;
place = (313,72);
type = Stem;
},
{
horizontal = 1;
place = (-21,21);
target = up;
type = BottomGhost;
},
{
horizontal = 1;
place = (-22,21);
target = up;
type = BottomGhost;
},
{
place = (638,89);
type = Stem;
},
{
place = (343,92);
type = Stem;
},
{
place = (51,91);
type = Stem;
},
{
horizontal = 1;
place = (314,72);
type = Stem;
},
{
horizontal = 1;
place = (-22,21);
target = up;
type = BottomGhost;
},
{
horizontal = 1;
place = (-23,21);
target = up;
type = BottomGhost;
},
{
place = (382,90);
type = Stem;
},
{
place = (51,90);
type = Stem;
}
);
layerId = "2F065738-4B59-43EB-A5F2-FD5F277958EA";
shapes = (
{
closed = 1;
nodes = (
(182,-8,o),
(205,14,o),
(205,60,cs),
(205,292,ls),
(205,360,o),
(227,391,o),
(275,391,cs),
(325,391,o),
(347,360,o),
(347,292,cs),
(347,64,ls),
(347,18,o),
(370,-4,o),
(417,-4,cs),
(464,-4,o),
(487,18,o),
(487,64,cs),
(487,292,ls),
(487,360,o),
(509,391,o),
(559,391,cs),
(607,391,o),
(629,360,o),
(629,292,cs),
(629,60,ls),
(629,14,o),
(652,-8,o),
(701,-8,cs),
(750,-8,o),
(773,14,o),
(773,60,cs),
(773,300,ls),
(773,436,o),
(706,511,o),
(585,511,cs),
(500,511,o),
(447,483,o),
(417,422,c),
(387,483,o),
(334,511,o),
(249,511,cs),
(128,511,o),
(61,436,o),
(61,300,cs),
(61,60,ls),
(61,14,o),
(84,-8,o),
(133,-8,cs)
);
}
);
width = 834;
}
);
metricLeft = n;
metricRight = n;
note = m;
unicode = 109;
},
{
color = 1;
glyphname = mturned;
lastChange = "2023-12-30 18:58:45 +0000";
layers = (
{
hints = (
{
horizontal = 1;
place = (313,72);
type = Stem;
},
{
horizontal = 1;
place = (-21,21);
target = up;
type = BottomGhost;
},
{
horizontal = 1;
place = (-22,21);
target = up;
type = BottomGhost;
},
{
place = (638,89);
type = Stem;
},
{
place = (343,92);
type = Stem;
},
{
place = (51,91);
type = Stem;
},
{
horizontal = 1;
place = (314,72);
type = Stem;
},
{
horizontal = 1;
place = (-22,21);
target = up;
type = BottomGhost;
},
{
horizontal = 1;
place = (-23,21);
target = up;
type = BottomGhost;
},
{
place = (382,90);
type = Stem;
},
{
place = (51,90);
type = Stem;
}
);
layerId = "2F065738-4B59-43EB-A5F2-FD5F277958EA";
shapes = (
{
closed = 1;
nodes = (
(84,511,o),
(61,489,o),
(61,443,cs),
(61,203,ls),
(61,67,o),
(128,-8,o),
(249,-8,cs),
(334,-8,o),
(387,20,o),
(417,81,c),
(447,20,o),
(500,-8,o),
(585,-8,cs),
(706,-8,o),
(773,67,o),
(773,203,cs),
(773,443,ls),
(773,489,o),
(750,511,o),
(701,511,cs),
(652,511,o),
(629,489,o),
(629,443,cs),
(629,211,ls),
(629,143,o),
(607,112,o),
(559,112,cs),
(509,112,o),
(487,143,o),
(487,211,cs),
(487,439,ls),
(487,485,o),
(464,507,o),
(417,507,cs),
(370,507,o),
(347,485,o),
(347,439,cs),
(347,211,ls),
(347,143,o),
(325,112,o),
(275,112,cs),
(227,112,o),
(205,143,o),
(205,211,cs),
(205,443,ls),
(205,489,o),
(182,511,o),
(133,511,cs)
);
}
);
width = 834;
}
);
unicode = 623;
},
{
color = 6;
glyphname = n;
lastChange = "2023-12-28 22:43:16 +0000";
layers = (
{
anchors = (
{
name = bottom;
pos = (285,0);
},
{
name = top;
pos = (285,480);
}
);
background = {
shapes = (
{
pos = (21,0);
ref = o;
}
);
};
hints = (
{
horizontal = 1;
place = (314,72);
type = Stem;
},
{
horizontal = 1;
place = (-22,21);
target = up;
type = BottomGhost;
},
{
horizontal = 1;
place = (-23,21);
target = up;
type = BottomGhost;
},
{
place = (382,90);
type = Stem;
},
{
place = (51,90);
type = Stem;
}
);
layerId = "2F065738-4B59-43EB-A5F2-FD5F277958EA";
shapes = (
{
closed = 1;
nodes = (
(182,-8,o),
(205,14,o),
(205,60,cs),
(205,292,ls),
(205,355,o),
(234,391,o),
(285,391,cs),
(336,391,o),
(365,355,o),
(365,292,cs),
(365,60,ls),
(365,14,o),
(388,-8,o),
(437,-8,cs),
(486,-8,o),
(509,14,o),
(509,60,cs),
(509,300,ls),
(509,428,o),
(420,511,o),
(285,511,cs),
(150,511,o),
(61,428,o),
(61,300,cs),
(61,60,ls),
(61,14,o),
(84,-8,o),
(133,-8,cs)
);
}
);
width = 570;
}
);
note = n;
unicode = 110;
},
{
color = 1;
glyphname = nmacronbelow;
lastChange = "2023-12-30 21:10:43 +0000";
layers = (
{
anchors = (
{
name = top;
pos = (285,584);
}
);
hints = (
{
horizontal = 1;
place = (503,81);
type = Stem;
},
{
place = (164,312);
type = Stem;
}
);
layerId = "2F065738-4B59-43EB-A5F2-FD5F277958EA";
shapes = (
{
ref = n;
},
{
closed = 1;
nodes = (
(405,-199,ls),
(436,-199,o),
(456,-184,o),
(456,-146,cs),
(456,-109,o),
(436,-94,o),
(405,-94,cs),
(165,-94,ls),
(134,-94,o),
(114,-109,o),
(114,-146,cs),
(114,-184,o),
(134,-199,o),
(165,-199,cs)
);
}
);
width = 570;
}
);
unicode = 7753;
},
{
color = 6;
glyphname = o;
lastChange = "2023-12-19 20:05:00 +0000";
layers = (
{
anchors = (
{
name = bottom;
pos = (266,0);
},
{
name = center;
pos = (266,240);
},
{
name = ogonek;
pos = (500,10);
},
{
name = top;
pos = (266,480);
},
{
name = topright;
pos = (527,480);
}
);
hints = (
{
horizontal = 1;
place = (314,72);
type = Stem;
},
{
horizontal = 1;
place = (-26,72);
type = Stem;
},
{
place = (377,90);
type = Stem;
},
{
place = (50,90);
type = Stem;
}
);
layerId = "2F065738-4B59-43EB-A5F2-FD5F277958EA";
shapes = (
{
closed = 1;
nodes = (
(409,-8,o),
(497,68,o),
(497,250,cs),
(497,432,o),
(409,511,o),
(266,511,cs),
(123,511,o),
(35,432,o),
(35,250,cs),
(35,68,o),
(123,-8,o),
(266,-8,cs)
);
},
{
closed = 1;
nodes = (
(211,112,o),
(179,140,o),
(179,250,cs),
(179,360,o),
(211,391,o),
(266,391,cs),
(321,391,o),
(353,360,o),
(353,250,cs),
(353,140,o),
(321,112,o),
(266,112,cs)
);
}
);
width = 532;
},
{
anchors = (
{
name = bottom;
pos = (266,0);
},
{
name = center;
pos = (266,240);
},
{
name = ogonek;
pos = (500,10);
},
{
name = top;
pos = (266,480);
},
{
name = topright;
pos = (527,480);
}
);
associatedMasterId = "2F065738-4B59-43EB-A5F2-FD5F277958EA";
hints = (
{
horizontal = 1;
place = (314,72);
type = Stem;
},
{
horizontal = 1;
place = (-26,72);
type = Stem;
},
{
place = (377,90);
type = Stem;
},
{
place = (50,90);
type = Stem;
}
);
layerId = "45958B86-3262-4DCA-ADB3-B26C98EA9A21";
name = "18 Dec 23, 17:19";
shapes = (
{
closed = 1;
nodes = (
(409,-8,o),
(497,91,o),
(497,250,cs),
(497,412,o),
(409,511,o),
(266,511,cs),
(123,511,o),
(35,412,o),
(35,250,cs),
(35,91,o),
(123,-8,o),
(266,-8,cs)
);
},
{
closed = 1;
nodes = (
(211,112,o),
(179,163,o),
(179,250,cs),
(179,340,o),
(211,391,o),
(266,391,cs),
(321,391,o),
(353,340,o),
(353,250,cs),
(353,163,o),
(321,112,o),
(266,112,cs)
);
}
);
width = 532;
}
);
note = o;
unicode = 111;
},
{
color = 1;
glyphname = obarred;
lastChange = "2023-12-30 18:58:52 +0000";
layers = (
{
layerId = "2F065738-4B59-43EB-A5F2-FD5F277958EA";
shapes = (
{
ref = o;
},
{
closed = 1;
nodes = (
(100,215,l),
(433,215,l),
(433,288,l),
(100,288,l)
);
}
);
width = 532;
}
);
unicode = 629;
},
{
color = 1;
glyphname = oopen;
lastChange = "2023-12-30 18:58:52 +0000";
layers = (
{
layerId = "2F065738-4B59-43EB-A5F2-FD5F277958EA";
shapes = (
{
closed = 1;
nodes = (
(371,-8,o),
(448,94,o),
(448,249,cs),
(448,404,o),
(371,508,o),
(208,508,cs),
(105,508,o),
(60,490,o),
(60,435,cs),
(60,396,o),
(83,380,o),
(119,380,cs),
(158,380,o),
(160,391,o),
(211,391,cs),
(282,391,o),
(304,318,o),
(304,249,cs),
(304,180,o),
(292,109,o),
(210,109,cs),
(159,109,o),
(142,120,o),
(119,120,cs),
(83,120,o),
(60,111,o),
(60,72,cs),
(60,17,o),
(105,-8,o),
(208,-8,cs)
);
}
);
width = 508;
}
);
unicode = 596;
},
{
color = 6;
glyphname = p;
lastChange = "2023-12-31 00:04:58 +0000";
layers = (
{
anchors = (
{
name = bottom;
pos = (294,0);
},
{
name = top;
pos = (294,500);
}
);
background = {
shapes = (
{
pos = (7,504);
ref = b;
scale = (1,-1);
}
);
};
hints = (
{
horizontal = 1;
place = (512,21);
target = up;
type = BottomGhost;
},
{
horizontal = 1;
place = (512,-72);
type = Stem;
},
{
horizontal = 1;
place = (512,-72);
type = Stem;
},
{
place = (299,-90);
type = Stem;
},
{
place = (299,-90);
type = Stem;
}
);
layerId = "2F065738-4B59-43EB-A5F2-FD5F277958EA";
shapes = (
{
closed = 1;
nodes = (
(181,-230,o),
(202,-205,o),
(202,-152,cs),
(202,-94,ls),
(202,-16,o),
(199,12,o),
(185,53,c),
(210,12,o),
(253,-8,o),
(323,-8,cs),
(442,-8,o),
(527,57,o),
(527,237,cs),
(527,417,o),
(437,512,o),
(290,512,cs),
(146,512,o),
(62,423,o),
(62,242,cs),
(62,-152,ls),
(62,-203,o),
(87,-230,o),
(135,-230,cs)
);
},
{
closed = 1;
nodes = (
(241,109,o),
(208,141,o),
(208,250,cs),
(208,359,o),
(241,391,o),
(297,391,cs),
(353,391,o),
(386,359,o),
(386,250,cs),
(386,141,o),
(353,109,o),
(297,109,cs)
);
}
);
width = 589;
}
);
unicode = 112;
},
{
color = 1;
glyphname = phook;
lastChange = "2023-12-31 00:05:29 +0000";
layers = (
{
layerId = "2F065738-4B59-43EB-A5F2-FD5F277958EA";
shapes = (
{
closed = 1;
nodes = (
(181,-230,o),
(202,-205,o),
(202,-152,cs),
(202,-94,ls),
(202,-16,o),
(199,12,o),
(185,53,c),
(210,12,o),
(253,-8,o),
(323,-8,cs),
(442,-8,o),
(527,57,o),
(527,237,cs),
(527,417,o),
(437,512,o),
(290,512,cs),
(146,512,o),
(62,423,o),
(62,242,cs),
(62,-152,ls),
(62,-203,o),
(87,-230,o),
(135,-230,cs)
);
},
{
closed = 1;
nodes = (
(241,109,o),
(208,141,o),
(208,250,cs),
(208,359,o),
(241,391,o),
(297,391,cs),
(353,391,o),
(386,359,o),
(386,250,cs),
(386,141,o),
(353,109,o),
(297,109,cs)
);
},
{
closed = 1;
nodes = (
(63,274,l),
(204,463,l),
(204,525,l),
(204,584,o),
(215,645,o),
(268,645,cs),
(344,645,o),
(387,634,o),
(387,693,cs),
(387,748,o),
(352,762,o),
(270,762,cs),
(131,762,o),
(65,660,o),
(65,505,cs),
(65,471,l)
);
}
);
width = 600;
}
);
unicode = 421;
},
{
color = 6;
glyphname = q;
lastChange = "2023-12-19 20:05:00 +0000";
layers = (
{
anchors = (
{
name = bottom;
pos = (263,0);
},
{
name = top;
pos = (263,500);
}
);
hints = (
{
horizontal = 1;
place = (-224,21);
target = up;
type = BottomGhost;
},
{
horizontal = 1;
place = (186,-72);
type = Stem;
},
{
horizontal = 1;
place = (524,-72);
type = Stem;
},
{
place = (174,-90);
type = Stem;
},
{
place = (512,-90);
type = Stem;
},
{
place = (960,90);
type = Stem;
},
{
place = (885,72);
type = Stem;
},
{
place = (622,90);
type = Stem;
},
{
place = (547,72);
type = Stem;
},
{
place = (209,72);
type = Stem;
}
);
layerId = "2F065738-4B59-43EB-A5F2-FD5F277958EA";
shapes = (
{
closed = 1;
nodes = (
(475,-230,o),
(500,-203,o),
(500,-152,cs),
(500,242,ls),
(500,422,o),
(416,512,o),
(272,512,cs),
(125,512,o),
(35,417,o),
(35,237,cs),
(35,57,o),
(120,-8,o),
(239,-8,cs),
(309,-8,o),
(352,12,o),
(377,53,c),
(363,12,o),
(360,-16,o),
(360,-94,cs),
(360,-152,ls),
(360,-205,o),
(381,-230,o),
(427,-230,cs)
);
},
{
closed = 1;
nodes = (
(209,109,o),
(176,141,o),
(176,250,cs),
(176,359,o),
(209,391,o),
(265,391,cs),
(321,391,o),
(354,359,o),
(354,250,cs),
(354,141,o),
(321,109,o),
(265,109,cs)
);
}
);
width = 554;
},
{
anchors = (
{
name = bottom;
pos = (263,0);
},
{
name = top;
pos = (263,500);
}
);
annotations = (
{
pos = (520.77,566.09);
type = Text;
}
);
associatedMasterId = "2F065738-4B59-43EB-A5F2-FD5F277958EA";
hints = (
{
horizontal = 1;
place = (-224,21);
target = up;
type = BottomGhost;
},
{
horizontal = 1;
place = (186,-72);
type = Stem;
},
{
horizontal = 1;
place = (524,-72);
type = Stem;
},
{
place = (174,-90);
type = Stem;
},
{
place = (512,-90);
type = Stem;
},
{
place = (960,90);
type = Stem;
},
{
place = (885,72);
type = Stem;
},
{
place = (622,90);
type = Stem;
},
{
place = (547,72);
type = Stem;
},
{
place = (209,72);
type = Stem;
}
);
layerId = "6665F968-FD12-4808-981C-056471F249F5";
name = "18 Dec 23, 17:25";
shapes = (
{
closed = 1;
nodes = (
(475,-230,o),
(500,-203,o),
(500,-152,cs),
(500,242,ls),
(500,413,o),
(416,512,o),
(272,512,cs),
(125,512,o),
(35,407,o),
(35,237,cs),
(35,86,o),
(120,-8,o),
(239,-8,cs),
(309,-8,o),
(352,12,o),
(377,53,c),
(363,12,o),
(360,-16,o),
(360,-94,cs),
(360,-152,ls),
(360,-205,o),
(381,-230,o),
(427,-230,cs)
);
},
{
closed = 1;
nodes = (
(209,109,o),
(176,161,o),
(176,250,cs),
(176,339,o),
(209,391,o),
(265,391,cs),
(321,391,o),
(354,339,o),
(354,250,cs),
(354,161,o),
(321,109,o),
(265,109,cs)
);
}
);
width = 554;
}
);
metricLeft = d;
metricRight = d;
unicode = 113;
},
{
color = 1;
glyphname = qhooktail;
lastChange = "2023-12-30 18:59:11 +0000";
layers = (
{
anchors = (
{
name = bottom;
pos = (263,0);
},
{
name = top;
pos = (263,500);
}
);
hints = (
{
horizontal = 1;
place = (-224,21);
target = up;
type = BottomGhost;
},
{
horizontal = 1;
place = (186,-72);
type = Stem;
},
{
horizontal = 1;
place = (524,-72);
type = Stem;
},
{
place = (174,-90);
type = Stem;
},
{
place = (512,-90);
type = Stem;
},
{
place = (960,90);
type = Stem;
},
{
place = (885,72);
type = Stem;
},
{
place = (622,90);
type = Stem;
},
{
place = (547,72);
type = Stem;
},
{
place = (209,72);
type = Stem;
}
);
layerId = "2F065738-4B59-43EB-A5F2-FD5F277958EA";
shapes = (
{
closed = 0;
nodes = (
(427,-230,l)
);
},
{
closed = 1;
nodes = (
(209,109,o),
(176,141,o),
(176,250,cs),
(176,359,o),
(209,391,o),
(265,391,cs),
(321,391,o),
(354,359,o),
(354,250,cs),
(354,141,o),
(321,109,o),
(265,109,cs)
);
},
{
closed = 1;
nodes = (
(360,-63,l),
(360,-200,o),
(417,-260,o),
(560,-260,cs),
(627,-260,o),
(697,-250,o),
(697,-182,cs),
(697,-111,o),
(637,-126,o),
(553,-126,cs),
(509,-126,o),
(500,-105,o),
(500,-42,cs),
(500,59,l),
(500,95,l),
(500,242,ls),
(500,422,o),
(416,512,o),
(272,512,cs),
(125,512,o),
(35,417,o),
(35,237,cs),
(35,57,o),
(120,-8,o),
(239,-8,cs),
(309,-8,o),
(352,12,o),
(377,53,c),
(363,12,o),
(360,-16,o),
(360,-94,c)
);
}
);
width = 554;
}
);
unicode = 587;
},
{
color = 6;
glyphname = r;
lastChange = "2023-12-28 22:46:35 +0000";
layers = (
{
hints = (
{
horizontal = 1;
place = (315,72);
type = Stem;
},
{
horizontal = 1;
place = (-24,21);
target = up;
type = BottomGhost;
},
{
place = (51,92);
type = Stem;
}
);
layerId = "2F065738-4B59-43EB-A5F2-FD5F277958EA";
shapes = (
{
closed = 1;
nodes = (
(181,-8,o),
(205,14,o),
(205,60,cs),
(205,273,ls),
(205,356,o),
(232,380,o),
(327,380,cs),
(391,380,o),
(417,398,o),
(417,436,cs),
(417,487,o),
(389,511,o),
(331,511,cs),
(271,511,o),
(225,486,o),
(201,442,c),
(201,489,o),
(181,509,o),
(133,509,cs),
(85,509,o),
(61,487,o),
(61,439,cs),
(61,60,ls),
(61,14,o),
(85,-8,o),
(133,-8,cs)
);
}
);
width = 417;
}
);
metricLeft = n;
note = r;
unicode = 114;
},
{
color = 1;
glyphname = rtail;
lastChange = "2023-12-30 18:59:17 +0000";
layers = (
{
layerId = "2F065738-4B59-43EB-A5F2-FD5F277958EA";
shapes = (
{
ref = r;
},
{
closed = 1;
nodes = (
(61,113,l),
(61,-9,ls),
(61,-146,o),
(122,-206,o),
(265,-206,cs),
(332,-206,o),
(402,-196,o),
(402,-128,cs),
(402,-57,o),
(342,-72,o),
(258,-72,cs),
(214,-72,o),
(205,-51,o),
(205,12,cs),
(205,113,l)
);
}
);
width = 417;
}
);
unicode = 637;
},
{
color = 6;
glyphname = s;
lastChange = "2023-12-22 19:56:06 +0000";
layers = (
{
anchors = (
{
name = bottom;
pos = (254,0);
},
{
name = top;
pos = (254,480);
}
);
background = {
anchors = (
{
name = bottom;
pos = (254,0);
},
{
name = top;
pos = (254,480);
}
);
annotations = (
{
pos = (8,-111);
type = Text;
}
);
};
hints = (
{
horizontal = 1;
place = (314,72);
type = Stem;
},
{
horizontal = 1;
place = (151,72);
type = Stem;
},
{
horizontal = 1;
place = (-24,71);
type = Stem;
},
{
place = (378,90);
type = Stem;
},
{
place = (50,90);
type = Stem;
}
);
layerId = "2F065738-4B59-43EB-A5F2-FD5F277958EA";
shapes = (
{
closed = 1;
nodes = (
(351,-8,o),
(427,54,o),
(427,147,cs),
(427,227,o),
(382,273,o),
(283,302,cs),
(211,323,o),
(191,338,o),
(191,365,cs),
(191,387,o),
(206,399,o),
(239,399,cs),
(261,399,o),
(282,394,o),
(301,388,cs),
(326,381,o),
(344,377,o),
(357,377,cs),
(389,377,o),
(409,401,o),
(409,433,cs),
(409,484,o),
(351,511,o),
(255,511,cs),
(127,511,o),
(49,456,o),
(49,355,cs),
(49,283,o),
(93,233,o),
(160,214,cs),
(269,182,o),
(283,178,o),
(283,144,cs),
(283,116,o),
(265,105,o),
(217,105,cs),
(192,105,o),
(162,112,o),
(146,117,cs),
(109,129,o),
(102,131,o),
(89,131,cs),
(58,131,o),
(38,109,o),
(38,75,cs),
(38,21,o),
(102,-8,o),
(226,-8,cs)
);
}
);
width = 467;
}
);
note = s;
unicode = 115;
},
{
color = 6;
glyphname = t;
lastChange = "2023-12-19 20:05:00 +0000";
layers = (
{
anchors = (
{
name = bottom;
pos = (205,0);
},
{
name = center;
pos = (205,250);
},
{
name = top;
pos = (205,500);
},
{
name = topright;
pos = (390,750);
}
);
hints = (
{
horizontal = 1;
place = (724,-20);
target = down;
type = TopGhost;
},
{
horizontal = 1;
place = (314,72);
type = Stem;
},
{
horizontal = 1;
place = (-25,73);
type = Stem;
},
{
place = (51,90);
type = Stem;
}
);
layerId = "2F065738-4B59-43EB-A5F2-FD5F277958EA";
shapes = (
{
closed = 1;
nodes = (
(364,-8,o),
(397,17,o),
(397,72,cs),
(397,111,o),
(374,120,o),
(338,120,cs),
(316,120,o),
(308,113,o),
(280,113,cs),
(258,113,o),
(250,128,o),
(250,168,cs),
(250,378,l),
(301,378,ls),
(345,378,o),
(369,400,o),
(369,439,cs),
(369,478,o),
(345,499,o),
(301,499,cs),
(238,499,l),
(245,513,o),
(250,539,o),
(250,561,cs),
(250,610,ls),
(250,655,o),
(223,683,o),
(180,683,cs),
(136,683,o),
(106,652,o),
(106,608,cs),
(106,499,l),
(80,499,ls),
(36,499,o),
(12,478,o),
(12,439,cs),
(12,400,o),
(36,378,o),
(80,378,cs),
(106,378,l),
(106,171,ls),
(106,49,o),
(164,-8,o),
(288,-8,cs)
);
}
);
width = 406;
}
);
note = t;
unicode = 116;
},
{
color = 1;
glyphname = thook;
lastChange = "2023-12-30 18:59:27 +0000";
layers = (
{
layerId = "2F065738-4B59-43EB-A5F2-FD5F277958EA";
shapes = (
{
ref = t;
},
{
closed = 1;
nodes = (
(250,666,l),
(250,729,o),
(259,750,o),
(303,750,cs),
(387,750,o),
(447,735,o),
(447,806,cs),
(447,874,o),
(377,884,o),
(310,884,cs),
(167,884,o),
(106,824,o),
(106,687,cs),
(106,585,l),
(250,585,l),
(250,668,l)
);
}
);
width = 406;
}
);
unicode = 429;
},
{
color = 1;
glyphname = tmacronbelow;
lastChange = "2023-12-30 23:55:40 +0000";
layers = (
{
layerId = "2F065738-4B59-43EB-A5F2-FD5F277958EA";
shapes = (
{
ref = t;
},
{
closed = 1;
nodes = (
(325,-199,ls),
(356,-199,o),
(376,-184,o),
(376,-146,cs),
(376,-109,o),
(356,-94,o),
(325,-94,cs),
(85,-94,ls),
(54,-94,o),
(34,-109,o),
(34,-146,cs),
(34,-184,o),
(54,-199,o),
(85,-199,cs)
);
}
);
width = 397;
}
);
metricLeft = t;
metricRight = f;
unicode = 7791;
},
{
color = 6;
glyphname = u;
lastChange = "2023-12-28 22:46:35 +0000";
layers = (
{
background = {
shapes = (
{
pos = (21,0);
ref = o;
},
{
closed = 1;
nodes = (
(438,-11,o),
(516,65,o),
(516,212,cs),
(516,428,ls),
(516,480,o),
(492,506,o),
(444,506,cs),
(396,506,o),
(372,480,o),
(372,428,cs),
(372,208,ls),
(372,148,o),
(338,109,o),
(287,109,cs),
(236,109,o),
(202,148,o),
(202,208,cs),
(202,428,ls),
(202,480,o),
(178,506,o),
(130,506,cs),
(82,506,o),
(58,480,o),
(58,428,cs),
(58,212,ls),
(58,65,o),
(136,-11,o),
(287,-11,cs)
);
}
);
};
hints = (
{
horizontal = 1;
place = (-24,72);
type = Stem;
},
{
horizontal = 1;
place = (-2,21);
target = up;
type = BottomGhost;
},
{
place = (380,92);
type = Stem;
},
{
place = (51,90);
type = Stem;
},
{
horizontal = 1;
place = (506,-72);
type = Stem;
},
{
horizontal = 1;
place = (506,-20);
target = down;
type = TopGhost;
},
{
horizontal = 1;
place = (506,-20);
target = down;
type = TopGhost;
},
{
place = (135,-90);
type = Stem;
},
{
place = (135,-90);
type = Stem;
},
{
horizontal = 1;
origin = (0,20);
type = Stem;
},
{
horizontal = 1;
origin = (0,20);
target = down;
type = TopGhost;
},
{
horizontal = 1;
origin = (0,20);
target = down;
type = TopGhost;
},
{
origin = (0,20);
type = Stem;
},
{
origin = (0,20);
type = Stem;
}
);
layerId = "2F065738-4B59-43EB-A5F2-FD5F277958EA";
shapes = (
{
closed = 1;
nodes = (
(415,-8,o),
(503,78,o),
(503,209,cs),
(503,443,ls),
(503,489,o),
(480,511,o),
(431,511,cs),
(382,511,o),
(359,489,o),
(359,443,cs),
(359,211,ls),
(359,148,o),
(331,112,o),
(282,112,cs),
(233,112,o),
(205,148,o),
(205,211,cs),
(205,443,ls),
(205,489,o),
(182,511,o),
(133,511,cs),
(84,511,o),
(61,489,o),
(61,443,cs),
(61,209,ls),
(61,78,o),
(149,-8,o),
(282,-8,cs)
);
}
);
width = 564;
}
);
metricLeft = n;
metricRight = n;
note = u;
unicode = 117;
},
{
color = 1;
glyphname = udieresismacron;
lastChange = "2023-12-30 19:21:38 +0000";
layers = (
{
anchors = (
{
name = top;
pos = (-1,104);
}
);
hints = (
{
horizontal = 1;
place = (23,81);
type = Stem;
},
{
place = (-156,312);
type = Stem;
}
);
layerId = "2F065738-4B59-43EB-A5F2-FD5F277958EA";
shapes = (
{
pos = (-1,0);
ref = u;
},
{
closed = 1;
nodes = (
(206,730,o),
(231,755,o),
(231,791,cs),
(231,828,o),
(206,853,o),
(169,853,cs),
(131,853,o),
(107,828,o),
(107,791,cs),
(107,755,o),
(131,730,o),
(169,730,cs)
);
},
{
closed = 1;
nodes = (
(435,730,o),
(460,755,o),
(460,791,cs),
(460,828,o),
(435,853,o),
(398,853,cs),
(360,853,o),
(336,828,o),
(336,791,cs),
(336,755,o),
(360,730,o),
(398,730,cs)
);
},
{
closed = 1;
nodes = (
(401,573,ls),
(432,573,o),
(452,588,o),
(452,626,cs),
(452,663,o),
(432,678,o),
(401,678,cs),
(161,678,ls),
(130,678,o),
(110,663,o),
(110,626,cs),
(110,588,o),
(130,573,o),
(161,573,cs)
);
}
);
width = 562;
}
);
unicode = 470;
},
{
color = 6;
glyphname = v;
lastChange = "2023-12-22 19:21:54 +0000";
layers = (
{
layerId = "2F065738-4B59-43EB-A5F2-FD5F277958EA";
shapes = (
{
closed = 1;
nodes = (
(292,-8,o),
(331,12,o),
(391,108,cs),
(486,258,o),
(475,407,o),
(468,454,cs),
(462,491,o),
(441,511,o),
(401,511,cs),
(361,511,o),
(324,486,o),
(327,446,cs),
(333,351,o),
(332,253,o),
(268,145,c),
(173,466,ls),
(164,493,o),
(146,511,o),
(114,511,cs),
(79,511,o),
(38,491,o),
(36,446,cs),
(36,436,o),
(39,424,o),
(142,97,cs),
(169,11,o),
(210,-8,o),
(250,-8,cs)
);
}
);
width = 512;
}
);
unicode = 118;
},
{
color = 1;
glyphname = vhook;
lastChange = "2023-12-30 18:59:39 +0000";
layers = (
{
layerId = "2F065738-4B59-43EB-A5F2-FD5F277958EA";
shapes = (
{
closed = 1;
nodes = (
(292,-8,o),
(331,12,o),
(391,108,cs),
(486,258,o),
(475,407,o),
(468,454,cs),
(462,491,o),
(441,511,o),
(401,511,cs),
(361,511,o),
(324,486,o),
(327,446,cs),
(333,351,o),
(332,253,o),
(268,145,c),
(173,466,ls),
(164,493,o),
(146,511,o),
(114,511,cs),
(79,511,o),
(38,491,o),
(36,446,cs),
(36,436,o),
(39,424,o),
(142,97,cs),
(169,11,o),
(210,-8,o),
(250,-8,cs)
);
}
);
width = 600;
}
);
unicode = 651;
},
{
color = 1;
glyphname = vturned;
lastChange = "2023-12-30 18:59:39 +0000";
layers = (
{
layerId = "2F065738-4B59-43EB-A5F2-FD5F277958EA";
shapes = (
{
closed = 1;
nodes = (
(210,511,o),
(169,492,o),
(142,406,cs),
(39,79,o),
(36,67,o),
(36,57,cs),
(38,12,o),
(79,-8,o),
(114,-8,cs),
(146,-8,o),
(164,10,o),
(173,37,cs),
(268,358,l),
(332,250,o),
(333,152,o),
(327,57,cs),
(324,17,o),
(361,-8,o),
(401,-8,cs),
(441,-8,o),
(462,12,o),
(468,49,cs),
(475,96,o),
(486,245,o),
(391,395,cs),
(331,491,o),
(292,511,o),
(250,511,cs)
);
}
);
width = 512;
}
);
metricLeft = v;
metricRight = v;
unicode = 652;
},
{
color = 6;
glyphname = w;
lastChange = "2023-12-22 19:30:10 +0000";
layers = (
{
background = {
shapes = (
{
closed = 1;
nodes = (
(549,-11,o),
(581,6,o),
(624,83,cs),
(705,227,o),
(719,350,o),
(707,449,cs),
(702,491,o),
(676,511,o),
(635,511,cs),
(594,511,o),
(556,486,o),
(564,439,cs),
(582,335,o),
(563,256,o),
(522,142,c),
(423,448,ls),
(408,493,o),
(387,511,o),
(354,511,cs),
(318,511,o),
(277,491,o),
(277,446,cs),
(277,436,o),
(279,424,o),
(283,414,cs),
(395,94,ls),
(426,6,o),
(460,-11,o),
(512,-11,cs)
);
},
{
closed = 1;
nodes = (
(261,-11,o),
(293,6,o),
(336,83,cs),
(393,184,o),
(426,275,o),
(426,371,cs),
(426,440,o),
(426,511,o),
(347,511,cs),
(306,511,o),
(275,446,o),
(277,436,cs),
(294,342,o),
(271,244,o),
(234,142,c),
(129,466,ls),
(120,493,o),
(99,511,o),
(66,511,cs),
(30,511,o),
(-11,491,o),
(-11,446,cs),
(-11,436,o),
(-9,424,o),
(-5,414,cs),
(107,94,ls),
(138,6,o),
(172,-11,o),
(224,-11,cs)
);
}
);
};
layerId = "2F065738-4B59-43EB-A5F2-FD5F277958EA";
shapes = (
{
closed = 1;
nodes = (
(257,-8,o),
(291,12,o),
(342,108,cs),
(424,258,o),
(415,407,o),
(409,454,cs),
(403,491,o),
(382,459,o),
(347,459,cs),
(344,459,o),
(284,486,o),
(288,446,cs),
(296,351,o),
(292,253,o),
(236,145,c),
(154,466,ls),
(147,493,o),
(132,511,o),
(104,511,cs),
(74,511,o),
(39,491,o),
(36,446,cs),
(36,436,o),
(38,424,o),
(41,414,cs),
(129,97,ls),
(152,11,o),
(187,-8,o),
(221,-8,cs)
);
},
{
closed = 1;
nodes = (
(510,-8,o),
(544,12,o),
(595,108,cs),
(676,258,o),
(667,407,o),
(661,454,cs),
(656,491,o),
(638,511,o),
(603,511,cs),
(569,511,o),
(536,486,o),
(540,446,cs),
(547,351,o),
(545,253,o),
(488,145,c),
(406,466,ls),
(399,493,o),
(384,511,o),
(356,511,cs),
(326,511,o),
(290,491,o),
(287,446,cs),
(287,436,o),
(290,424,o),
(293,414,cs),
(381,97,ls),
(404,11,o),
(439,-8,o),
(473,-8,cs)
);
}
);
width = 705;
},
{
associatedMasterId = "2F065738-4B59-43EB-A5F2-FD5F277958EA";
background = {
shapes = (
{
closed = 1;
nodes = (
(554,-11,o),
(586,6,o),
(629,83,cs),
(710,227,o),
(724,350,o),
(712,449,cs),
(707,491,o),
(681,511,o),
(640,511,cs),
(599,511,o),
(561,486,o),
(569,439,cs),
(587,335,o),
(568,256,o),
(527,142,c),
(428,448,ls),
(413,493,o),
(392,511,o),
(359,511,cs),
(323,511,o),
(282,491,o),
(282,446,cs),
(282,436,o),
(284,424,o),
(288,414,cs),
(400,94,ls),
(431,6,o),
(465,-11,o),
(517,-11,cs)
);
},
{
closed = 1;
nodes = (
(266,-11,o),
(298,6,o),
(341,83,cs),
(398,184,o),
(431,275,o),
(431,371,cs),
(431,440,o),
(431,511,o),
(352,511,cs),
(311,511,o),
(280,446,o),
(282,436,cs),
(299,342,o),
(276,244,o),
(239,142,c),
(134,466,ls),
(125,493,o),
(104,511,o),
(71,511,cs),
(35,511,o),
(-6,491,o),
(-6,446,cs),
(-6,436,o),
(-4,424,o),
(0,414,cs),
(112,94,ls),
(143,6,o),
(177,-11,o),
(229,-11,cs)
);
}
);
};
layerId = "B4050B1E-E4E0-49D8-A4CF-C4D8D976C3C6";
name = "now ";
shapes = (
{
closed = 1;
nodes = (
(269,-8,o),
(305,20,o),
(340,84,cs),
(362,122,o),
(375,164,o),
(381,192,c),
(408,85,ls),
(423,22,o),
(452,-8,o),
(499,-8,cs),
(546,-8,o),
(587,22,o),
(624,83,cs),
(673,165,o),
(711,297,o),
(714,394,cs),
(717,473,o),
(695,507,o),
(642,507,cs),
(598,507,o),
(571,484,o),
(571,445,cs),
(571,423,o),
(579,400,o),
(578,359,cs),
(577,309,o),
(562,223,o),
(520,141,c),
(434,441,ls),
(422,483,o),
(399,504,o),
(363,504,cs),
(324,504,o),
(297,479,o),
(294,439,cs),
(291,402,o),
(311,388,o),
(311,344,cs),
(311,287,o),
(278,206,o),
(242,141,c),
(150,462,ls),
(142,491,o),
(120,507,o),
(90,507,cs),
(49,507,o),
(17,481,o),
(16,447,cs),
(15,433,o),
(17,420,o),
(28,387,cs),
(122,94,ls),
(145,21,o),
(173,-8,o),
(222,-8,cs)
);
}
);
width = 730;
}
);
metricLeft = v;
metricRight = v;
unicode = 119;
},
{
color = 6;
glyphname = x;
lastChange = "2023-12-19 20:05:00 +0000";
layers = (
{
background = {
shapes = (
{
pos = (6,0);
ref = v;
}
);
};
layerId = "2F065738-4B59-43EB-A5F2-FD5F277958EA";
shapes = (
{
closed = 1;
nodes = (
(422,-8,o),
(437,-4,o),
(451,8,cs),
(471,26,o),
(479,46,o),
(479,64,cs),
(479,83,o),
(470,100,o),
(460,112,cs),
(326,277,l),
(283,323,l),
(158,483,ls),
(147,497,o),
(125,511,o),
(100,511,cs),
(86,511,o),
(71,507,o),
(57,495,cs),
(36,476,o),
(28,456,o),
(28,438,cs),
(28,420,o),
(38,403,o),
(48,390,cs),
(172,231,l),
(210,191,l),
(350,20,ls),
(362,6,o),
(383,-8,o),
(408,-8,cs)
);
},
{
closed = 1;
nodes = (
(134,-8,o),
(151,6,o),
(163,33,cs),
(187,86,o),
(232,155,o),
(264,181,c),
(172,270,l),
(81,189,o),
(25,110,o),
(25,58,cs),
(25,11,o),
(73,-8,o),
(105,-8,cs)
);
},
{
closed = 1;
nodes = (
(430,322,o),
(474,389,o),
(474,441,cs),
(474,488,o),
(436,511,o),
(396,511,cs),
(367,511,o),
(345,492,o),
(332,461,cs),
(313,417,o),
(278,359,o),
(234,319,c),
(336,234,l)
);
}
);
width = 504;
}
);
unicode = 120;
},
{
color = 6;
glyphname = y;
lastChange = "2023-12-25 16:32:15 +0000";
layers = (
{
background = {
shapes = (
{
closed = 1;
nodes = (
(331,-11,o),
(359,10,o),
(418,105,cs),
(481,206,o),
(510,275,o),
(510,371,cs),
(510,399,o),
(509,429,o),
(501,465,cs),
(495,491,o),
(472,511,o),
(431,511,cs),
(390,511,o),
(352,486,o),
(359,446,cs),
(363,422,o),
(365,407,o),
(366,375,cs),
(368,314,o),
(355,245,o),
(298,142,c),
(173,466,ls),
(163,493,o),
(143,511,o),
(110,511,cs),
(74,511,o),
(33,491,o),
(33,446,cs),
(33,436,o),
(35,424,o),
(39,414,cs),
(171,94,ls),
(206,8,o),
(236,-11,o),
(288,-11,cs)
);
},
{
closed = 1;
nodes = (
(240,-101,o),
(214,-112,o),
(152,-112,cs),
(101,-112,o),
(85,-102,o),
(46,-102,cs),
(10,-102,o),
(-13,-111,o),
(-13,-150,cs),
(-13,-205,o),
(32,-230,o),
(135,-230,cs),
(305,-230,o),
(384,-177,o),
(384,-55,cs),
(384,-13,o),
(365,58,o),
(305,78,c),
(219,13,l),
(231,-1,o),
(240,-28,o),
(240,-51,cs)
);
}
);
};
layerId = "2F065738-4B59-43EB-A5F2-FD5F277958EA";
shapes = (
{
closed = 1;
nodes = (
(319,-230,o),
(385,-166,o),
(385,-75,cs),
(385,-33,o),
(377,10,o),
(354,34,c),
(386,45,o),
(417,93,o),
(425,104,cs),
(476,173,o),
(505,290,o),
(505,394,cs),
(505,411,o),
(504,442,o),
(497,464,cs),
(488,493,o),
(469,511,o),
(430,511,cs),
(387,511,o),
(349,489,o),
(355,446,cs),
(356,439,o),
(361,413,o),
(362,375,cs),
(364,314,o),
(351,245,o),
(301,142,c),
(176,466,ls),
(166,493,o),
(146,511,o),
(113,511,cs),
(77,511,o),
(36,491,o),
(36,446,cs),
(36,436,o),
(38,424,o),
(42,414,cs),
(167,111,ls),
(221,-20,o),
(233,-55,o),
(233,-78,cs),
(233,-103,o),
(218,-111,o),
(180,-111,cs),
(145,-111,o),
(121,-102,o),
(84,-102,cs),
(48,-102,o),
(25,-111,o),
(25,-150,cs),
(25,-204,o),
(70,-230,o),
(164,-230,cs)
);
}
);
width = 545;
}
);
metricRight = v;
unicode = 121;
},
{
color = 1;
glyphname = yhook;
lastChange = "2023-12-30 18:59:53 +0000";
layers = (
{
layerId = "2F065738-4B59-43EB-A5F2-FD5F277958EA";
shapes = (
{
closed = 1;
nodes = (
(319,-230,o),
(385,-166,o),
(385,-75,cs),
(385,-33,o),
(377,10,o),
(354,34,c),
(386,45,o),
(417,93,o),
(425,104,cs),
(476,173,o),
(505,290,o),
(505,394,cs),
(505,411,o),
(504,442,o),
(497,464,cs),
(488,493,o),
(469,511,o),
(430,511,cs),
(387,511,o),
(349,489,o),
(355,446,cs),
(356,439,o),
(361,413,o),
(362,375,cs),
(364,314,o),
(351,245,o),
(301,142,c),
(176,466,ls),
(166,493,o),
(146,511,o),
(113,511,cs),
(77,511,o),
(36,491,o),
(36,446,cs),
(36,436,o),
(38,424,o),
(42,414,cs),
(167,111,ls),
(221,-20,o),
(233,-55,o),
(233,-78,cs),
(233,-103,o),
(218,-111,o),
(180,-111,cs),
(145,-111,o),
(121,-102,o),
(84,-102,cs),
(48,-102,o),
(25,-111,o),
(25,-150,cs),
(25,-204,o),
(70,-230,o),
(164,-230,cs)
);
},
{
closed = 0;
nodes = (
(508,442,ls),
(508,467,o),
(523,475,o),
(561,475,cs),
(596,475,o),
(620,466,o),
(657,466,cs),
(693,466,o),
(716,475,o),
(716,514,cs),
(716,568,o),
(671,594,o),
(577,594,cs),
(422,594,o),
(356,530,o),
(356,439,cs)
);
}
);
width = 545;
}
);
unicode = 436;
},
{
color = 6;
glyphname = z;
lastChange = "2023-12-19 20:05:00 +0000";
layers = (
{
layerId = "2F065738-4B59-43EB-A5F2-FD5F277958EA";
shapes = (
{
closed = 1;
nodes = (
(372,0,ls),
(418,0,o),
(439,19,o),
(439,59,cs),
(439,101,o),
(416,122,o),
(372,122,cs),
(206,122,ls),
(192,122,o),
(220,119,o),
(243,154,cs),
(361,331,l),
(359,329,o),
(434,425,o),
(434,460,cs),
(434,475,o),
(420,500,o),
(388,500,cs),
(98,500,ls),
(52,500,o),
(31,479,o),
(31,439,cs),
(31,397,o),
(54,378,o),
(98,378,cs),
(245,378,ls),
(247,378,o),
(234,379,o),
(212,344,cs),
(51,85,ls),
(34,57,o),
(34,50,o),
(34,43,cs),
(34,13,o),
(47,0,o),
(80,0,cs)
);
}
);
width = 472;
}
);
unicode = 122;
},
{
color = 1;
glyphname = umod;
lastChange = "2023-12-30 19:00:03 +0000";
layers = (
{
hints = (
{
horizontal = 1;
place = (-24,72);
type = Stem;
},
{
horizontal = 1;
place = (-2,21);
target = up;
type = BottomGhost;
},
{
place = (380,92);
type = Stem;
},
{
place = (51,90);
type = Stem;
},
{
horizontal = 1;
place = (506,-72);
type = Stem;
},
{
horizontal = 1;
place = (506,-20);
target = down;
type = TopGhost;
},
{
horizontal = 1;
place = (506,-20);
target = down;
type = TopGhost;
},
{
place = (135,-90);
type = Stem;
},
{
place = (135,-90);
type = Stem;
},
{
horizontal = 1;
type = Stem;
},
{
horizontal = 1;
place = (762,-20);
target = down;
type = TopGhost;
},
{
horizontal = 1;
place = (762,-20);
target = down;
type = TopGhost;
},
{
type = Stem;
},
{
type = Stem;
}
);
layerId = "2F065738-4B59-43EB-A5F2-FD5F277958EA";
shapes = (
{
closed = 1;
nodes = (
(209,472,o),
(259,520,o),
(259,595,cs),
(259,726,ls),
(259,752,o),
(246,765,o),
(219,765,cs),
(191,765,o),
(178,752,o),
(178,726,cs),
(178,596,ls),
(178,560,o),
(162,540,o),
(135,540,cs),
(107,540,o),
(91,560,o),
(91,596,cs),
(91,726,ls),
(91,752,o),
(78,765,o),
(51,765,cs),
(23,765,o),
(10,752,o),
(10,726,cs),
(10,595,ls),
(10,520,o),
(59,472,o),
(135,472,cs)
);
}
);
width = 269;
}
);
unicode = 7512;
},
{
color = 1;
glyphname = vmod;
lastChange = "2023-12-30 19:00:03 +0000";
layers = (
{
layerId = "2F065738-4B59-43EB-A5F2-FD5F277958EA";
shapes = (
{
closed = 1;
nodes = (
(160,472,o),
(181,483,o),
(215,537,cs),
(268,620,o),
(262,703,o),
(258,730,cs),
(255,751,o),
(243,762,o),
(221,762,cs),
(199,762,o),
(178,748,o),
(179,725,cs),
(182,672,o),
(182,617,o),
(147,557,c),
(93,737,ls),
(88,752,o),
(78,762,o),
(61,762,cs),
(41,762,o),
(18,751,o),
(17,725,cs),
(17,719,o),
(18,713,o),
(76,530,cs),
(91,482,o),
(114,472,o),
(137,472,cs)
);
}
);
width = 282;
}
);
unicode = 7515;
},
{
color = 1;
glyphname = zmod;
lastChange = "2023-12-30 19:00:03 +0000";
layers = (
{
layerId = "2F065738-4B59-43EB-A5F2-FD5F277958EA";
shapes = (
{
closed = 1;
nodes = (
(216,472,ls),
(243,472,o),
(255,483,o),
(255,506,cs),
(255,531,o),
(241,543,o),
(216,543,cs),
(120,543,ls),
(111,543,o),
(128,541,o),
(141,561,cs),
(210,664,l),
(208,663,o),
(252,719,o),
(252,739,cs),
(252,748,o),
(244,762,o),
(225,762,cs),
(57,762,ls),
(30,762,o),
(18,750,o),
(18,727,cs),
(18,702,o),
(31,691,o),
(57,691,cs),
(142,691,ls),
(143,691,o),
(136,692,o),
(123,672,cs),
(30,521,ls),
(20,505,o),
(20,501,o),
(20,497,cs),
(20,480,o),
(27,472,o),
(46,472,cs)
);
}
);
width = 274;
}
);
unicode = 7611;
},
{
color = 6;
glyphname = zero;
lastChange = "2023-12-28 22:42:06 +0000";
layers = (
{
layerId = "2F065738-4B59-43EB-A5F2-FD5F277958EA";
shapes = (
{
closed = 1;
nodes = (
(464,-8,o),
(558,90,o),
(558,351,cs),
(558,612,o),
(466,711,o),
(303,711,cs),
(140,711,o),
(48,612,o),
(48,351,cs),
(48,90,o),
(142,-8,o),
(303,-8,cs)
);
},
{
closed = 1;
nodes = (
(230,124,o),
(198,166,o),
(198,351,cs),
(198,536,o),
(230,579,o),
(303,579,cs),
(376,579,o),
(408,536,o),
(408,351,cs),
(408,166,o),
(376,124,o),
(303,124,cs)
);
}
);
width = 606;
},
{
associatedMasterId = "2F065738-4B59-43EB-A5F2-FD5F277958EA";
layerId = "5F8D2D39-F500-4F3D-8B2F-F556895C49D6";
name = "18 Dec 23, 17:38";
shapes = (
{
closed = 1;
nodes = (
(445,-8,o),
(535,110,o),
(535,351,cs),
(535,594,o),
(446,711,o),
(296,711,cs),
(146,711,o),
(57,594,o),
(57,351,cs),
(57,110,o),
(147,-8,o),
(296,-8,cs)
);
},
{
closed = 1;
nodes = (
(236,124,o),
(207,178,o),
(207,351,cs),
(207,526,o),
(236,579,o),
(296,579,cs),
(356,579,o),
(385,526,o),
(385,351,cs),
(385,178,o),
(356,124,o),
(296,124,cs)
);
}
);
width = 592;
}
);
metricLeft = O;
metricRight = O;
unicode = 48;
},
{
color = 6;
glyphname = one;
lastChange = "2023-12-21 20:44:54 +0000";
layers = (
{
layerId = "2F065738-4B59-43EB-A5F2-FD5F277958EA";
shapes = (
{
closed = 1;
nodes = (
(130,644,l),
(130,59,ls),
(130,13,o),
(154,-8,o),
(204,-8,cs),
(253,-8,o),
(274,13,o),
(274,59,cs),
(274,633,ls),
(274,679,o),
(250,700,o),
(201,700,cs),
(77,700,ls),
(31,700,o),
(10,676,o),
(10,626,cs),
(10,577,o),
(31,556,o),
(77,556,cs),
(201,556,l)
);
}
);
width = 346;
}
);
metricRight = H;
unicode = 49;
},
{
color = 6;
glyphname = two;
lastChange = "2023-12-30 13:16:02 +0000";
layers = (
{
layerId = "2F065738-4B59-43EB-A5F2-FD5F277958EA";
shapes = (
{
closed = 1;
nodes = (
(441,0,ls),
(491,0,o),
(518,24,o),
(518,69,cs),
(518,114,o),
(490,139,o),
(441,139,cs),
(262,139,ls),
(247,139,o),
(224,135,o),
(209,119,c),
(210,148,l),
(210,150,ls),
(210,194,o),
(230,213,o),
(305,235,cs),
(453,279,o),
(515,342,o),
(515,498,cs),
(515,633,o),
(421,711,o),
(270,711,cs),
(219,711,o),
(170,703,o),
(136,689,cs),
(108,678,o),
(94,660,o),
(94,632,cs),
(94,544,o),
(198,575,o),
(278,579,cs),
(348,583,o),
(372,543,o),
(372,497,cs),
(372,402,o),
(338,386,o),
(236,353,cs),
(110,315,o),
(66,250,o),
(66,132,cs),
(66,78,o),
(60,0,o),
(136,0,cs)
);
}
);
width = 564;
},
{
associatedMasterId = "2F065738-4B59-43EB-A5F2-FD5F277958EA";
layerId = "39569260-F329-471A-A919-91418C399C89";
name = "18 Dec 23, 17:38";
shapes = (
{
closed = 1;
nodes = (
(450,0,ls),
(500,0,o),
(527,24,o),
(527,69,cs),
(527,114,o),
(499,139,o),
(450,139,cs),
(262,139,ls),
(239,139,o),
(213,128,o),
(197,109,c),
(204,119,o),
(211,135,o),
(210,148,cs),
(210,150,ls),
(210,194,o),
(230,213,o),
(314,237,cs),
(462,279,o),
(524,342,o),
(524,498,cs),
(524,633,o),
(425,711,o),
(265,711,cs),
(214,711,o),
(165,703,o),
(131,689,cs),
(103,678,o),
(89,660,o),
(89,632,cs),
(89,593,o),
(111,572,o),
(162,572,cs),
(196,572,o),
(236,579,o),
(273,579,cs),
(352,579,o),
(381,543,o),
(381,497,cs),
(381,402,o),
(347,386,o),
(236,353,cs),
(110,315,o),
(66,250,o),
(66,132,cs),
(66,78,ls),
(66,40,o),
(88,0,o),
(136,0,cs)
);
}
);
visible = 1;
width = 600;
}
);
metricRight = B;
unicode = 50;
},
{
color = 6;
glyphname = three;
lastChange = "2023-12-30 15:49:03 +0000";
layers = (
{
background = {
shapes = (
{
pos = (-29,0);
ref = eight;
}
);
};
layerId = "2F065738-4B59-43EB-A5F2-FD5F277958EA";
shapes = (
{
closed = 1;
nodes = (
(440,-8,o),
(518,102,o),
(518,204,cs),
(518,286,o),
(453,334,o),
(413,352,c),
(453,373,o),
(484,439,o),
(484,505,cs),
(484,651,o),
(365,712,o),
(258,711,cs),
(165,710,o),
(99,689,o),
(99,627,cs),
(99,559,o),
(191,591,o),
(263,591,cs),
(317,591,o),
(356,563,o),
(356,505,cs),
(356,440,o),
(317,415,o),
(271,415,cs),
(184,415,o),
(104,428,o),
(104,350,cs),
(104,273,o),
(181,285,o),
(275,285,cs),
(321,285,o),
(374,272,o),
(374,206,cs),
(374,94,o),
(230,130,o),
(135,130,cs),
(80,130,o),
(60,107,o),
(60,76,cs),
(60,46,o),
(70,14,o),
(136,1,cs),
(161,-4,o),
(189,-8,o),
(243,-8,cs)
);
}
);
width = 564;
}
);
unicode = 51;
},
{
color = 6;
glyphname = four;
lastChange = "2023-12-30 13:16:26 +0000";
layers = (
{
layerId = "2F065738-4B59-43EB-A5F2-FD5F277958EA";
shapes = (
{
closed = 1;
nodes = (
(147,180,o),
(151,202,o),
(168,247,cs),
(314,643,ls),
(331,688,o),
(290,710,o),
(241,710,cs),
(191,710,o),
(187,688,o),
(170,643,cs),
(24,247,ls),
(7,202,o),
(48,180,o),
(98,180,cs)
);
},
{
closed = 1;
nodes = (
(503,180,ls),
(553,180,o),
(580,204,o),
(580,249,cs),
(580,294,o),
(552,319,o),
(503,319,cs),
(232,319,ls),
(209,319,o),
(184,307,o),
(168,288,c),
(168,309,o),
(168,347,o),
(168,369,c),
(32,258,l),
(32,206,o),
(56,180,o),
(104,180,cs)
);
},
{
closed = 1;
nodes = (
(453,-8,o),
(474,13,o),
(474,59,cs),
(474,398,ls),
(474,444,o),
(450,465,o),
(401,465,cs),
(351,465,o),
(330,444,o),
(330,398,cs),
(330,59,ls),
(330,13,o),
(354,-8,o),
(404,-8,cs)
);
}
);
width = 606;
}
);
unicode = 52;
},
{
color = 6;
glyphname = five;
lastChange = "2023-12-30 13:16:40 +0000";
layers = (
{
layerId = "2F065738-4B59-43EB-A5F2-FD5F277958EA";
shapes = (
{
closed = 1;
nodes = (
(386,-8,o),
(494,70,o),
(494,210,cs),
(494,413,o),
(349,429,o),
(185,427,c),
(185,427,o),
(205,593,o),
(205,591,c),
(221,572,o),
(247,561,o),
(270,561,cs),
(395,561,ls),
(444,561,o),
(472,591,o),
(472,636,cs),
(472,681,o),
(445,700,o),
(395,700,cs),
(152,700,ls),
(104,700,o),
(88,657,o),
(82,605,cs),
(55,367,l),
(56,339,o),
(81,311,o),
(122,311,cs),
(231,311,ls),
(277,311,o),
(350,304,o),
(350,210,cs),
(350,148,o),
(301,121,o),
(232,121,cs),
(194,121,o),
(134,143,o),
(101,143,cs),
(52,143,o),
(30,119,o),
(30,73,cs),
(30,-3,o),
(168,-8,o),
(229,-8,cs)
);
}
);
width = 540;
}
);
metricRight = B;
unicode = 53;
},
{
color = 6;
glyphname = six;
lastChange = "2023-12-30 13:17:20 +0000";
layers = (
{
layerId = "2F065738-4B59-43EB-A5F2-FD5F277958EA";
shapes = (
{
closed = 1;
nodes = (
(176,-8,o),
(301,-8,cs),
(416,-8,o),
(528,64,o),
(528,243,cs),
(528,413,o),
(438,486,o),
(309,486,cs),
(245,486,o),
(188,459,o),
(168,413,c),
(208,376,l),
(205,530,o),
(238,581,o),
(387,581,cs),
(443,581,o),
(472,597,o),
(472,640,cs),
(472,693,o),
(438,711,o),
(337,711,cs),
(120,711,o),
(48,497,o),
(48,290,cs),
(48,69,o)
);
},
{
closed = 1;
nodes = (
(390,305,o),
(390,243,cs),
(390,182,o),
(370,124,o),
(299,124,cs),
(228,124,o),
(203,182,o),
(203,243,cs),
(203,305,o),
(228,366,o),
(299,366,cs),
(370,366,o)
);
}
);
width = 574;
},
{
associatedMasterId = "2F065738-4B59-43EB-A5F2-FD5F277958EA";
layerId = "A57603DF-AC92-4C6C-92B7-85AE756BF5F5";
name = "18 Dec 23, 14:16";
shapes = (
{
closed = 1;
nodes = (
(448,-8,o),
(536,91,o),
(536,250,cs),
(536,404,o),
(448,486,o),
(321,486,cs),
(273,486,o),
(229,471,o),
(201,444,c),
(220,572,o),
(272,581,o),
(401,581,cs),
(445,581,o),
(467,598,o),
(467,643,cs),
(467,694,o),
(438,711,o),
(353,711,cs),
(132,711,o),
(57,577,o),
(57,347,cs),
(57,138,o),
(133,-8,o),
(317,-8,cs)
);
},
{
closed = 1;
nodes = (
(250,122,o),
(218,173,o),
(218,250,cs),
(218,309,o),
(250,366,o),
(305,366,cs),
(360,366,o),
(392,309,o),
(392,250,cs),
(392,173,o),
(360,122,o),
(317,122,cs)
);
}
);
width = 568;
}
);
metricLeft = O;
metricRight = B;
unicode = 54;
},
{
color = 6;
glyphname = seven;
lastChange = "2023-12-30 13:17:41 +0000";
layers = (
{
layerId = "2F065738-4B59-43EB-A5F2-FD5F277958EA";
shapes = (
{
closed = 1;
nodes = (
(270,-8,o),
(284,46,o),
(294,70,cs),
(530,633,ls),
(548,677,o),
(517,711,o),
(458,711,cs),
(107,711,ls),
(57,711,o),
(30,687,o),
(30,642,cs),
(30,597,o),
(58,572,o),
(107,572,cs),
(298,572,ls),
(321,572,o),
(346,584,o),
(362,603,c),
(362,603,o),
(337,544,o),
(328,522,c),
(148,94,ls),
(118,22,o),
(174,-8,o),
(222,-8,cs)
);
}
);
width = 575;
}
);
unicode = 55;
},
{
color = 6;
glyphname = eight;
lastChange = "2023-12-30 23:55:40 +0000";
layers = (
{
layerId = "2F065738-4B59-43EB-A5F2-FD5F277958EA";
shapes = (
{
closed = 1;
nodes = (
(192,-11,o),
(315,-11,cs),
(437,-11,o),
(558,57,o),
(558,195,cs),
(558,268,o),
(519,324,o),
(463,353,c),
(508,380,o),
(535,439,o),
(535,504,cs),
(535,604,o),
(473,711,o),
(314,711,cs),
(155,711,o),
(91,605,o),
(91,504,cs),
(91,440,o),
(119,381,o),
(166,353,c),
(111,324,o),
(67,268,o),
(67,195,cs),
(67,59,o)
);
},
{
closed = 1;
nodes = (
(245,114,o),
(211,161,o),
(211,207,cs),
(211,254,o),
(245,300,o),
(314,300,cs),
(382,300,o),
(415,254,o),
(415,207,cs),
(415,161,o),
(382,114,o),
(314,114,cs)
);
},
{
closed = 1;
nodes = (
(258,417,o),
(231,459,o),
(231,504,cs),
(231,546,o),
(260,591,o),
(312,591,cs),
(368,591,o),
(395,546,o),
(395,504,cs),
(395,459,o),
(369,417,o),
(319,417,cs)
);
}
);
width = 604;
},
{
associatedMasterId = "2F065738-4B59-43EB-A5F2-FD5F277958EA";
layerId = "77F137C1-844E-4399-B07D-09784B611A62";
name = "18 Dec 23, 14:19";
shapes = (
{
closed = 1;
nodes = (
(454,-8,o),
(553,59,o),
(553,195,cs),
(553,268,o),
(514,324,o),
(458,353,c),
(503,380,o),
(530,439,o),
(530,504,cs),
(530,604,o),
(468,711,o),
(309,711,cs),
(150,711,o),
(86,605,o),
(86,504,cs),
(86,440,o),
(114,381,o),
(161,353,c),
(106,324,o),
(62,268,o),
(62,195,cs),
(62,59,o),
(174,-8,o),
(309,-8,cs)
);
},
{
closed = 1;
nodes = (
(259,114,o),
(206,152,o),
(206,200,cs),
(206,255,o),
(245,300,o),
(307,300,cs),
(373,300,o),
(409,255,o),
(409,200,cs),
(409,150,o),
(360,114,o),
(310,114,cs)
);
},
{
closed = 1;
nodes = (
(253,417,o),
(226,459,o),
(226,504,cs),
(226,546,o),
(255,591,o),
(307,591,cs),
(363,591,o),
(390,546,o),
(390,504,cs),
(390,459,o),
(364,417,o),
(314,417,cs)
);
}
);
width = 600;
}
);
metricLeft = B;
metricRight = B;
unicode = 56;
},
{
color = 6;
glyphname = nine;
lastChange = "2023-12-30 13:17:22 +0000";
layers = (
{
layerId = "2F065738-4B59-43EB-A5F2-FD5F277958EA";
shapes = (
{
angle = 180;
pos = (574,699);
ref = six;
}
);
width = 574;
},
{
associatedMasterId = "2F065738-4B59-43EB-A5F2-FD5F277958EA";
layerId = "0D681DA3-ECBD-4C6D-8A7C-DFFD6E844C62";
name = "18 Dec 23, 14:17";
shapes = (
{
closed = 1;
nodes = (
(477,-8,o),
(569,105,o),
(569,353,cs),
(569,583,o),
(480,711,o),
(321,711,cs),
(178,711,o),
(90,612,o),
(90,450,cs),
(90,303,o),
(171,217,o),
(305,217,cs),
(353,217,o),
(397,232,o),
(425,259,c),
(406,131,o),
(354,122,o),
(225,122,cs),
(181,122,o),
(159,105,o),
(159,60,cs),
(159,9,o),
(188,-8,o),
(273,-8,cs)
);
},
{
closed = 1;
nodes = (
(266,334,o),
(234,391,o),
(234,450,cs),
(234,530,o),
(266,581,o),
(321,581,cs),
(376,581,o),
(408,530,o),
(408,450,cs),
(408,391,o),
(376,334,o),
(321,334,cs)
);
}
);
width = 600;
}
);
unicode = 57;
},
{
color = 6;
glyphname = period;
lastChange = "2023-12-19 20:05:00 +0000";
layers = (
{
layerId = "2F065738-4B59-43EB-A5F2-FD5F277958EA";
shapes = (
{
closed = 1;
nodes = (
(169,-8,o),
(201,24,o),
(201,70,cs),
(201,117,o),
(169,149,o),
(122,149,cs),
(74,149,o),
(43,117,o),
(43,70,cs),
(43,24,o),
(74,-8,o),
(122,-8,cs)
);
}
);
width = 244;
}
);
metricRight = "=|";
unicode = 46;
},
{
color = 6;
glyphname = comma;
lastChange = "2023-12-22 19:54:09 +0000";
layers = (
{
layerId = "2F065738-4B59-43EB-A5F2-FD5F277958EA";
shapes = (
{
closed = 1;
nodes = (
(94,-189,o),
(101,-172,o),
(109,-155,cs),
(214,67,ls),
(234,110,o),
(224,149,o),
(162,149,cs),
(122,149,o),
(76,131,o),
(64,86,cs),
(6,-133,o),
(10,-145,o),
(10,-153,cs),
(10,-174,o),
(24,-189,o),
(48,-189,cs)
);
}
);
width = 258;
},
{
associatedMasterId = "2F065738-4B59-43EB-A5F2-FD5F277958EA";
layerId = "AF382407-ED47-4C2D-9EBF-2126331DCEC5";
name = "11 Dec 23, 17:56";
shapes = (
{
closed = 1;
nodes = (
(120,-229,ls),
(146,-229,o),
(162,-217,o),
(173,-196,cs),
(318,80,ls),
(323,89,o),
(325,96,o),
(325,103,cs),
(325,122,o),
(311,133,o),
(285,133,cs),
(229,133,o),
(140,148,o),
(125,94,cs),
(54,-168,ls),
(51,-179,o),
(50,-184,o),
(50,-193,cs),
(50,-220,o),
(59,-229,o),
(90,-229,cs)
);
}
);
width = 375;
},
{
associatedMasterId = "2F065738-4B59-43EB-A5F2-FD5F277958EA";
layerId = "99420D23-A74B-4E08-A264-3049FAA1F64C";
name = "18 Dec 23, 17:31";
shapes = (
{
closed = 1;
nodes = (
(66,-230,ls),
(88,-230,o),
(100,-220,o),
(109,-203,cs),
(225,18,ls),
(229,25,o),
(230,31,o),
(230,37,cs),
(230,51,o),
(219,60,o),
(198,60,cs),
(119,60,ls),
(100,60,o),
(75,50,o),
(70,29,cs),
(13,-181,ls),
(11,-190,o),
(10,-193,o),
(10,-201,cs),
(10,-222,o),
(18,-230,o),
(42,-230,cs)
);
}
);
width = 375;
}
);
unicode = 44;
},
{
color = 6;
glyphname = exclam;
lastChange = "2023-12-19 20:05:00 +0000";
layers = (
{
layerId = "2F065738-4B59-43EB-A5F2-FD5F277958EA";
shapes = (
{
closed = 1;
nodes = (
(174,209,o),
(194,235,o),
(194,277,cs),
(194,643,ls),
(194,685,o),
(174,711,o),
(122,711,cs),
(70,711,o),
(50,685,o),
(50,643,cs),
(50,277,ls),
(50,235,o),
(70,209,o),
(122,209,cs)
);
},
{
ref = period;
}
);
width = 246;
},
{
associatedMasterId = "2F065738-4B59-43EB-A5F2-FD5F277958EA";
layerId = "533EFD77-135B-4D0D-B9C9-49A30903D09C";
name = "11 Dec 23, 17:57";
shapes = (
{
closed = 1;
nodes = (
(174,189,o),
(194,215,o),
(194,257,cs),
(194,643,ls),
(194,685,o),
(174,711,o),
(122,711,cs),
(70,711,o),
(50,685,o),
(50,643,cs),
(50,257,ls),
(50,215,o),
(70,189,o),
(122,189,cs)
);
},
{
closed = 1;
nodes = (
(166,-11,o),
(196,20,o),
(196,61,cs),
(196,101,o),
(166,133,o),
(124,133,cs),
(83,133,o),
(52,101,o),
(52,61,cs),
(52,20,o),
(83,-11,o),
(124,-11,cs)
);
}
);
width = 246;
}
);
unicode = 33;
},
{
color = 6;
glyphname = question;
lastChange = "2023-12-19 20:05:00 +0000";
layers = (
{
layerId = "2F065738-4B59-43EB-A5F2-FD5F277958EA";
shapes = (
{
closed = 1;
nodes = (
(232,209,o),
(258,230,o),
(258,260,cs),
(258,281,o),
(253,283,o),
(253,309,cs),
(253,348,o),
(281,340,o),
(331,361,cs),
(406,392,o),
(470,424,o),
(470,533,cs),
(470,654,o),
(373,711,o),
(198,711,cs),
(97,711,o),
(40,687,o),
(40,637,cs),
(40,599,o),
(74,575,o),
(129,575,cs),
(171,575,o),
(334,602,o),
(334,530,cs),
(334,489,o),
(295,483,o),
(235,459,cs),
(137,420,o),
(107,376,o),
(107,319,cs),
(107,273,o),
(127,209,o),
(193,209,cs)
);
},
{
pos = (69,0);
ref = period;
}
);
width = 505;
}
);
unicode = 63;
},
{
color = 6;
glyphname = periodcentered;
lastChange = "2023-12-19 20:05:00 +0000";
layers = (
{
layerId = "2F065738-4B59-43EB-A5F2-FD5F277958EA";
shapes = (
{
closed = 1;
nodes = (
(366,221,o),
(401,257,o),
(401,303,cs),
(401,350,o),
(366,385,o),
(319,385,cs),
(271,385,o),
(237,350,o),
(237,303,cs),
(237,257,o),
(271,221,o),
(319,221,cs)
);
}
);
width = 600;
}
);
unicode = 183;
},
{
color = 6;
glyphname = bullet;
lastChange = "2023-12-19 20:05:00 +0000";
layers = (
{
layerId = "2F065738-4B59-43EB-A5F2-FD5F277958EA";
shapes = (
{
closed = 1;
nodes = (
(389,180,o),
(442,234,o),
(442,303,cs),
(442,373,o),
(389,426,o),
(319,426,cs),
(247,426,o),
(196,373,o),
(196,303,cs),
(196,234,o),
(247,180,o),
(319,180,cs)
);
}
);
width = 600;
}
);
unicode = 8226;
},
{
color = 1;
glyphname = asterisk;
lastChange = "2023-12-19 20:17:36 +0000";
layers = (
{
layerId = "2F065738-4B59-43EB-A5F2-FD5F277958EA";
shapes = (
{
closed = 1;
nodes = (
(203,634,ls),
(203,592,o),
(223,566,o),
(275,566,cs),
(327,566,o),
(347,592,o),
(347,634,cs),
(347,785,ls),
(347,827,o),
(327,853,o),
(275,853,cs),
(223,853,o),
(203,827,o),
(203,785,cs)
);
},
{
closed = 1;
nodes = (
(203,634,ls),
(203,592,o),
(223,566,o),
(275,566,cs),
(327,566,o),
(347,592,o),
(347,634,cs),
(347,785,ls),
(347,827,o),
(327,853,o),
(275,853,cs),
(223,853,o),
(203,827,o),
(203,785,cs)
);
},
{
closed = 1;
nodes = (
(321,626,o),
(289,631,o),
(252,594,cs),
(215,557,o),
(219,524,o),
(249,495,cs),
(356,388,ls),
(385,358,o),
(418,354,o),
(455,391,cs),
(491,428,o),
(487,460,o),
(458,490,cs),
(351,597,ls)
);
},
{
closed = 1;
nodes = (
(266,683,o),
(246,657,o),
(260,606,cs),
(273,556,o),
(303,543,o),
(344,554,cs),
(480,590,ls),
(520,601,o),
(540,627,o),
(527,677,cs),
(513,728,o),
(483,741,o),
(443,729,cs),
(307,693,ls)
);
},
{
closed = 1;
nodes = (
(123,729,ls),
(83,741,o),
(53,728,o),
(39,677,cs),
(26,627,o),
(46,601,o),
(86,590,cs),
(222,554,ls),
(263,543,o),
(293,556,o),
(306,606,cs),
(320,657,o),
(300,683,o),
(259,693,cs)
);
},
{
closed = 1;
nodes = (
(97,490,ls),
(68,460,o),
(64,428,o),
(100,391,cs),
(137,354,o),
(170,358,o),
(199,388,cs),
(306,495,ls),
(336,524,o),
(340,557,o),
(303,594,cs),
(266,631,o),
(234,626,o),
(204,597,cs)
);
}
);
width = 566;
}
);
unicode = 42;
},
{
color = 1;
glyphname = numbersign;
lastChange = "2023-12-22 19:29:05 +0000";
layers = (
{
layerId = "2F065738-4B59-43EB-A5F2-FD5F277958EA";
shapes = (
{
closed = 1;
nodes = (
(452,-8,o),
(478,18,o),
(488,60,cs),
(536,255,o),
(584,448,o),
(628,628,cs),
(636,659,o),
(623,711,o),
(576,711,cs),
(524,711,o),
(498,685,o),
(488,643,cs),
(344,60,ls),
(334,18,o),
(374,-8,o),
(400,-8,cs)
);
},
{
closed = 1;
nodes = (
(160,-8,o),
(186,18,o),
(196,60,cs),
(244,255,o),
(292,448,o),
(336,628,cs),
(344,659,o),
(331,711,o),
(284,711,cs),
(232,711,o),
(206,685,o),
(196,643,cs),
(52,60,ls),
(42,18,o),
(82,-8,o),
(108,-8,cs)
);
},
{
closed = 1;
nodes = (
(599,147,ls),
(641,147,o),
(667,167,o),
(667,219,cs),
(667,271,o),
(641,291,o),
(599,291,cs),
(46,291,ls),
(4,291,o),
(-22,271,o),
(-22,219,cs),
(-22,167,o),
(4,147,o),
(46,147,cs)
);
},
{
closed = 1;
nodes = (
(635,425,ls),
(677,425,o),
(703,445,o),
(703,497,cs),
(703,549,o),
(677,569,o),
(635,569,cs),
(82,569,ls),
(40,569,o),
(14,549,o),
(14,497,cs),
(14,445,o),
(40,425,o),
(82,425,cs)
);
}
);
width = 660;
}
);
unicode = 35;
},
{
color = 1;
glyphname = slash;
lastChange = "2023-12-19 20:17:36 +0000";
layers = (
{
layerId = "2F065738-4B59-43EB-A5F2-FD5F277958EA";
shapes = (
{
closed = 1;
nodes = (
(160,-158,o),
(186,-132,o),
(196,-90,cs),
(244,105,o),
(332,448,o),
(373,628,cs),
(380,659,o),
(366,711,o),
(319,711,cs),
(267,711,o),
(242,685,o),
(232,643,cs),
(52,-90,ls),
(42,-132,o),
(82,-158,o),
(108,-158,cs)
);
}
);
width = 425;
}
);
unicode = 47;
},
{
color = 1;
glyphname = backslash;
lastChange = "2023-12-19 20:17:36 +0000";
layers = (
{
layerId = "2F065738-4B59-43EB-A5F2-FD5F277958EA";
shapes = (
{
closed = 1;
nodes = (
(343,-158,o),
(383,-132,o),
(373,-90,cs),
(193,643,ls),
(183,685,o),
(158,711,o),
(106,711,cs),
(59,711,o),
(45,659,o),
(52,628,cs),
(93,448,o),
(181,105,o),
(229,-90,cs),
(239,-132,o),
(265,-158,o),
(317,-158,cs)
);
}
);
width = 425;
}
);
unicode = 92;
},
{
color = 6;
glyphname = hyphen;
lastChange = "2023-12-19 20:05:00 +0000";
layers = (
{
layerId = "2F065738-4B59-43EB-A5F2-FD5F277958EA";
shapes = (
{
closed = 1;
nodes = (
(376,216,ls),
(418,216,o),
(444,236,o),
(444,288,cs),
(444,340,o),
(418,360,o),
(376,360,cs),
(118,360,ls),
(76,360,o),
(50,340,o),
(50,288,cs),
(50,236,o),
(76,216,o),
(118,216,cs)
);
}
);
width = 494;
}
);
unicode = 45;
},
{
color = 6;
glyphname = endash;
lastChange = "2023-12-19 20:05:00 +0000";
layers = (
{
layerId = "2F065738-4B59-43EB-A5F2-FD5F277958EA";
shapes = (
{
closed = 1;
nodes = (
(481,216,ls),
(523,216,o),
(549,236,o),
(549,288,cs),
(549,340,o),
(523,360,o),
(481,360,cs),
(118,360,ls),
(76,360,o),
(50,340,o),
(50,288,cs),
(50,236,o),
(76,216,o),
(118,216,cs)
);
}
);
width = 599;
}
);
unicode = 8211;
},
{
color = 6;
glyphname = emdash;
lastChange = "2023-12-19 20:05:00 +0000";
layers = (
{
layerId = "2F065738-4B59-43EB-A5F2-FD5F277958EA";
shapes = (
{
closed = 1;
nodes = (
(856,216,ls),
(898,216,o),
(924,236,o),
(924,288,cs),
(924,340,o),
(898,360,o),
(856,360,cs),
(118,360,l),
(76,360,o),
(50,340,o),
(50,288,c),
(50,236,o),
(76,216,o),
(118,216,c)
);
}
);
width = 974;
}
);
unicode = 8212;
},
{
color = 6;
glyphname = underscore;
lastChange = "2023-12-19 20:05:00 +0000";
layers = (
{
layerId = "2F065738-4B59-43EB-A5F2-FD5F277958EA";
shapes = (
{
closed = 1;
nodes = (
(481,0,ls),
(523,0,o),
(549,20,o),
(549,72,cs),
(549,124,o),
(523,144,o),
(481,144,cs),
(118,144,ls),
(76,144,o),
(50,124,o),
(50,72,cs),
(50,20,o),
(76,0,o),
(118,0,cs)
);
}
);
width = 600;
}
);
unicode = 95;
},
{
color = 1;
glyphname = parenleft;
lastChange = "2023-12-19 20:17:43 +0000";
layers = (
{
layerId = "2F065738-4B59-43EB-A5F2-FD5F277958EA";
shapes = (
{
closed = 1;
nodes = (
(164,324,o),
(185,429,o),
(227,517,cs),
(243,551,o),
(271,580,o),
(288,610,cs),
(313,654,o),
(305,687,o),
(256,706,cs),
(233,715,o),
(210,713,o),
(187,695,cs),
(158,672,o),
(125,635,o),
(102,590,cs),
(43,475,o),
(25,355,o),
(25,230,cs),
(25,105,o),
(43,-19,o),
(102,-134,cs),
(125,-179,o),
(158,-216,o),
(187,-239,cs),
(210,-257,o),
(233,-259,o),
(256,-250,cs),
(305,-231,o),
(313,-198,o),
(288,-154,cs),
(271,-124,o),
(243,-95,o),
(227,-61,cs),
(185,27,o),
(164,136,o),
(164,230,cs)
);
}
);
width = 327;
}
);
unicode = 40;
},
{
color = 1;
glyphname = parenright;
lastChange = "2023-12-19 20:17:43 +0000";
layers = (
{
layerId = "2F065738-4B59-43EB-A5F2-FD5F277958EA";
shapes = (
{
closed = 1;
nodes = (
(163,136,o),
(142,27,o),
(100,-61,cs),
(84,-95,o),
(56,-124,o),
(39,-154,cs),
(14,-198,o),
(22,-231,o),
(71,-250,cs),
(94,-259,o),
(117,-257,o),
(140,-239,cs),
(169,-216,o),
(202,-179,o),
(225,-134,cs),
(284,-19,o),
(302,105,o),
(302,230,cs),
(302,355,o),
(284,475,o),
(225,590,cs),
(202,635,o),
(169,672,o),
(140,695,cs),
(117,713,o),
(94,715,o),
(71,706,cs),
(22,687,o),
(14,654,o),
(39,610,cs),
(56,580,o),
(84,551,o),
(100,517,cs),
(142,429,o),
(163,324,o),
(163,230,cs)
);
}
);
width = 327;
}
);
unicode = 41;
},
{
color = 8;
glyphname = braceleft;
lastChange = "2023-12-30 21:20:44 +0000";
layers = (
{
layerId = "2F065738-4B59-43EB-A5F2-FD5F277958EA";
shapes = (
{
closed = 1;
nodes = (
(227,314,o),
(241,397,o),
(243,529,o),
(249,576,o),
(273,591,o),
(302,596,qs),
(322,598,o),
(347,630,o),
(347,658,qs),
(347,718,o),
(273,718,qs),
(202,718,o),
(115,634,o),
(114,565,qs),
(112,451,o),
(109,392,o),
(97,341,o),
(66,310,o),
(0,268,o),
(0,231,qs),
(0,204,o),
(21,180,o),
(69,151,o),
(99,116,o),
(109,69,o),
(112,-25,o),
(114,-102,qs),
(114,-148,o),
(153,-219,o),
(227,-257,o),
(273,-257,qs),
(347,-257,o),
(347,-196,qs),
(347,-170,o),
(322,-137,o),
(280,-131,o),
(260,-123,o),
(247,-98,o),
(242,-51,o),
(242,-1,qs),
(242,67,o),
(225,153,o),
(185,208,o),
(148,231,q),
(187,254,o)
);
}
);
width = 357;
}
);
unicode = 123;
},
{
color = 8;
glyphname = braceright;
lastChange = "2023-12-30 17:13:10 +0000";
layers = (
{
layerId = "2F065738-4B59-43EB-A5F2-FD5F277958EA";
shapes = (
{
closed = 1;
nodes = (
(199,231,q),
(160,208,o),
(122,153,o),
(105,67,o),
(105,-1,qs),
(105,-51,o),
(100,-98,o),
(87,-123,o),
(67,-131,o),
(25,-137,o),
(0,-170,o),
(0,-196,qs),
(0,-257,o),
(74,-257,qs),
(120,-257,o),
(194,-219,o),
(233,-148,o),
(233,-102,qs),
(235,-25,o),
(238,69,o),
(248,116,o),
(278,151,o),
(326,180,o),
(347,204,o),
(347,231,qs),
(347,268,o),
(281,310,o),
(250,341,o),
(238,392,o),
(235,451,o),
(233,565,qs),
(232,634,o),
(145,718,o),
(74,718,qs),
(0,718,o),
(0,658,qs),
(0,630,o),
(25,591,o),
(45,591,qs),
(74,591,o),
(98,576,o),
(104,529,o),
(106,397,o),
(120,314,o),
(160,254,o)
);
}
);
width = 357;
}
);
unicode = 125;
},
{
color = 1;
glyphname = bracketleft;
lastChange = "2023-12-21 20:44:54 +0000";
layers = (
{
layerId = "2F065738-4B59-43EB-A5F2-FD5F277958EA";
shapes = (
{
closed = 1;
nodes = (
(299,-250,ls),
(350,-250,o),
(369,-232,o),
(369,-186,cs),
(369,-138,o),
(348,-118,o),
(299,-118,cs),
(216,-118,l),
(216,579,l),
(299,579,ls),
(348,579,o),
(369,599,o),
(369,647,cs),
(369,693,o),
(350,711,o),
(299,711,cs),
(117,711,ls),
(91,711,o),
(72,689,o),
(72,658,cs),
(72,-197,ls),
(72,-228,o),
(91,-250,o),
(117,-250,cs)
);
}
);
width = 401;
}
);
metricLeft = I;
metricRight = E;
unicode = 91;
},
{
color = 1;
glyphname = bracketright;
lastChange = "2023-12-30 23:55:40 +0000";
layers = (
{
layerId = "2F065738-4B59-43EB-A5F2-FD5F277958EA";
shapes = (
{
closed = 1;
nodes = (
(345,-250,o),
(364,-228,o),
(364,-197,cs),
(364,658,ls),
(364,689,o),
(345,711,o),
(319,711,cs),
(137,711,ls),
(86,711,o),
(67,693,o),
(67,647,cs),
(67,599,o),
(88,579,o),
(137,579,cs),
(220,579,l),
(220,-118,l),
(137,-118,ls),
(88,-118,o),
(67,-138,o),
(67,-186,cs),
(67,-232,o),
(86,-250,o),
(137,-250,cs),
(319,-250,ls)
);
}
);
width = 436;
}
);
metricLeft = E;
metricRight = I;
unicode = 93;
},
{
color = 0;
glyphname = quotesinglbase;
lastChange = "2023-12-22 19:54:49 +0000";
layers = (
{
layerId = "2F065738-4B59-43EB-A5F2-FD5F277958EA";
shapes = (
{
closed = 1;
nodes = (
(114,-189,o),
(121,-172,o),
(129,-155,cs),
(234,67,ls),
(254,110,o),
(244,149,o),
(182,149,cs),
(142,149,o),
(96,131,o),
(84,86,cs),
(26,-133,o),
(30,-145,o),
(30,-153,cs),
(30,-174,o),
(44,-189,o),
(68,-189,cs)
);
}
);
width = 273;
}
);
unicode = 8218;
},
{
color = 6;
glyphname = quotedblright;
lastChange = "2023-12-22 19:33:43 +0000";
layers = (
{
layerId = "2F065738-4B59-43EB-A5F2-FD5F277958EA";
shapes = (
{
pos = (222,562);
ref = comma;
},
{
closed = 1;
nodes = (
(118,366,o),
(123,396,o),
(136,437,cs),
(195,636,ls),
(209,681,o),
(198,712,o),
(136,712,cs),
(96,712,o),
(48,688,o),
(44,642,cs),
(25,419,o),
(30,407,o),
(31,399,cs),
(33,378,o),
(48,366,o),
(72,366,cs)
);
}
);
width = 508;
}
);
unicode = 8221;
},
{
color = 1;
glyphname = guillemetleft;
lastChange = "2023-12-19 20:17:43 +0000";
layers = (
{
layerId = "2F065738-4B59-43EB-A5F2-FD5F277958EA";
shapes = (
{
closed = 0;
nodes = (
(181,252,ls),
(181,260,o),
(232,358,o),
(258,411,cs)
);
},
{
closed = 1;
nodes = (
(181,260,o),
(232,358,o),
(258,411,cs),
(270,435,o),
(270,460,o),
(247,484,cs),
(221,510,o),
(177,525,o),
(144,495,cs),
(136,488,o),
(129,477,o),
(125,468,cs),
(92,396,o),
(25,272,o),
(25,252,cs),
(25,231,o),
(92,106,o),
(125,33,cs),
(129,24,o),
(136,15,o),
(144,8,cs),
(177,-22,o),
(221,-7,o),
(247,19,cs),
(270,41,o),
(270,68,o),
(258,93,cs),
(232,146,o),
(181,244,o),
(181,252,cs)
);
},
{
closed = 0;
nodes = (
(455,252,ls),
(455,260,o),
(506,358,o),
(532,411,cs)
);
},
{
closed = 1;
nodes = (
(455,260,o),
(506,358,o),
(532,411,cs),
(544,435,o),
(544,460,o),
(521,484,cs),
(495,510,o),
(451,525,o),
(418,495,cs),
(410,488,o),
(403,477,o),
(399,468,cs),
(366,396,o),
(299,272,o),
(299,252,cs),
(299,231,o),
(366,106,o),
(399,33,cs),
(403,24,o),
(410,15,o),
(418,8,cs),
(451,-22,o),
(495,-7,o),
(521,19,cs),
(544,41,o),
(544,68,o),
(532,93,cs),
(506,146,o),
(455,244,o),
(455,252,cs)
);
}
);
width = 565;
}
);
unicode = 171;
},
{
color = 1;
glyphname = guillemetright;
lastChange = "2023-12-19 20:17:43 +0000";
layers = (
{
layerId = "2F065738-4B59-43EB-A5F2-FD5F277958EA";
shapes = (
{
closed = 0;
nodes = (
(384,252,ls),
(384,260,o),
(333,358,o),
(307,411,cs)
);
},
{
closed = 1;
nodes = (
(384,244,o),
(333,146,o),
(307,93,cs),
(295,68,o),
(295,41,o),
(318,19,cs),
(344,-7,o),
(388,-22,o),
(421,8,cs),
(429,15,o),
(436,24,o),
(440,33,cs),
(473,106,o),
(540,231,o),
(540,252,cs),
(540,272,o),
(473,396,o),
(440,468,cs),
(436,477,o),
(429,488,o),
(421,495,cs),
(388,525,o),
(344,510,o),
(318,484,cs),
(295,460,o),
(295,435,o),
(307,411,cs),
(333,358,o),
(384,260,o),
(384,252,cs)
);
},
{
closed = 0;
nodes = (
(110,252,ls),
(110,260,o),
(59,358,o),
(33,411,cs)
);
},
{
closed = 1;
nodes = (
(110,244,o),
(59,146,o),
(33,93,cs),
(21,68,o),
(21,41,o),
(44,19,cs),
(70,-7,o),
(114,-22,o),
(147,8,cs),
(155,15,o),
(162,24,o),
(166,33,cs),
(199,106,o),
(266,231,o),
(266,252,cs),
(266,272,o),
(199,396,o),
(166,468,cs),
(162,477,o),
(155,488,o),
(147,495,cs),
(114,525,o),
(70,510,o),
(44,484,cs),
(21,460,o),
(21,435,o),
(33,411,cs),
(59,358,o),
(110,260,o),
(110,252,cs)
);
}
);
width = 565;
}
);
unicode = 187;
},
{
color = 0;
glyphname = guilsinglleft;
lastChange = "2023-12-22 19:53:59 +0000";
layers = (
{
layerId = "2F065738-4B59-43EB-A5F2-FD5F277958EA";
shapes = (
{
closed = 0;
nodes = (
(206,252,ls),
(206,260,o),
(257,358,o),
(283,411,cs)
);
},
{
closed = 1;
nodes = (
(206,260,o),
(257,358,o),
(283,411,cs),
(295,435,o),
(295,460,o),
(272,484,cs),
(246,510,o),
(202,525,o),
(169,495,cs),
(161,488,o),
(154,477,o),
(150,468,cs),
(117,396,o),
(50,272,o),
(50,252,cs),
(50,231,o),
(117,106,o),
(150,33,cs),
(154,24,o),
(161,15,o),
(169,8,cs),
(202,-22,o),
(246,-7,o),
(272,19,cs),
(295,41,o),
(295,68,o),
(283,93,cs),
(257,146,o),
(206,244,o),
(206,252,cs)
);
}
);
width = 321;
}
);
unicode = 8249;
},
{
color = 0;
glyphname = guilsinglright;
lastChange = "2023-12-22 19:53:19 +0000";
layers = (
{
layerId = "2F065738-4B59-43EB-A5F2-FD5F277958EA";
shapes = (
{
closed = 0;
nodes = (
(115,252,ls),
(115,260,o),
(64,358,o),
(38,411,cs)
);
},
{
closed = 1;
nodes = (
(115,244,o),
(64,146,o),
(38,93,cs),
(26,68,o),
(26,41,o),
(49,19,cs),
(75,-7,o),
(119,-22,o),
(152,8,cs),
(160,15,o),
(167,24,o),
(171,33,cs),
(204,106,o),
(271,231,o),
(271,252,cs),
(271,272,o),
(204,396,o),
(171,468,cs),
(167,477,o),
(160,488,o),
(152,495,cs),
(119,525,o),
(75,510,o),
(49,484,cs),
(26,460,o),
(26,435,o),
(38,411,cs),
(64,358,o),
(115,260,o),
(115,252,cs)
);
},
{
closed = 0;
nodes = (
(-3,252,ls)
);
}
);
width = 321;
}
);
unicode = 8250;
},
{
color = 0;
glyphname = quotedbl;
lastChange = "2023-12-22 19:52:23 +0000";
layers = (
{
layerId = "2F065738-4B59-43EB-A5F2-FD5F277958EA";
shapes = (
{
closed = 1;
nodes = (
(92,700,o),
(89,682,o),
(85,664,cs),
(33,432,ls),
(23,386,o),
(42,350,o),
(102,364,cs),
(141,373,o),
(182,401,o),
(184,447,cs),
(191,666,o),
(184,677,o),
(182,684,cs),
(178,705,o),
(161,716,o),
(137,710,cs)
);
},
{
closed = 1;
nodes = (
(326,700,o),
(323,682,o),
(319,664,cs),
(267,432,ls),
(257,386,o),
(276,350,o),
(336,364,cs),
(375,373,o),
(416,401,o),
(418,447,cs),
(425,666,o),
(418,677,o),
(416,684,cs),
(412,705,o),
(395,716,o),
(371,711,cs)
);
}
);
width = 451;
}
);
unicode = 34;
},
{
color = 0;
glyphname = quotesingle;
lastChange = "2023-12-22 19:52:45 +0000";
layers = (
{
layerId = "2F065738-4B59-43EB-A5F2-FD5F277958EA";
shapes = (
{
closed = 1;
nodes = (
(92,700,o),
(89,682,o),
(85,664,cs),
(33,432,ls),
(23,386,o),
(42,350,o),
(102,364,cs),
(141,373,o),
(182,401,o),
(184,447,cs),
(191,666,o),
(184,677,o),
(182,684,cs),
(178,705,o),
(161,716,o),
(137,710,cs)
);
}
);
width = 217;
}
);
unicode = 39;
},
{
color = 1;
glyphname = rbelowcomb;
lastChange = "2023-12-30 19:16:26 +0000";
layers = (
{
hints = (
{
horizontal = 1;
place = (315,72);
type = Stem;
},
{
horizontal = 1;
place = (-24,21);
target = up;
type = BottomGhost;
},
{
place = (51,92);
type = Stem;
}
);
layerId = "2F065738-4B59-43EB-A5F2-FD5F277958EA";
shapes = (
{
closed = 1;
nodes = (
(66,-261,o),
(78,-250,o),
(78,-227,cs),
(78,-124,ls),
(78,-83,o),
(91,-72,o),
(137,-72,cs),
(169,-72,o),
(181,-63,o),
(181,-44,cs),
(181,-20,o),
(168,-8,o),
(139,-8,cs),
(110,-8,o),
(88,-20,o),
(76,-42,c),
(76,-19,o),
(66,-9,o),
(43,-9,cs),
(20,-9,o),
(8,-20,o),
(8,-43,cs),
(8,-227,ls),
(8,-250,o),
(20,-261,o),
(43,-261,cs)
);
}
);
width = 417;
}
);
unicode = 7626;
},
{
color = 1;
glyphname = dieresiscomb;
lastChange = "2023-12-30 19:16:26 +0000";
layers = (
{
anchors = (
{
name = _top;
pos = (0,480);
},
{
name = top;
}
);
layerId = "2F065738-4B59-43EB-A5F2-FD5F277958EA";
shapes = (
{
closed = 1;
nodes = (
(159,595,o),
(184,620,o),
(184,656,cs),
(184,693,o),
(159,718,o),
(122,718,cs),
(84,718,o),
(60,693,o),
(60,656,cs),
(60,620,o),
(84,595,o),
(122,595,cs)
);
},
{
closed = 1;
nodes = (
(388,595,o),
(413,620,o),
(413,656,cs),
(413,693,o),
(388,718,o),
(351,718,cs),
(313,718,o),
(289,693,o),
(289,656,cs),
(289,620,o),
(313,595,o),
(351,595,cs)
);
}
);
width = 473;
}
);
unicode = 776;
},
{
color = 1;
glyphname = dotaccentcomb;
lastChange = "2023-12-30 19:16:26 +0000";
layers = (
{
anchors = (
{
name = _top;
pos = (-24,480);
},
{
name = top;
pos = (-24,0);
}
);
layerId = "2F065738-4B59-43EB-A5F2-FD5F277958EA";
shapes = (
{
closed = 1;
nodes = (
(159,595,o),
(184,620,o),
(184,656,cs),
(184,693,o),
(159,718,o),
(122,718,cs),
(84,718,o),
(60,693,o),
(60,656,cs),
(60,620,o),
(84,595,o),
(122,595,cs)
);
}
);
width = 244;
}
);
unicode = 775;
},
{
color = 1;
glyphname = gravecomb;
lastChange = "2023-12-30 19:16:26 +0000";
layers = (
{
anchors = (
{
name = _top;
pos = (249,440);
},
{
name = top;
pos = (680,229);
}
);
layerId = "2F065738-4B59-43EB-A5F2-FD5F277958EA";
shapes = (
{
closed = 1;
nodes = (
(205,547,o),
(227,666,o),
(226,718,cs),
(227,759,o),
(216,781,o),
(194,792,cs),
(163,807,o),
(124,800,o),
(110,771,cs),
(107,764,o),
(104,757,o),
(105,749,c),
(112,670,o),
(131,554,o),
(131,543,cs),
(132,526,o),
(140,515,o),
(151,510,cs),
(166,502,o),
(187,508,o),
(195,526,cs)
);
}
);
width = 287;
}
);
unicode = 768;
},
{
color = 1;
glyphname = acutecomb;
lastChange = "2023-12-30 19:16:26 +0000";
layers = (
{
anchors = (
{
name = _top;
pos = (149,500);
},
{
name = top;
pos = (149,703);
}
);
layerId = "2F065738-4B59-43EB-A5F2-FD5F277958EA";
shapes = (
{
closed = 1;
nodes = (
(77,566,o),
(194,599,o),
(240,622,cs),
(277,640,o),
(292,659,o),
(292,684,cs),
(292,718,o),
(269,750,o),
(237,750,cs),
(236,750,o),
(222,750,o),
(209,741,c),
(147,702,o),
(51,638,o),
(41,631,cs),
(0,602,o),
(26,566,o),
(54,566,c)
);
}
);
width = 287;
},
{
anchors = (
{
name = _top;
pos = (149,500);
},
{
name = top;
pos = (149,703);
}
);
associatedMasterId = "2F065738-4B59-43EB-A5F2-FD5F277958EA";
layerId = "156D906C-034C-4332-ABF8-6AA7CF7C60F5";
name = "18 Dec 23, 14:11";
shapes = (
{
closed = 1;
nodes = (
(78,536,o),
(142,554,o),
(182,574,cs),
(238,602,o),
(276,639,o),
(276,666,cs),
(276,688,o),
(255,703,o),
(224,703,cs),
(184,703,o),
(134,683,o),
(94,651,cs),
(53,620,o),
(22,580,o),
(22,559,cs),
(22,544,o),
(32,536,o),
(50,536,cs)
);
}
);
width = 287;
}
);
unicode = 769;
},
{
color = 1;
glyphname = caroncomb.alt;
lastChange = "2023-12-30 19:16:26 +0000";
layers = (
{
anchors = (
{
name = _topright;
pos = (-38,742);
}
);
layerId = "2F065738-4B59-43EB-A5F2-FD5F277958EA";
shapes = (
{
closed = 1;
nodes = (
(100,543,o),
(186,628,o),
(215,672,cs),
(240,705,o),
(243,729,o),
(232,750,cs),
(215,781,o),
(179,797,o),
(151,781,cs),
(144,777,o),
(138,773,o),
(134,766,c),
(94,698,o),
(43,592,o),
(37,583,cs),
(28,568,o),
(28,555,o),
(35,544,cs),
(42,529,o),
(63,522,o),
(80,532,cs)
);
}
);
width = 268;
}
);
},
{
color = 1;
glyphname = circumflexcomb;
lastChange = "2023-12-30 19:16:26 +0000";
layers = (
{
anchors = (
{
name = _top;
pos = (276,480);
},
{
name = top;
pos = (276,0);
}
);
layerId = "2F065738-4B59-43EB-A5F2-FD5F277958EA";
shapes = (
{
pos = (-13,1343);
ref = caroncomb;
scale = (1,-1);
}
);
width = 477;
},
{
anchors = (
{
name = _top;
pos = (90,480);
},
{
name = top;
pos = (90,0);
}
);
associatedMasterId = "2F065738-4B59-43EB-A5F2-FD5F277958EA";
layerId = "D6532CF5-98BC-4405-A66C-FD08B4F4C9FC";
name = "28 Dec 23 at 11:59";
shapes = (
{
closed = 0;
nodes = (
(261,602,l),
(269,602,o),
(367,551,o),
(420,525,cs)
);
},
{
pos = (-199,1343);
ref = caroncomb;
scale = (1,-1);
},
{
closed = 1;
nodes = (
(269,602,o),
(367,551,o),
(420,525,cs),
(444,513,o),
(469,513,o),
(493,536,cs),
(519,562,o),
(534,606,o),
(504,639,cs),
(497,647,o),
(486,654,o),
(477,658,cs),
(405,691,o),
(281,758,o),
(261,758,cs),
(240,758,o),
(115,691,o),
(42,658,cs),
(33,654,o),
(24,647,o),
(17,639,cs),
(-13,606,o),
(2,562,o),
(28,536,cs),
(50,513,o),
(77,513,o),
(102,525,cs),
(155,551,o),
(253,602,o),
(261,602,cs)
);
}
);
width = 521;
}
);
unicode = 770;
},
{
color = 1;
glyphname = caroncomb;
lastChange = "2023-12-30 19:16:26 +0000";
layers = (
{
anchors = (
{
name = _top;
pos = (-31,480);
},
{
name = top;
pos = (-31,0);
}
);
layerId = "2F065738-4B59-43EB-A5F2-FD5F277958EA";
shapes = (
{
closed = 1;
nodes = (
(262,574,o),
(379,607,o),
(425,630,cs),
(462,648,o),
(477,667,o),
(477,692,cs),
(477,726,o),
(454,758,o),
(422,758,cs),
(421,758,o),
(407,758,o),
(394,749,c),
(332,710,o),
(236,678,o),
(226,671,cs),
(185,642,o),
(211,574,o),
(239,574,c)
);
},
{
closed = 1;
nodes = (
(266,574,o),
(292,642,o),
(251,671,cs),
(241,678,o),
(145,710,o),
(83,749,c),
(70,758,o),
(56,758,o),
(55,758,cs),
(23,758,o),
(0,726,o),
(0,692,cs),
(0,667,o),
(15,648,o),
(52,630,cs),
(98,607,o),
(215,574,o),
(238,574,c)
);
}
);
width = 477;
},
{
anchors = (
{
name = _top;
pos = (0,480);
},
{
name = top;
}
);
associatedMasterId = "2F065738-4B59-43EB-A5F2-FD5F277958EA";
layerId = "3E1E9DA3-92BC-4BE8-9B55-66E959BFEB97";
name = "28 Dec 23 at 11:26";
shapes = (
{
closed = 0;
nodes = (
(420,750,l),
(367,724,o),
(269,673,o),
(261,673,cs)
);
},
{
closed = 1;
nodes = (
(253,673,o),
(155,724,o),
(102,750,cs),
(77,762,o),
(50,762,o),
(28,739,cs),
(2,713,o),
(-13,669,o),
(17,636,cs),
(24,628,o),
(33,621,o),
(42,617,cs),
(115,584,o),
(240,517,o),
(261,517,cs),
(281,517,o),
(405,584,o),
(477,617,cs),
(486,621,o),
(497,628,o),
(504,636,cs),
(534,669,o),
(519,713,o),
(493,739,cs),
(469,762,o),
(444,762,o),
(420,750,cs),
(367,724,o),
(269,673,o),
(261,673,cs)
);
}
);
visible = 1;
width = 521;
}
);
unicode = 780;
},
{
color = 1;
glyphname = brevecomb;
lastChange = "2023-12-30 19:16:26 +0000";
layers = (
{
anchors = (
{
name = _top;
pos = (-82,480);
},
{
name = top;
pos = (-82,0);
}
);
layerId = "2F065738-4B59-43EB-A5F2-FD5F277958EA";
shapes = (
{
closed = 1;
nodes = (
(136,604,o),
(77,618,o),
(77,673,cs),
(77,708,o),
(84,696,o),
(84,718,cs),
(84,742,o),
(73,758,o),
(48,758,cs),
(12,758,o),
(0,745,o),
(0,675,cs),
(0,583,o),
(79,529,o),
(171,529,cs),
(262,529,o),
(341,583,o),
(341,675,cs),
(341,745,o),
(329,758,o),
(293,758,cs),
(268,758,o),
(257,742,o),
(257,718,cs),
(257,696,o),
(264,708,o),
(264,673,cs),
(264,618,o),
(205,604,o),
(171,604,cs)
);
}
);
width = 341;
}
);
unicode = 774;
},
{
color = 1;
glyphname = ringcomb;
lastChange = "2023-12-30 19:16:26 +0000";
layers = (
{
anchors = (
{
name = _top;
pos = (-20,480);
},
{
name = top;
pos = (-20,0);
}
);
layerId = "2F065738-4B59-43EB-A5F2-FD5F277958EA";
shapes = (
{
closed = 1;
nodes = (
(77,610,o),
(56,631,o),
(56,656,cs),
(56,681,o),
(77,702,o),
(102,702,cs),
(127,702,o),
(148,681,o),
(148,656,cs),
(148,631,o),
(127,610,o),
(102,610,cs)
);
},
{
closed = 1;
nodes = (
(158,554,o),
(204,600,o),
(204,656,cs),
(204,712,o),
(158,758,o),
(102,758,cs),
(46,758,o),
(0,712,o),
(0,656,cs),
(0,600,o),
(46,554,o),
(102,554,cs)
);
}
);
width = 204;
}
);
unicode = 778;
},
{
color = 1;
glyphname = tildecomb;
lastChange = "2023-12-30 19:16:26 +0000";
layers = (
{
anchors = (
{
name = _top;
pos = (-38,480);
},
{
name = top;
pos = (-38,0);
}
);
layerId = "2F065738-4B59-43EB-A5F2-FD5F277958EA";
shapes = (
{
closed = 1;
nodes = (
(268,551,o),
(317,586,o),
(317,630,cs),
(317,659,o),
(296,672,o),
(266,672,cs),
(214,672,o),
(225,623,o),
(211,623,cs),
(207,623,o),
(206,634,o),
(206,636,cs),
(206,691,o),
(159,721,o),
(104,721,cs),
(44,721,o),
(0,683,o),
(0,642,cs),
(0,613,o),
(21,600,o),
(51,600,cs),
(102,600,o),
(103,638,o),
(103,649,cs),
(103,650,ls),
(103,654,o),
(108,650,o),
(108,636,cs),
(108,586,o),
(155,551,o),
(213,551,cs)
);
}
);
width = 317;
}
);
unicode = 771;
},
{
color = 1;
glyphname = macroncomb;
lastChange = "2023-12-30 19:16:26 +0000";
layers = (
{
anchors = (
{
name = _top;
pos = (206,687);
},
{
name = top;
pos = (206,791);
}
);
hints = (
{
horizontal = 1;
place = (710,81);
type = Stem;
},
{
place = (50,312);
type = Stem;
}
);
layerId = "2F065738-4B59-43EB-A5F2-FD5F277958EA";
shapes = (
{
closed = 1;
nodes = (
(326,683,ls),
(357,683,o),
(377,698,o),
(377,736,cs),
(377,773,o),
(357,788,o),
(326,788,cs),
(86,788,ls),
(55,788,o),
(35,773,o),
(35,736,cs),
(35,698,o),
(55,683,o),
(86,683,cs)
);
}
);
width = 412;
}
);
unicode = 772;
},
{
color = 1;
glyphname = breveinvertedcomb;
lastChange = "2023-12-30 19:16:26 +0000";
layers = (
{
layerId = "2F065738-4B59-43EB-A5F2-FD5F277958EA";
shapes = (
{
closed = 1;
nodes = (
(189,683,o),
(248,669,o),
(248,614,cs),
(248,579,o),
(241,591,o),
(241,569,cs),
(241,545,o),
(252,529,o),
(277,529,cs),
(313,529,o),
(325,542,o),
(325,612,cs),
(325,704,o),
(246,758,o),
(155,758,cs),
(63,758,o),
(-16,704,o),
(-16,612,cs),
(-16,542,o),
(-4,529,o),
(32,529,cs),
(57,529,o),
(68,545,o),
(68,569,cs),
(68,591,o),
(61,579,o),
(61,614,cs),
(61,669,o),
(120,683,o),
(155,683,cs)
);
}
);
width = 300;
}
);
unicode = 785;
},
{
color = 1;
glyphname = dotbelowcomb;
lastChange = "2023-12-30 19:16:26 +0000";
layers = (
{
layerId = "2F065738-4B59-43EB-A5F2-FD5F277958EA";
shapes = (
{
closed = 1;
nodes = (
(168,-185,o),
(193,-160,o),
(193,-124,cs),
(193,-87,o),
(168,-62,o),
(131,-62,cs),
(93,-62,o),
(69,-87,o),
(69,-124,cs),
(69,-160,o),
(93,-185,o),
(131,-185,cs)
);
}
);
width = 300;
}
);
unicode = 803;
},
{
color = 1;
glyphname = ringbelowcomb;
lastChange = "2023-12-30 19:16:26 +0000";
layers = (
{
layerId = "2F065738-4B59-43EB-A5F2-FD5F277958EA";
shapes = (
{
closed = 1;
nodes = (
(137,-192,o),
(116,-171,o),
(116,-146,cs),
(116,-121,o),
(137,-100,o),
(162,-100,cs),
(187,-100,o),
(208,-121,o),
(208,-146,cs),
(208,-171,o),
(187,-192,o),
(162,-192,cs)
);
},
{
closed = 1;
nodes = (
(218,-248,o),
(264,-202,o),
(264,-146,cs),
(264,-90,o),
(218,-44,o),
(162,-44,cs),
(106,-44,o),
(60,-90,o),
(60,-146,cs),
(60,-202,o),
(106,-248,o),
(162,-248,cs)
);
}
);
width = 324;
}
);
unicode = 805;
},
{
color = 1;
glyphname = cedillacomb;
lastChange = "2023-12-30 21:19:52 +0000";
layers = (
{
anchors = (
{
name = _bottom;
pos = (-2,0);
},
{
name = bottom;
pos = (-2,0);
}
);
layerId = "2F065738-4B59-43EB-A5F2-FD5F277958EA";
shapes = (
{
closed = 1;
nodes = (
(130,-5,l),
(130,-5,o),
(89,-58,o),
(89,-71,cs),
(89,-83,o),
(93,-89,o),
(102,-89,cs),
(124,-89,o),
(149,-95,o),
(149,-126,cs),
(149,-179,o),
(81,-162,o),
(36,-162,cs),
(10,-162,o),
(0,-173,o),
(0,-188,cs),
(0,-202,o),
(5,-218,o),
(36,-224,cs),
(48,-226,o),
(61,-228,o),
(87,-228,cs),
(181,-228,o),
(218,-176,o),
(218,-127,cs),
(218,-78,o),
(180,-62,o),
(168,-57,c),
(180,-51,o),
(193,-29,o),
(200,-5,c)
);
}
);
width = 298;
}
);
unicode = 807;
},
{
color = 1;
glyphname = macronbelowcomb;
lastChange = "2023-12-30 21:17:37 +0000";
layers = (
{
anchors = (
{
name = _top;
pos = (171,687);
},
{
name = top;
pos = (171,791);
}
);
hints = (
{
horizontal = 1;
place = (710,81);
type = Stem;
},
{
place = (50,312);
type = Stem;
}
);
layerId = "2F065738-4B59-43EB-A5F2-FD5F277958EA";
shapes = (
{
closed = 1;
nodes = (
(276,-199,ls),
(307,-199,o),
(327,-184,o),
(327,-146,cs),
(327,-109,o),
(307,-94,o),
(276,-94,cs),
(36,-94,ls),
(5,-94,o),
(-15,-109,o),
(-15,-146,cs),
(-15,-184,o),
(5,-199,o),
(36,-199,cs)
);
}
);
width = 342;
}
);
unicode = 817;
},
{
color = 1;
glyphname = ring;
lastChange = "2023-12-30 19:16:26 +0000";
layers = (
{
layerId = "2F065738-4B59-43EB-A5F2-FD5F277958EA";
shapes = (
{
closed = 1;
nodes = (
(97,610,o),
(76,631,o),
(76,656,cs),
(76,681,o),
(97,702,o),
(122,702,cs),
(147,702,o),
(168,681,o),
(168,656,cs),
(168,631,o),
(147,610,o),
(122,610,cs)
);
},
{
closed = 1;
nodes = (
(178,554,o),
(224,600,o),
(224,656,cs),
(224,712,o),
(178,758,o),
(122,758,cs),
(66,758,o),
(20,712,o),
(20,656,cs),
(20,600,o),
(66,554,o),
(122,554,cs)
);
}
);
width = 244;
}
);
unicode = 730;
},
{
color = 1;
glyphname = tilde;
lastChange = "2023-12-30 19:16:26 +0000";
layers = (
{
hints = (
{
horizontal = 1;
place = (600,121);
type = Stem;
},
{
horizontal = 1;
place = (551,72);
type = Stem;
},
{
place = (50,290);
type = Stem;
}
);
layerId = "2F065738-4B59-43EB-A5F2-FD5F277958EA";
shapes = (
{
closed = 1;
nodes = (
(298,551,o),
(347,586,o),
(347,630,cs),
(347,659,o),
(326,672,o),
(296,672,cs),
(244,672,o),
(255,623,o),
(241,623,cs),
(237,623,o),
(236,634,o),
(236,636,cs),
(236,691,o),
(189,721,o),
(134,721,cs),
(74,721,o),
(30,683,o),
(30,642,cs),
(30,613,o),
(51,600,o),
(81,600,cs),
(132,600,o),
(133,638,o),
(133,649,cs),
(133,650,ls),
(133,654,o),
(138,650,o),
(138,636,cs),
(138,586,o),
(185,551,o),
(243,551,cs)
);
}
);
width = 377;
}
);
note = tilde;
unicode = 732;
},
{
color = 1;
glyphname = macron;
lastChange = "2023-12-30 19:16:26 +0000";
layers = (
{
hints = (
{
horizontal = 1;
place = (710,81);
type = Stem;
},
{
place = (50,312);
type = Stem;
}
);
layerId = "2F065738-4B59-43EB-A5F2-FD5F277958EA";
shapes = (
{
closed = 1;
nodes = (
(310,653,ls),
(341,653,o),
(361,668,o),
(361,708,cs),
(361,747,o),
(341,762,o),
(310,762,cs),
(101,762,ls),
(70,762,o),
(50,747,o),
(50,708,cs),
(50,668,o),
(70,653,o),
(101,653,cs)
);
}
);
width = 411;
}
);
note = macron;
unicode = 175;
},
{
color = 1;
glyphname = cedilla;
lastChange = "2023-12-30 19:16:26 +0000";
layers = (
{
layerId = "2F065738-4B59-43EB-A5F2-FD5F277958EA";
shapes = (
{
closed = 1;
nodes = (
(130,-5,l),
(130,-5,o),
(92,-58,o),
(89,-71,cs),
(85,-89,o),
(95,-89,o),
(102,-89,cs),
(124,-89,o),
(149,-95,o),
(149,-126,cs),
(149,-179,o),
(81,-162,o),
(36,-162,cs),
(10,-162,o),
(0,-173,o),
(0,-188,cs),
(0,-202,o),
(5,-218,o),
(36,-224,cs),
(48,-226,o),
(61,-228,o),
(87,-228,cs),
(181,-228,o),
(218,-176,o),
(218,-127,cs),
(218,-88,o),
(187,-65,o),
(168,-57,c),
(183,-49,o),
(195,-29,o),
(200,-5,c)
);
}
);
width = 218;
}
);
unicode = 184;
},
